<?xml version="1.0" standalone="no"?>
<!DOCTYPE svg PUBLIC "-//W3C//DTD SVG 1.1//EN" "http://www.w3.org/Graphics/SVG/1.1/DTD/svg11.dtd" >
<svg xmlns="http://www.w3.org/2000/svg" xmlns:xlink="http://www.w3.org/1999/xlink" version="1.1">
<metadata>
Created by FontForge 20201107 at Fri Jul 31 16:50:32 2020
 By 
(c) 2013 Klim Type Foundry. All Rights Reserved.
</metadata>
<defs>
<font id="DomaineDispCondMedium" horiz-adv-x="1024" >
  <font-face 
    font-family="Domaine Disp Cond Medium"
    font-weight="500"
    font-stretch="condensed"
    units-per-em="2048"
    panose-1="2 10 6 8 8 5 5 6 2 3"
    ascent="1638"
    descent="-410"
    x-height="1001"
    cap-height="1434"
    bbox="-236 -479 1913 1913"
    underline-thickness="77"
    underline-position="-267"
    unicode-range="U+0020-FB04"
  />
<missing-glyph 
 />
    <glyph glyph-name="ff" unicode="ff" horiz-adv-x="983" 
d="M336 999h260v148v35q-65 7 -94 57q90 25 90 123q0 53 -28.5 80.5t-80.5 27.5q-147 0 -147 -233v-238zM420 4v-4h-389v4q39 21 55.5 42.5t22.5 56t6 106.5v737h-115v15l115 45v106q0 126 52.5 216.5t134 132.5t181.5 42q140 0 207 -67q97 106 256 106q102 0 169 -44.5
t67 -133.5q0 -66 -39 -106.5t-103 -40.5q-35 0 -65 16.5t-45 42.5q26 10 42 21t31 39t15 69q0 104 -78 104q-65 0 -95 -70.5t-30 -187.5v-252h166l-10 -53h-156v-749q0 -42 4.5 -70t10 -45.5t22 -32.5t28.5 -22t42 -23v-4h-410v4q54 31 69 65.5t15 129.5v747h-260v-739
q0 -100 15 -136t69 -67z" />
    <glyph glyph-name="fi" unicode="fi" horiz-adv-x="927" 
d="M336 1225v-224h479v-794q0 -101 15 -136.5t71 -66.5v-4h-389v4q54 31 69 66.5t15 136.5v641q0 54 -23.5 77t-74.5 23h-162v-741q0 -100 15 -136t69 -67v-4h-389v4q39 21 55.5 42.5t22.5 56t6 106.5v737h-115v15l115 45v84q0 219 108 335.5t289 116.5q131 0 212 -52
t81 -144q0 -62 -41.5 -102t-108.5 -40q-76 0 -114 51q88 17 88 127q0 60 -30 93.5t-87 33.5q-87 0 -131.5 -80t-44.5 -204z" />
    <glyph glyph-name="fl" unicode="fl" horiz-adv-x="927" 
d="M815 1546v-1339q0 -101 15 -136.5t71 -66.5v-4h-389v4q54 31 69 66.5t15 136.5v1175q0 48 -32.5 87.5t-94.5 39.5q-133 0 -133 -200v-310h192l-10 -53h-182v-739q0 -100 15 -136t69 -67v-4h-389v4q39 21 55.5 42.5t22.5 56t6 106.5v737h-115v15l115 45v165
q0 179 91.5 275t244.5 96q134 0 208 -96q46 17 78.5 38.5t73.5 61.5h4z" />
    <glyph glyph-name="ffi" unicode="ffi" horiz-adv-x="1409" 
d="M336 1001h260v89q0 46 6 90q-32 3 -59 19t-41 40q90 25 90 123q0 53 -28.5 80.5t-80.5 27.5q-147 0 -147 -233v-236zM420 4v-4h-389v4q39 21 55.5 42.5t22.5 56t6 106.5v737h-115v15l115 45v106q0 126 52.5 216.5t134 132.5t181.5 42q67 0 126 -20.5t93 -59.5
q104 119 289 119q132 0 213.5 -52t81.5 -144q0 -62 -41 -102t-108 -40q-77 0 -115 51q86 18 86 127q0 61 -29.5 94t-87.5 33q-87 0 -131.5 -80t-44.5 -204v-224h481v-794q0 -101 15 -136.5t69 -66.5v-4h-387v4q54 31 69 66.5t15 136.5v641q0 54 -24 77t-76 23h-162v-741
q0 -70 6.5 -104.5t23.5 -56t56 -42.5v-4h-389v4q55 31 70 67.5t14 137.5v739h-260v-741q0 -100 15 -136t69 -67z" />
    <glyph glyph-name="ffl" unicode="ffl" horiz-adv-x="1409" 
d="M336 999h260v183q-65 6 -94 57q90 25 90 123q0 53 -28.5 80.5t-80.5 27.5q-147 0 -147 -233v-238zM420 4v-4h-389v4q39 21 55.5 42.5t22.5 56t6 106.5v737h-115v15l115 45v106q0 126 52.5 216.5t134 132.5t181.5 42q131 0 201 -61q86 100 248 100q135 0 209 -96
q75 29 151 100h4v-1339q0 -101 15 -136.5t69 -66.5v-4h-387v4q54 31 69 66.5t15 136.5v1175q0 48 -32.5 87.5t-94.5 39.5q-69 0 -102 -53.5t-33 -146.5v-310h193l-9 -53h-184v-739q0 -70 6.5 -104.5t23.5 -56t56 -42.5v-4h-389v4q38 22 54.5 42.5t23 56t6.5 106.5v737h-260
v-739q0 -100 15 -136t69 -67z" />
    <glyph glyph-name="f_b" unicode="fb" horiz-adv-x="1427" 
d="M815 1546v-766q21 119 87 180.5t165 61.5q136 0 229 -140t93 -380q0 -231 -101.5 -376.5t-249.5 -145.5q-92 0 -161 56t-97 169q-38 -151 -205 -223q21 141 21 454v946q0 48 -32.5 87.5t-94.5 39.5q-133 0 -133 -200v-310h192l-10 -53h-182v-739q0 -100 15 -136t69 -67
v-4h-389v4q39 21 55.5 42.5t22.5 56t6 106.5v737h-115v15l115 45v165q0 179 91.5 275t244.5 96q134 0 208 -96q46 17 78.5 38.5t73.5 61.5h4zM987 934q-68 0 -120 -85t-52 -235v-239q0 -158 50 -244t118 -86q55 0 94 58.5t57.5 160t18.5 238.5q0 200 -42.5 316t-123.5 116z
" />
    <glyph glyph-name="f_f_b" unicode="ffb" horiz-adv-x="1908" 
d="M1520 -20q-92 0 -161 56t-97 169q-20 -80 -79 -139.5t-126 -83.5q20 134 20 454v946q0 48 -32.5 87.5t-94.5 39.5q-69 0 -102 -53.5t-33 -146.5v-310h193l-9 -53h-184v-739q0 -70 6.5 -104.5t23.5 -56t56 -42.5v-4h-389v4q38 22 54.5 42.5t23 56t6.5 106.5v737h-260v-739
q0 -100 15 -136t69 -67v-4h-389v4q39 21 55.5 42.5t22.5 56t6 106.5v737h-115v15l115 45v106q0 126 52.5 216.5t134 132.5t181.5 42q131 0 201 -61q86 100 248 100q135 0 209 -96q75 29 151 100h4v-766q21 119 87 180.5t165 61.5q135 0 228.5 -140t93.5 -380
q0 -231 -102 -376.5t-248 -145.5zM336 999h260v183q-65 6 -94 57q90 25 90 123q0 53 -28.5 80.5t-80.5 27.5q-147 0 -147 -233v-238zM1468 934q-69 0 -120.5 -85t-51.5 -235v-239q0 -158 50 -244t118 -86q81 0 125.5 124.5t44.5 332.5q0 200 -42.5 316t-123.5 116z" />
    <glyph glyph-name="f_f_h" unicode="ffh" horiz-adv-x="1888" 
d="M336 999h260v183q-65 6 -94 57q90 25 90 123q0 53 -28.5 80.5t-80.5 27.5q-147 0 -147 -233v-238zM420 4v-4h-389v4q39 21 55.5 42.5t22.5 56t6 106.5v737h-115v15l115 45v106q0 126 52.5 216.5t134 132.5t181.5 42q131 0 201 -61q86 100 248 100q135 0 209 -96
q75 29 151 100h4v-751q29 109 95.5 168t160.5 59q108 0 169 -68.5t61 -197.5v-549q0 -100 15.5 -136t70.5 -67v-4h-389v4q56 31 71 66.5t15 136.5v538q0 152 -115 152q-65 0 -109.5 -64t-44.5 -196v-430q0 -101 15 -136.5t69 -66.5v-4h-387v4q54 31 69 66.5t15 136.5v1175
q0 48 -32.5 87.5t-94.5 39.5q-69 0 -102 -53.5t-33 -146.5v-310h193l-9 -53h-184v-739q0 -70 6.5 -104.5t23.5 -56t56 -42.5v-4h-389v4q38 22 54.5 42.5t23 56t6.5 106.5v737h-260v-739q0 -100 15 -136t69 -67z" />
    <glyph glyph-name="f_f_j" unicode="ffj" horiz-adv-x="1398" 
d="M336 1001h260v89q0 46 6 90q-32 3 -59 19t-41 40q90 25 90 123q0 53 -28.5 80.5t-80.5 27.5q-147 0 -147 -233v-236zM979 -477q-112 0 -183 48t-71 140q0 63 42.5 105.5t102.5 42.5q37 0 68 -17t43 -43q-92 -24 -92 -127q0 -52 24 -83t66 -31q32 0 52.5 19t30 56
t12.5 73.5t3 88.5v1053q0 54 -24 77t-76 23h-162v-741q0 -70 6.5 -104.5t23.5 -56t56 -42.5v-4h-389v4q55 31 70 67.5t14 137.5v739h-260v-741q0 -100 15 -136t69 -67v-4h-389v4q39 21 55.5 42.5t22.5 56t6 106.5v737h-115v15l115 45v106q0 126 52.5 216.5t134 132.5
t181.5 42q67 0 126 -20.5t93 -59.5q104 119 289 119q132 0 213.5 -52t81.5 -144q0 -62 -41 -102t-108 -40q-77 0 -115 51q86 18 86 127q0 61 -29.5 94t-87.5 33q-87 0 -131.5 -80t-44.5 -204v-224h481v-1107q0 -184 -86.5 -277.5t-230.5 -93.5z" />
    <glyph glyph-name="f_f_k" unicode="ffk" horiz-adv-x="1884" 
d="M336 999h260v183q-65 6 -94 57q90 25 90 123q0 53 -28.5 80.5t-80.5 27.5q-147 0 -147 -233v-238zM420 4v-4h-389v4q39 21 55.5 42.5t22.5 56t6 106.5v737h-115v15l115 45v106q0 126 52.5 216.5t134 132.5t181.5 42q131 0 201 -61q86 100 248 100q135 0 209 -96
q75 29 151 100h4v-973h54q36 0 62.5 13.5t55.5 52.5l125 186q29 40 29 76q0 65 -66 96v4h330v-4q-144 -49 -229 -170l-131 -196l209 -428q38 -76 80.5 -122t97.5 -77v-4h-334q-7 57 -49 147l-162 338q-12 26 -24 35.5t-31 9.5h-17v-323q0 -101 15 -136.5t69 -66.5v-4h-387v4
q54 31 69 66.5t15 136.5v1175q0 48 -32.5 87.5t-94.5 39.5q-69 0 -102 -53.5t-33 -146.5v-310h193l-9 -53h-184v-739q0 -70 6.5 -104.5t23.5 -56t56 -42.5v-4h-389v4q38 22 54.5 42.5t23 56t6.5 106.5v737h-260v-739q0 -100 15 -136t69 -67z" />
    <glyph glyph-name="f_h" unicode="fh" horiz-adv-x="1406" 
d="M815 1546v-751q29 108 96 167.5t160 59.5q107 0 168 -68.5t61 -197.5v-549q0 -100 15.5 -136t70.5 -67v-4h-389v4q56 31 71 66.5t15 136.5v538q0 152 -114 152q-65 0 -109.5 -64t-44.5 -196v-430q0 -101 15 -136.5t69 -66.5v-4h-387v4q54 31 69 66.5t15 136.5v1175
q0 48 -32.5 87.5t-94.5 39.5q-133 0 -133 -200v-310h192l-10 -53h-182v-739q0 -100 15 -136t69 -67v-4h-389v4q39 21 55.5 42.5t22.5 56t6 106.5v737h-115v15l115 45v165q0 179 91.5 275t244.5 96q134 0 208 -96q46 17 78.5 38.5t73.5 61.5h4z" />
    <glyph glyph-name="f_j" unicode="fj" horiz-adv-x="917" 
d="M498 -477q-112 0 -182 47.5t-70 140.5q0 63 41.5 105.5t103.5 42.5q35 0 66 -17t45 -43q-94 -23 -94 -127q0 -51 24.5 -82.5t65.5 -31.5q32 0 52.5 19t30 56t12.5 73.5t3 88.5v1053q0 54 -23.5 77t-74.5 23h-162v-741q0 -100 15 -136t69 -67v-4h-389v4q39 21 55.5 42.5
t22.5 56t6 106.5v737h-115v15l115 45v84q0 219 108 335.5t289 116.5q131 0 212 -52t81 -144q0 -62 -41.5 -102t-108.5 -40q-76 0 -114 51q88 17 88 127q0 60 -30 93.5t-87 33.5q-87 0 -131.5 -80t-44.5 -204v-224h479v-1107q0 -184 -86.5 -277.5t-230.5 -93.5z" />
    <glyph glyph-name="f_k" unicode="fk" horiz-adv-x="1402" 
d="M815 1546v-973h53q37 0 64.5 13.5t54.5 52.5l125 186q29 36 29 76q0 65 -66 96v4h330v-4q-145 -49 -227 -170l-131 -196l208 -428q37 -76 79 -122t98 -77v-4h-334q-4 51 -49 147l-162 338q-12 26 -23 35.5t-30 9.5h-19v-323q0 -101 15 -136.5t69 -66.5v-4h-387v4
q54 31 69 66.5t15 136.5v1175q0 48 -32.5 87.5t-94.5 39.5q-133 0 -133 -200v-310h192l-10 -53h-182v-739q0 -100 15 -136t69 -67v-4h-389v4q39 21 55.5 42.5t22.5 56t6 106.5v737h-115v15l115 45v165q0 179 91.5 275t244.5 96q134 0 208 -96q46 17 78.5 38.5t73.5 61.5h4z
" />
    <glyph glyph-name="f_idieresis" unicode="f&#xef;" horiz-adv-x="927" 
d="M846 1174q-53 0 -86 35.5t-33 86.5t33.5 88t85.5 37q49 0 85 -37.5t36 -87.5t-36 -86t-85 -36zM336 1313v-312h479v-794q0 -101 15 -136.5t71 -66.5v-4h-389v4q54 31 69 66.5t15 136.5v641q0 54 -23.5 77t-74.5 23h-162v-741q0 -100 15 -136t69 -67v-4h-389v4
q39 21 55.5 42.5t22.5 56t6 106.5v737h-115v15l115 45v139q0 180 90.5 288.5t232.5 108.5q105 0 171.5 -58t66.5 -149q0 -70 -37 -115.5t-96 -45.5q-35 0 -64 16.5t-43 44.5q40 5 69.5 45t29.5 102q0 59 -23.5 93t-67.5 34q-108 0 -108 -196z" />
    <glyph glyph-name="f_f_idieresis" unicode="ff&#xef;" horiz-adv-x="1406" 
d="M1380 2v-4h-389v4q38 23 54.5 43.5t23 55t6.5 104.5v641q0 55 -23.5 77.5t-74.5 22.5h-162v-749q0 -42 4.5 -70t10 -45.5t22 -32.5t28.5 -22t42 -23v-4h-410v4q54 31 69 65.5t15 129.5v747h-260v-739q0 -100 15 -136t69 -67v-4h-389v4q39 21 55.5 42.5t22.5 56t6 106.5
v737h-115v15l115 45v106q0 126 52.5 216.5t134 132.5t181.5 42q138 0 205 -67q87 104 230 104q104 0 169.5 -57t65.5 -148q0 -72 -36 -118t-95 -46q-35 0 -64 17t-43 45q40 5 69.5 45t29.5 102q0 59 -24 94t-68 35q-107 0 -107 -198v-312h479v-794q0 -101 15 -136t71 -67z
M336 999h258v144q0 27 2 39q-65 6 -94 57q90 25 90 123q0 53 -28.5 80.5t-80.5 27.5q-147 0 -147 -233v-238zM1325 1171q-52 0 -86.5 37t-34.5 86q0 51 34 88t87 37q49 0 85 -37.5t36 -87.5q0 -48 -36 -85.5t-85 -37.5z" />
    <glyph glyph-name=".notdef" 
 />
    <glyph glyph-name=".null" horiz-adv-x="0" 
 />
    <glyph glyph-name="nonmarkingreturn" horiz-adv-x="682" 
 />
    <glyph glyph-name="space" unicode=" " horiz-adv-x="292" 
 />
    <glyph glyph-name="exclam" unicode="!" horiz-adv-x="477" 
d="M86 1434h305l-147 -998h-11zM385 133q0 -61 -42.5 -104t-104.5 -43t-105 43t-43 104q0 63 43 106.5t105 43.5t104.5 -43.5t42.5 -106.5z" />
    <glyph glyph-name="quotedbl" unicode="&#x22;" horiz-adv-x="667" 
d="M485 862h-4q-6 38 -16 99t-43 196t-68 207q16 38 51 64t76 26q43 0 78 -26t51 -64q-35 -72 -66 -197.5t-45 -214.5zM188 862h-4q-5 38 -15 99t-43 196t-69 207q18 39 52.5 64.5t76.5 25.5q41 0 76 -25.5t53 -64.5q-36 -72 -67.5 -197.5t-45.5 -214.5z" />
    <glyph glyph-name="numbersign" unicode="#" horiz-adv-x="1009" 
d="M612 498l62 438h-277l-61 -438h276zM541 0l65 453h-276l-66 -453h-43l66 453h-248l6 45h248l61 438h-276l8 43h274l66 455h43l-66 -455h277l65 455h46l-66 -455h244l-6 -43h-244l-62 -438h275l-8 -45h-273l-65 -453h-45z" />
    <glyph glyph-name="dollar" unicode="$" horiz-adv-x="966" 
d="M481 1417q-19 0 -51 -4v-522l92 -41v565q-12 2 -41 2zM227 1161q0 -102 42.5 -158.5t127.5 -97.5v500q-79 -25 -124.5 -91t-45.5 -153zM461 16q25 0 61 4v574l-92 39v-615q10 -2 31 -2zM760 313q0 73 -24 123t-65.5 81t-115.5 63v-553q98 25 151.5 99.5t53.5 186.5z
M461 -20h-31v-213h-33v215q-168 13 -270 91.5t-102 194.5q0 74 48 121t111 47q72 0 111 -53q-40 0 -67 -33.5t-27 -93.5q0 -89 52 -152.5t144 -80.5v624l-6 2q-77 33 -132 66.5t-103 81t-72.5 111.5t-24.5 145q0 155 93.5 261.5t244.5 133.5v211h33v-207q16 2 51 2
q27 0 41 -2v207h33v-209q146 -14 235 -83t89 -171q0 -69 -41.5 -107t-98.5 -38q-34 0 -64 12t-42 33q34 2 61 36.5t27 88.5q0 73 -44 123t-122 65v-573l37 -17q64 -28 105 -50t88 -57.5t74 -74t45 -96t18 -127.5q0 -170 -104.5 -283.5t-262.5 -142.5v-221h-33v217
q-40 -4 -61 -4z" />
    <glyph glyph-name="percent" unicode="%" horiz-adv-x="1048" 
d="M188 0h-77l718 1374q-103 -90 -204 -90q-54 0 -119 21q35 -68 35 -152q0 -124 -73 -212.5t-177 -88.5t-177 88.5t-73 212.5q0 122 73.5 211.5t176.5 89.5q43 0 80 -13.5t63.5 -32t53 -37.5t62 -32.5t77.5 -13.5q40 0 73.5 9t68.5 33.5t57.5 44t66.5 61.5l22 -19zM291 887
q102 0 102 266t-102 266q-54 0 -79.5 -73.5t-25.5 -192.5q0 -121 25.5 -193.5t79.5 -72.5zM758 -10q-103 0 -176.5 89.5t-73.5 211.5q0 124 73 212.5t177 88.5t177 -88.5t73 -212.5q0 -122 -73.5 -211.5t-176.5 -89.5zM758 25q102 0 102 266t-102 266q-54 0 -79.5 -72.5
t-25.5 -193.5q0 -119 25.5 -192.5t79.5 -73.5z" />
    <glyph glyph-name="ampersand" unicode="&#x26;" horiz-adv-x="1062" 
d="M455 909l41 -69q58 49 92.5 132t34.5 189q0 68 -14 123.5t-47.5 93t-82.5 37.5q-60 0 -96.5 -58.5t-36.5 -144.5q0 -55 17 -111t35.5 -92t56.5 -100zM485 63q93 0 177 68l-343 565q-94 -115 -94 -295q0 -154 72.5 -246t187.5 -92zM739 0l-55 92q-124 -112 -287 -112
q-157 0 -264.5 94.5t-107.5 255.5q0 261 282 387l-51 86q-98 158 -98 301q0 157 95.5 253.5t225.5 96.5q144 0 226.5 -86.5t82.5 -220.5q0 -64 -25 -120t-67 -96t-89 -68t-99 -46l291 -498q58 129 61 281q1 76 -26.5 118.5t-100.5 76.5v4h303v-4q-61 -27 -82.5 -69
t-29.5 -126q-18 -173 -99 -326l62 -104q37 -64 73 -99t93 -67v-4h-314z" />
    <glyph glyph-name="quotesingle" unicode="'" horiz-adv-x="372" 
d="M188 862h-4q-5 38 -15 99t-43 196t-69 207q18 39 52.5 64.5t76.5 25.5q41 0 76 -25.5t53 -64.5q-36 -72 -67.5 -197.5t-45.5 -214.5z" />
    <glyph glyph-name="parenleft" unicode="(" horiz-adv-x="563" 
d="M80 641q0 156 34.5 295.5t97 249.5t139 195.5t169.5 152.5h27q-121 -133 -181.5 -368t-60.5 -525t60.5 -525t181.5 -368h-27q-93 67 -169.5 152.5t-139 195.5t-97 249.5t-34.5 295.5z" />
    <glyph glyph-name="parenright" unicode=")" horiz-adv-x="563" 
d="M43 1534q93 -67 169.5 -152.5t139 -195.5t97 -249.5t34.5 -295.5t-34.5 -295.5t-97 -249.5t-139 -195.5t-169.5 -152.5h-27q121 133 181.5 368t60.5 525t-60.5 525t-181.5 368h27z" />
    <glyph glyph-name="asterisk" unicode="*" horiz-adv-x="811" 
d="M301 1534h207q-25 -23 -52 -111.5t-34 -173.5q81 36 155 88t87 84l65 -196q-32 17 -123 15.5t-174 -21.5q56 -63 129 -118t109 -63l-168 -120q7 35 -22 120.5t-74 159.5q-45 -74 -74.5 -159.5t-22.5 -120.5l-170 120q36 8 110.5 63t131.5 118q-84 20 -176.5 21.5
t-122.5 -15.5l65 196q13 -32 87 -84t155 -88q-7 85 -35 173t-53 112z" />
    <glyph glyph-name="plus" unicode="+" horiz-adv-x="817" 
d="M729 631h-293v-291h-57v291h-291v57h291v291h57v-291h293v-57z" />
    <glyph glyph-name="comma" unicode="," horiz-adv-x="421" 
d="M268 55q-12 -21 -39 -34t-59 -13q-52 0 -86.5 35t-34.5 90q0 61 40 100t104 39q75 0 120 -55t45 -141q0 -138 -88.5 -218.5t-236.5 -82.5v26q122 15 184.5 85.5t50.5 168.5z" />
    <glyph glyph-name="hyphen" unicode="-" horiz-adv-x="415" 
d="M61 526v80h295v-80h-295z" />
    <glyph glyph-name="period" unicode="." horiz-adv-x="421" 
d="M358 133q0 -61 -43 -104t-104 -43q-62 0 -105 43t-43 104q0 63 43 106.5t105 43.5t104.5 -43.5t42.5 -106.5z" />
    <glyph glyph-name="slash" unicode="/" horiz-adv-x="686" 
d="M0 -252l584 1786h61l-582 -1786h-63z" />
    <glyph glyph-name="zero" unicode="0" horiz-adv-x="1048" 
d="M993 717q0 -209 -55.5 -375t-163 -264t-250.5 -98q-142 0 -249.5 97.5t-163.5 264t-56 375.5t56 375.5t163.5 264t249.5 97.5q143 0 250.5 -98t163 -264t55.5 -375zM737 717q0 362 -48 528t-165 166q-116 0 -164.5 -166.5t-48.5 -527.5t48.5 -527.5t164.5 -166.5
q117 0 165 166t48 528z" />
    <glyph glyph-name="one" unicode="1" horiz-adv-x="608" 
d="M594 0h-565v8q6 2 16 7q100 40 123 60q31 25 33 83v16v1079q0 24 -1.5 39.5t-10.5 30.5t-16.5 23t-31 21t-41 20.5t-58.5 25.5q-6 3 -9.5 4.5t-8.5 3.5l-10 4v9h410v-1260q0 -67 25 -91t122 -65q15 -7 23 -10v-8z" />
    <glyph glyph-name="two" unicode="2" horiz-adv-x="864" 
d="M393 1419q-80 0 -133 -72t-53 -182q0 -91 46 -146.5t124 -55.5q51 0 78 18h4q-22 -62 -71.5 -96.5t-119.5 -34.5q-107 0 -172 70t-65 186q0 151 102.5 249.5t259.5 98.5q187 0 305.5 -102.5t118.5 -288.5q0 -99 -33 -189.5t-113.5 -197.5t-188.5 -216t-285 -270h272
q68 0 106.5 3t77.5 13t64.5 32t50.5 56.5t53 90.5h6l-34 -385h-807v4q181 199 298.5 354t183 282.5t91 229.5t25.5 213q0 74 -9 131.5t-29.5 105.5t-59 73.5t-93.5 25.5z" />
    <glyph glyph-name="three" unicode="3" horiz-adv-x="872" 
d="M385 18q101 0 162 100t61 273q0 185 -79.5 278t-219.5 93v18q248 14 248 340q0 295 -164 295q-69 0 -112 -54.5t-43 -139.5q0 -67 28 -106.5t82 -39.5q33 0 49 8h4q-37 -100 -159 -100q-73 0 -123.5 53t-50.5 140q0 118 93.5 198t235.5 80q179 0 282 -93t103 -243
q0 -143 -88 -229t-233 -109q154 -13 265.5 -118.5t111.5 -270.5q0 -127 -61 -222t-162.5 -142t-227.5 -47q-101 0 -183.5 32t-135 100t-52.5 162q0 93 58 149t139 56q120 0 156 -106h-4q-17 10 -52 10q-46 0 -74 -43.5t-28 -112.5q0 -97 46.5 -153t127.5 -56z" />
    <glyph glyph-name="four" unicode="4" horiz-adv-x="978" 
d="M504 449v759l-404 -759h404zM504 242v151h-494v4l576 1053h143v-1001h33q81 0 112 27.5t68 121.5h4v-356h-4q-26 67 -44 95.5t-48.5 42t-87.5 13.5h-33v-151q0 -105 22.5 -155t92.5 -83v-4h-455v4q70 33 92.5 83t22.5 155z" />
    <glyph glyph-name="five" unicode="5" horiz-adv-x="897" 
d="M387 16q65 0 112.5 34.5t75.5 97t41 140t13 171.5q0 174 -61.5 274.5t-174.5 100.5q-70 0 -136 -46.5t-112 -107.5h-2l64 766q175 -35 344 -35q108 0 161.5 16t98.5 80h4q0 -315 -268 -315q-77 0 -165 16.5t-140 36.5l-39 -452q43 53 115.5 86.5t158.5 33.5
q170 0 275.5 -123.5t105.5 -312.5q0 -218 -129 -357.5t-334 -139.5q-96 0 -178.5 32t-138 103t-55.5 170q0 94 58.5 154.5t139.5 60.5q116 0 154 -107h-4q-19 8 -52 8q-47 2 -76.5 -41.5t-29.5 -119.5q0 -100 49 -162t125 -62z" />
    <glyph glyph-name="six" unicode="6" horiz-adv-x="985" 
d="M592 1454q141 0 229 -75t88 -199q0 -78 -49 -130.5t-121 -52.5q-56 0 -103 30.5t-61 86.5h5q21 -14 55 -14q46 0 77 37.5t31 111.5t-39 120t-110 46q-102 0 -176 -99t-108 -247.5t-34 -320.5q0 -28 5 -101q75 242 290 242q68 0 130.5 -26.5t115 -77.5t84 -137.5
t31.5 -196.5q0 -207 -115 -339t-299 -132q-110 0 -200 58.5t-146.5 157t-86.5 221.5t-30 257q0 145 38.5 285t107 250t171 177.5t220.5 67.5zM705 438q0 174 -49.5 282.5t-145.5 108.5q-61 0 -106.5 -53.5t-68 -141.5t-22.5 -196q0 -112 20 -203.5t67.5 -153t115.5 -61.5
q91 0 140 119t49 299z" />
    <glyph glyph-name="seven" unicode="7" horiz-adv-x="872" 
d="M223 1434h641v-4l-178 -324q-127 -238 -169 -495t-34 -599l-237 -24q14 167 49 320.5t91.5 295t117 259.5t145.5 261l62 103h-396q-107 0 -168.5 -38.5t-111.5 -150.5h-4l43 416q44 -20 149 -20z" />
    <glyph glyph-name="eight" unicode="8" horiz-adv-x="911" 
d="M551 819q169 -84 249.5 -189.5t80.5 -246.5q0 -176 -116.5 -289.5t-305.5 -113.5q-187 0 -308.5 99t-121.5 271q0 128 83 214.5t214 117.5q-103 54 -170.5 155.5t-67.5 225.5q0 177 104.5 284t264.5 107q155 0 259.5 -89.5t104.5 -236.5q0 -69 -25 -125.5t-67.5 -92
t-86 -57.5t-91.5 -34zM266 1165q0 -102 43 -166t135 -118l82 -47q123 99 123 296q0 125 -51 206t-145 81q-86 0 -136.5 -73.5t-50.5 -178.5zM352 672q-71 -47 -108 -129.5t-37 -186.5q0 -151 69.5 -244.5t188.5 -93.5q106 0 168.5 76.5t62.5 204.5q0 98 -52.5 166.5
t-172.5 136.5z" />
    <glyph glyph-name="nine" unicode="9" horiz-adv-x="985" 
d="M281 995q0 -114 20.5 -200t65 -138.5t108.5 -52.5q61 0 106.5 53.5t68 141.5t22.5 196q0 112 -20 203.5t-67.5 153t-115.5 61.5q-61 0 -104.5 -58t-63.5 -150.5t-20 -209.5zM393 -20q-141 0 -229 75t-88 199q0 78 49 130t121 52q56 0 103 -30.5t61 -86.5h-4
q-23 15 -56 15q-46 0 -77 -38t-31 -112t39 -120t110 -46q77 0 139 57t100.5 152.5t58.5 213.5t20 245q0 42 -4 100q-75 -241 -291 -241q-68 0 -130.5 26.5t-115 77.5t-84 137.5t-31.5 196.5q0 207 115 339t299 132q110 0 200 -58.5t146.5 -157t86.5 -221.5t30 -257
q0 -145 -38.5 -285t-107 -250t-171 -177.5t-220.5 -67.5z" />
    <glyph glyph-name="colon" unicode=":" horiz-adv-x="421" 
d="M358 766q0 -62 -43 -105t-104 -43t-104.5 43t-43.5 105q0 63 43 106t105 43t104.5 -43t42.5 -106zM358 133q0 -61 -43 -104t-104 -43q-62 0 -105 43t-43 104q0 63 43 106.5t105 43.5t104.5 -43.5t42.5 -106.5z" />
    <glyph glyph-name="semicolon" unicode=";" horiz-adv-x="421" 
d="M358 766q0 -62 -43 -105t-104 -43t-104.5 43t-43.5 105q0 63 43 106t105 43t104.5 -43t42.5 -106zM268 55q-12 -21 -39 -34t-59 -13q-52 0 -86.5 35t-34.5 90q0 61 40 100t104 39q75 0 120 -55t45 -141q0 -138 -88.5 -218.5t-236.5 -82.5v26q122 15 184.5 85.5
t50.5 168.5z" />
    <glyph glyph-name="less" unicode="&#x3c;" horiz-adv-x="555" 
d="M33 637v37l467 272v-63l-396 -228l396 -227v-63z" />
    <glyph glyph-name="equal" unicode="=" horiz-adv-x="827" 
d="M92 741v58h643v-58h-643zM92 524v58h643v-58h-643z" />
    <glyph glyph-name="greater" unicode="&#x3e;" horiz-adv-x="555" 
d="M520 674v-37l-465 -272v63l396 227l-396 228v63z" />
    <glyph glyph-name="question" unicode="?" horiz-adv-x="862" 
d="M410 1413q-92 0 -144.5 -61t-52.5 -158q0 -75 35.5 -121.5t87.5 -46.5q42 0 67 25l3 -2q-20 -65 -64 -100.5t-104 -35.5q-83 0 -142 61.5t-59 160.5q0 138 105.5 228.5t271.5 90.5q184 0 296.5 -111t112.5 -282q0 -125 -57.5 -229.5t-146.5 -169.5t-199 -97v-137h-41v360
q252 74 252 355q0 115 -58.5 192.5t-162.5 77.5zM395 283q63 0 106.5 -43.5t43.5 -106.5q0 -62 -43.5 -104.5t-106.5 -42.5q-61 0 -103 42.5t-42 104.5q0 63 42 106.5t103 43.5z" />
    <glyph glyph-name="at" unicode="@" horiz-adv-x="1378" 
d="M1075 936l-117 -606q-34 -174 78 -174q83 0 147 138.5t64 377.5q0 300 -143.5 473.5t-366.5 173.5q-163 0 -294 -109.5t-205 -304t-74 -434.5q0 -173 44.5 -315t122.5 -235.5t182.5 -144t225.5 -50.5q151 0 264 46t216 156l6 -10q-185 -254 -504 -254q-145 0 -269.5 55
t-217 156t-145 255.5t-52.5 342.5q0 190 55.5 357.5t150 285t223 185t271.5 67.5q123 0 232 -47t192 -133.5t131.5 -220t48.5 -295.5q0 -118 -20 -217t-53 -165.5t-76.5 -113t-90.5 -67.5t-95 -21q-88 0 -141.5 50.5t-63.5 146.5q-72 -197 -217 -197q-98 0 -163 85t-65 224
q0 144 48 269t132.5 200.5t184.5 75.5q74 0 121.5 -48.5t60.5 -119.5q28 53 78.5 101t93.5 61zM811 461l35 178q21 126 0.5 186t-76.5 60q-60 0 -114 -75.5t-84.5 -190.5t-30.5 -234q0 -213 112 -213q109 0 158 289z" />
    <glyph glyph-name="A" unicode="A" horiz-adv-x="1107" 
d="M469 1030l-162 -508h324zM311 4v-4h-313v4q58 32 95 93t73 173l391 1184h6l402 -1225q36 -109 61 -150.5t82 -74.5v-4h-442v4q79 37 79 113q0 45 -22 119l-74 231h-360l-60 -186q-20 -65 -20 -113q0 -120 102 -164z" />
    <glyph glyph-name="B" unicode="B" horiz-adv-x="1030" 
d="M479 0h-450v4q66 32 87 82t21 156v950q0 106 -21 156t-87 82v4h417q102 0 185.5 -21.5t147.5 -64.5t99 -114t35 -165q0 -143 -99.5 -229t-248.5 -99q75 -4 147.5 -28t134.5 -67t100 -112.5t38 -154.5q0 -101 -36.5 -175t-105.5 -118t-159 -65t-205 -21zM369 756h43
q131 0 203.5 80t72.5 231q0 153 -73 236t-203 83h-43v-630zM369 47h71q146 0 228 84.5t82 247.5q0 160 -82.5 245t-227.5 85h-71v-662z" />
    <glyph glyph-name="C" unicode="C" horiz-adv-x="952" 
d="M874 1454l17 -496h-6q-48 193 -128.5 321t-174.5 128q-69 0 -122 -50t-85.5 -140.5t-49 -210.5t-16.5 -265q0 -295 83 -463.5t220 -168.5q97 0 169.5 71t115.5 238l14 -4q-26 -199 -129 -316.5t-256 -117.5q-211 0 -344 200.5t-133 528.5q0 212 68.5 383.5t185.5 266.5
t258 95q53 0 120.5 -29.5t94.5 -29.5q62 0 98 59z" />
    <glyph glyph-name="D" unicode="D" horiz-adv-x="1103" 
d="M29 0v4q66 32 87 82t21 156v950q0 106 -21 156t-87 82v4h366q111 0 209.5 -28t181.5 -85.5t142.5 -140t93 -197.5t33.5 -252q0 -181 -52 -323.5t-141 -230t-200 -132.5t-236 -45h-397zM369 49h43q88 0 157.5 38.5t122.5 118.5t81 213t28 312q0 318 -109.5 485.5
t-300.5 167.5h-22v-1335z" />
    <glyph glyph-name="E" unicode="E" horiz-adv-x="950" 
d="M29 1434h684q79 0 108 16l49 -365h-4q-55 107 -107.5 168.5t-133.5 97t-195 35.5h-61v-630h28q125 0 181 43.5t108 185.5h4v-475h-4q-27 71 -50.5 111t-59.5 61t-72.5 26t-106.5 5h-28v-666h73q169 0 271.5 80t183.5 258h4l-45 -385h-827v4q66 32 87 82t21 156v950
q0 106 -21 156t-87 82v4z" />
    <glyph glyph-name="F" unicode="F" horiz-adv-x="888" 
d="M369 694v-458q0 -104 25.5 -149.5t115.5 -82.5v-4h-481v4q66 32 87 82t21 156v950q0 106 -21 156t-87 82v4h678q80 0 106 16l49 -397h-4q-40 88 -78 146t-89 102.5t-116 64.5t-151 20h-55v-649h28q125 0 181 44t108 186h4v-475h-4q-27 71 -50.5 111t-59.5 60.5
t-72.5 25.5t-106.5 5h-28z" />
    <glyph glyph-name="G" unicode="G" horiz-adv-x="1050" 
d="M580 1407q-131 0 -203 -190.5t-72 -518.5q0 -148 14.5 -265t43.5 -205t78 -135.5t114 -47.5q81 0 134.5 76.5t53.5 208.5v100q0 102 -22.5 153t-85.5 87v4h395v-4q-45 -32 -58.5 -81t-13.5 -157v-452h-4l-157 210q-28 -96 -107 -153t-186 -57q-129 0 -233 91.5
t-163 255.5t-59 369q0 167 42.5 310.5t113 240.5t163.5 152t193 55q57 0 133.5 -29.5t102.5 -29.5q64 0 100 59l18 -496h-6q-51 192 -138.5 320.5t-190.5 128.5z" />
    <glyph glyph-name="H" unicode="H" horiz-adv-x="1157" 
d="M137 242v950q0 106 -21 156t-87 82v4h448v-4q-66 -32 -87 -82t-21 -156v-432h422v432q0 106 -21.5 155.5t-89.5 82.5v4h450v-4q-68 -32 -89 -82t-21 -156v-950q0 -106 21 -156t89 -82v-4h-450v4q68 33 89.5 82.5t21.5 155.5v463h-422v-463q0 -106 21 -156t87 -82v-4h-448
v4q66 32 87 82t21 156z" />
    <glyph glyph-name="I" unicode="I" horiz-adv-x="505" 
d="M369 242q0 -106 21 -156t87 -82v-4h-448v4q66 32 87 82t21 156v950q0 106 -21 156t-87 82v4h448v-4q-66 -32 -87 -82t-21 -156v-950z" />
    <glyph glyph-name="J" unicode="J" horiz-adv-x="907" 
d="M559 330v862q0 106 -21 156t-87 82v4h448v-4q-66 -32 -87 -82t-21 -156v-797q0 -103 -33 -183.5t-90.5 -130.5t-131.5 -75.5t-159 -25.5q-157 0 -260 76t-103 210q0 93 58.5 147t142.5 54q46 0 89 -19.5t65 -54.5q-55 -5 -97.5 -53t-42.5 -127q0 -85 39 -140t115 -55
q91 0 133.5 83.5t42.5 228.5z" />
    <glyph glyph-name="K" unicode="K" horiz-adv-x="1118" 
d="M477 0h-448v4q66 32 87 82t21 156v950q0 106 -21 156t-87 82v4h448v-4q-66 -32 -87 -82t-21 -156v-547l389 586q33 51 33 88q0 70 -86 111v4h397v-4q-102 -30 -169.5 -82t-121.5 -134l-225 -342l356 -643q55 -97 97.5 -148t99.5 -77v-4h-445v4q47 33 47 84t-34 115
l-267 471l-71 -109v-323q0 -106 21 -156t87 -82v-4z" />
    <glyph glyph-name="L" unicode="L" horiz-adv-x="913" 
d="M29 1434h448v-4q-66 -32 -87 -82t-21 -156v-1145h90q83 0 143 19.5t110.5 68.5t90.5 118t88 181h4l-41 -434h-825v4q66 32 87 82t21 156v950q0 106 -21 156t-87 82v4z" />
    <glyph glyph-name="M" unicode="M" horiz-adv-x="1304" 
d="M197 291q0 -124 36 -188.5t113 -98.5v-4h-352v4q73 34 108 96t35 174v918q0 106 -21 156t-87 82v4h368l271 -973l254 973h356v-4q-68 -33 -90.5 -83t-22.5 -155v-946q0 -101 29 -154.5t100 -87.5v-4h-479v4q70 34 98.5 88t28.5 154v1052l-354 -1321h-8l-383 1321v-1007z
" />
    <glyph glyph-name="N" unicode="N" horiz-adv-x="1056" 
d="M1069 1430q-72 -34 -107.5 -97t-35.5 -174v-1173h-49l-680 1298v-993q0 -124 36 -188.5t113 -98.5v-4h-352v4q73 34 108 96t35 174v918q0 106 -21 156t-87 82v4h358l479 -930v639q0 124 -36 188.5t-113 98.5v4h352v-4z" />
    <glyph glyph-name="O" unicode="O" horiz-adv-x="1105" 
d="M1057 717q0 -158 -39.5 -296t-107.5 -234.5t-160.5 -151.5t-196.5 -55t-197 55t-160.5 151.5t-107 234.5t-39.5 296t39.5 296t107 234.5t160.5 151.5t197 55t196.5 -55t160.5 -151.5t107.5 -234.5t39.5 -296zM791 717q0 692 -238 692t-238 -692t238 -692t238 692z" />
    <glyph glyph-name="P" unicode="P" horiz-adv-x="1015" 
d="M492 588h-125v-352q0 -103 26.5 -149t116.5 -83v-4h-483v4q68 32 89 82t21 156v950q0 106 -21 156t-89 82v4h465q143 0 253 -47t176 -144t66 -233q0 -134 -65.5 -231t-176 -144t-253.5 -47zM367 637h71q153 0 230 101.5t77 271.5q0 171 -77 272.5t-230 101.5h-71v-747z
" />
    <glyph glyph-name="Q" unicode="Q" horiz-adv-x="1105" 
d="M922 -174q-71 0 -119 49t-90 137q-78 -35 -160 -35q-139 0 -254.5 94t-182.5 263.5t-67 380.5q0 158 39.5 296t107 234.5t160.5 151.5t197 55t196.5 -55t160.5 -151.5t107.5 -234.5t39.5 -296q0 -200 -62 -363.5t-168 -261.5q65 -82 142 -82q41 0 70 23.5t36 70.5h6
q28 -119 -16.5 -197.5t-142.5 -78.5zM315 715q0 -370 68 -543q-10 79 34 133.5t118 54.5q67 0 115 -36t89 -99q52 170 52 490q0 692 -238 692t-238 -692zM553 23q74 0 125 67q-17 41 -27.5 63t-28 53.5t-33 47.5t-37.5 28.5t-46 12.5q-55 0 -86 -50.5t-8 -131.5
q55 -90 141 -90z" />
    <glyph glyph-name="R" unicode="R" horiz-adv-x="1069" 
d="M369 1382v-661h53q147 0 231 80.5t84 255.5q0 161 -82 243t-233 82h-53zM29 1434h448q109 0 198 -20.5t160 -64t110.5 -118.5t39.5 -176q0 -89 -37.5 -159.5t-101 -112.5t-139 -65t-160.5 -26q147 -10 235 -78.5t111 -189.5l33 -168q20 -109 60.5 -162t131.5 -90v-4h-342
q-58 71 -84 221l-30 201q-21 121 -76 185.5t-170 64.5h-47v-430q0 -106 21 -156t87 -82v-4h-448v4q66 32 87 82t21 156v950q0 106 -21 156t-87 82v4z" />
    <glyph glyph-name="S" unicode="S" horiz-adv-x="892" 
d="M455 1409q-90 0 -150.5 -70.5t-60.5 -173.5q0 -48 15.5 -90t36 -71t60 -62t69 -52t81.5 -50l1 -1h1l1 -1h1l1 -1l1 -1h1l1 -1h1l1 -1l1 -1h1q138 -83 196 -136q136 -125 136 -310q0 -125 -59 -219.5t-150.5 -141t-198.5 -46.5q-75 0 -162 29.5t-112 29.5
q-30 0 -51.5 -13.5t-48.5 -45.5l-27 501h4q71 -209 177 -332.5t216 -123.5q102 0 164 68.5t62 187.5q0 30 -6 58.5t-13.5 51t-25 47.5t-29 40.5t-39 38.5t-40 33.5t-47 33t-47 30t-50.5 31.5q-42 25 -66.5 41t-62 43.5t-60 49.5t-48.5 54.5t-40.5 65t-24.5 74.5t-10 88
q0 175 115 284t281 109q68 0 141 -25.5t96 -25.5q53 0 86 51l21 -448h-4q-18 53 -31 87.5t-33 81t-38 77t-44 63t-53 51t-62 31t-75 12.5z" />
    <glyph glyph-name="T" unicode="T" horiz-adv-x="1122" 
d="M168 1434h786q80 0 109 16l31 -459h-4q-27 68 -45.5 111.5t-42.5 90.5t-45 75t-48.5 54.5t-58 40.5t-68.5 22t-84 8h-22v-1166q0 -100 26 -144.5t101 -78.5v-4h-481v4q73 34 98.5 78.5t25.5 144.5v1166h-20q-41 0 -75 -5.5t-63.5 -18.5t-52.5 -28.5t-46 -43.5t-40.5 -55
t-38 -70t-37.5 -82.5t-40 -98.5h-4l30 459q29 -16 109 -16z" />
    <glyph glyph-name="U" unicode="U" horiz-adv-x="1048" 
d="M934 1159v-739q0 -193 -105 -316.5t-294 -123.5q-204 0 -312 116.5t-108 329.5v766q0 106 -21 155.5t-88 82.5v4h449v-4q-67 -33 -88 -82.5t-21 -155.5v-754q0 -354 260 -354q126 0 197 93t71 249v717q0 124 -36 188.5t-113 98.5v4h352v-4q-73 -33 -108 -96t-35 -175z
" />
    <glyph glyph-name="V" unicode="V" horiz-adv-x="1107" 
d="M874 1149q21 72 21 115q0 122 -102 166v4h315v-4q-58 -32 -94.5 -94.5t-73.5 -176.5l-377 -1179h-6l-414 1224q-39 112 -63 152.5t-82 73.5v4h444v-4q-80 -38 -80 -111q0 -48 25 -121l258 -799z" />
    <glyph glyph-name="W" unicode="W" horiz-adv-x="1484" 
d="M981 -20l-233 921l-244 -921h-8l-363 1224q-30 107 -54.5 150.5t-80.5 75.5v4h430v-4q-42 -20 -60 -46t-18 -63q0 -35 25 -123l207 -731l139 539l-51 198q-26 102 -52 147.5t-83 78.5v4h421v-4q-43 -20 -61 -46.5t-18 -66.5q0 -25 20 -119l168 -743l190 704q17 63 17 107
q0 120 -105 164v4h318v-4q-60 -31 -99 -95t-71 -174l-326 -1181h-8z" />
    <glyph glyph-name="X" unicode="X" horiz-adv-x="1099" 
d="M324 4v-4h-326v4q145 65 229 232l230 460l-248 508q-44 92 -81.5 144.5t-88.5 81.5v4h416v-4q-43 -35 -43 -89q0 -48 34 -118l166 -342l148 305q35 75 35 127q0 71 -66 117v4h318v-4q-73 -33 -126.5 -88.5t-95.5 -143.5l-186 -373l291 -596q49 -97 85.5 -148t86.5 -77v-4
h-418v4q45 34 45 88q0 39 -35 119l-209 428l-190 -391q-35 -72 -35 -127q0 -70 64 -117z" />
    <glyph glyph-name="Y" unicode="Y" horiz-adv-x="1075" 
d="M618 678l230 512q29 63 29 108q0 89 -97 132v4h297v-4q-54 -36 -85 -79.5t-66 -121.5l-281 -631v-371q0 -100 25 -144.5t98 -78.5v-4h-469v4q73 34 98 78.5t25 144.5v371l-281 631q-36 80 -63.5 121.5t-79.5 79.5v4h432v-4q-35 -22 -52.5 -45.5t-17.5 -57.5
q0 -39 27 -104z" />
    <glyph glyph-name="Z" unicode="Z" horiz-adv-x="989" 
d="M893 0h-868v4l637 1385h-181q-68 0 -123 -18t-94 -45.5t-76.5 -77t-62.5 -95t-59 -117.5h-5l41 414q29 -16 109 -16h719v-4l-633 -1385h186q71 0 125.5 13.5t97.5 40t81.5 75.5t71 108.5t73.5 151.5h4z" />
    <glyph glyph-name="bracketleft" unicode="[" horiz-adv-x="550" 
d="M135 -252v1786h379v-8l-180 -66v-1636l180 -68v-8h-379z" />
    <glyph glyph-name="backslash" unicode="\" horiz-adv-x="686" 
d="M104 1534l582 -1786h-61l-584 1786h63z" />
    <glyph glyph-name="bracketright" unicode="]" horiz-adv-x="550" 
d="M416 1534v-1786h-379v8l180 68v1636l-180 66v8h379z" />
    <glyph glyph-name="asciicircum" unicode="^" horiz-adv-x="698" 
d="M346 1454h8l271 -610h-78l-197 452l-198 -452h-78z" />
    <glyph glyph-name="underscore" unicode="_" horiz-adv-x="501" 
d="M61 -209v80h381v-80h-381z" />
    <glyph glyph-name="grave" unicode="`" 
d="M563 1489q0 -248 66 -377h-8q-112 79 -176.5 168t-90.5 209h209z" />
    <glyph glyph-name="a" unicode="a" horiz-adv-x="833" 
d="M854 92v-4q-20 -46 -63 -75t-107 -29q-74 0 -119.5 44.5t-54.5 125.5l-2 39q-15 -94 -78.5 -150.5t-155.5 -56.5q-98 0 -162.5 62t-64.5 173q0 59 22.5 108t54.5 81t86 60t98.5 44t109.5 35l88 24v252q0 72 -33 115t-92 43q-53 0 -84 -38t-31 -99q0 -59 22.5 -91
t65.5 -32q15 0 27 6q-12 -45 -49.5 -70.5t-85.5 -25.5q-68 0 -110 40.5t-42 114.5q0 105 88.5 169.5t216.5 64.5q162 0 245 -70t83 -227q0 -107 -2 -291.5t-2 -249.5q0 -110 80 -110q33 0 51 18zM506 535l-55 -19q-92 -31 -142.5 -87.5t-50.5 -160.5q0 -74 29.5 -116.5
t83.5 -42.5q59 0 95.5 52t37.5 154z" />
    <glyph glyph-name="b" unicode="b" horiz-adv-x="935" 
d="M547 -20q-92 0 -161 56t-97 169q-19 -80 -82 -143t-123 -80q22 133 22 454v873q0 102 -19.5 145t-76.5 76v4h314v-754q23 119 89 180.5t165 61.5q135 0 227 -140t92 -380q0 -232 -101 -377t-249 -145zM662 502q0 200 -42 316t-122 116q-69 0 -121.5 -85t-52.5 -235v-239
q0 -158 51 -244t119 -86q81 0 124.5 124.5t43.5 332.5z" />
    <glyph glyph-name="c" unicode="c" horiz-adv-x="753" 
d="M457 983q-84 0 -139.5 -118t-55.5 -318q0 -208 56 -326.5t171 -118.5q170 0 216 228l14 -2q-15 -168 -97 -258t-219 -90q-155 0 -260.5 137.5t-105.5 371.5q0 114 35 215t92.5 169.5t132.5 108.5t154 40q119 0 191.5 -59t72.5 -158q0 -71 -43 -113.5t-107 -42.5
q-48 0 -83 23.5t-44 64.5q8 -2 29 -2q41 0 66.5 34.5t25.5 88.5q0 125 -102 125z" />
    <glyph glyph-name="d" unicode="d" horiz-adv-x="942" 
d="M438 68q69 0 121.5 85.5t52.5 235.5v219q0 156 -51.5 244t-120.5 88q-80 0 -123 -118.5t-43 -321.5q0 -201 42 -316.5t122 -115.5zM612 791v518q0 101 -20 144.5t-76 76.5v4h313v-1311q0 -104 16 -146.5t70 -72.5v-4h-303v221q-23 -118 -89 -179.5t-165 -61.5
q-135 0 -227 139t-92 379q0 234 96.5 379t231.5 145q200 0 245 -231z" />
    <glyph glyph-name="e" unicode="e" horiz-adv-x="784" 
d="M418 1022q164 0 247 -129.5t83 -349.5h-484q0 -206 60 -326.5t178 -120.5q78 0 137 58.5t90 179.5l14 -2q-22 -169 -103.5 -260.5t-221.5 -91.5q-160 0 -270.5 140t-110.5 378q0 228 112.5 376t268.5 148zM266 590h273q0 60 -1.5 103t-5.5 92t-12 81.5t-21 61t-33.5 42
t-47.5 13.5q-65 0 -106 -111.5t-46 -281.5z" />
    <glyph glyph-name="f" unicode="f" horiz-adv-x="501" 
d="M115 199v749h-115v15l115 45v139q0 190 99 292.5t253 102.5q100 0 166.5 -45t66.5 -133q0 -66 -38 -106.5t-101 -40.5q-36 0 -66.5 16t-45.5 43q38 7 64 38t26 91q0 104 -80 104q-65 0 -95 -70.5t-30 -187.5v-250h166l-11 -53h-155v-751q0 -52 4.5 -82.5t20.5 -51.5
t30 -30.5t51 -28.5v-4h-409v4q55 30 69.5 64.5t14.5 130.5z" />
    <glyph glyph-name="g" unicode="g" horiz-adv-x="870" 
d="M426 987q-62 0 -92.5 -82t-30.5 -217t30.5 -216t92.5 -81t92.5 81t30.5 216t-30.5 217t-92.5 82zM868 -94q0 -117 -64.5 -205.5t-169 -133t-231.5 -44.5q-72 0 -139 14t-125.5 43t-93.5 78.5t-35 114.5q0 85 65 141t171 70q-79 12 -135 63.5t-56 138.5q0 76 54.5 133.5
t128.5 83.5q-75 40 -115.5 116t-40.5 169q0 144 92.5 239t251.5 95q104 0 190 -47q12 89 57 142.5t107 53.5q61 0 92 -34t31 -82q0 -40 -28 -73t-70 -54l-2 4q6 18 6 37q0 32 -19 52.5t-53 20.5q-68 0 -94 -86q129 -91 129 -268q0 -143 -92.5 -237.5t-253.5 -94.5
q-88 0 -162 33q-86 -38 -86 -106q0 -46 33 -69.5t86 -23.5h256q152 0 233.5 -74t81.5 -210zM428 -440q121 0 202 66t81 173q0 96 -53.5 138.5t-172.5 42.5h-127q-87 0 -137.5 -49.5t-50.5 -143.5q0 -106 71 -166.5t187 -60.5z" />
    <glyph glyph-name="h" unicode="h" horiz-adv-x="919" 
d="M12 1534h316v-739q29 108 96 167.5t160 59.5q107 0 168 -68.5t61 -197.5v-549q0 -100 15.5 -136t70.5 -67v-4h-389v4q56 31 71 66.5t15 136.5v538q0 152 -115 152q-65 0 -109 -64t-44 -196v-430q0 -101 15 -136.5t69 -66.5v-4h-387v4q54 31 69 66.5t15 136.5v1102
q0 102 -20 145t-77 76v4z" />
    <glyph glyph-name="i" unicode="i" horiz-adv-x="446" 
d="M84 1319q0 57 41 97t98 40q58 0 98.5 -40t40.5 -97t-40.5 -98t-98.5 -41q-57 0 -98 41t-41 98zM334 1001v-794q0 -100 15.5 -136t70.5 -67v-4h-389v4q39 21 55.5 42.5t22.5 55.5t6 105v569q0 103 -19.5 146.5t-75.5 74.5v4h314z" />
    <glyph glyph-name="j" unicode="j" horiz-adv-x="436" 
d="M84 1319q0 57 41 97t98 40q58 0 98.5 -40t40.5 -97t-40.5 -98t-98.5 -41q-57 0 -98 41t-41 98zM16 -477q-112 0 -182 47.5t-70 140.5q0 63 42 105.5t104 42.5q35 0 65.5 -17t44.5 -43q-38 -10 -66 -39.5t-28 -87.5q0 -51 25 -82.5t67 -31.5q31 0 51.5 19t29.5 56t12.5 74
t3.5 88v981q0 103 -19.5 146.5t-75.5 74.5v4h314v-1107q0 -184 -87 -277.5t-231 -93.5z" />
    <glyph glyph-name="k" unicode="k" horiz-adv-x="915" 
d="M328 573h53q37 0 64.5 13.5t54.5 52.5l125 186q28 35 28 76q0 66 -65 96v4h330v-4q-146 -49 -228 -170l-131 -196l209 -428q66 -138 176 -199v-4h-334q-4 51 -49 147l-162 338q-12 26 -23 35.5t-30 9.5h-18v-323q0 -101 15 -136.5t69 -66.5v-4h-387v4q54 31 69 66.5
t15 136.5v1102q0 102 -20 145t-77 76v4h316v-961z" />
    <glyph glyph-name="l" unicode="l" horiz-adv-x="440" 
d="M328 1534v-1327q0 -101 15 -136.5t69 -66.5v-4h-387v4q54 31 69 66.5t15 136.5v1102q0 102 -20 145t-77 76v4h316z" />
    <glyph glyph-name="m" unicode="m" horiz-adv-x="1376" 
d="M801 799q29 107 94.5 165t153.5 58q108 0 165.5 -68t57.5 -198v-549q0 -71 6 -105t22.5 -55.5t55.5 -42.5v-4h-387v4q53 31 68.5 67t15.5 136v538q0 72 -22.5 112t-84.5 40q-61 0 -102 -64t-41 -196v-430q0 -101 15 -136.5t69 -66.5v-4h-387v4q54 31 69 66.5t15 136.5
v538q0 72 -22 112t-83 40q-62 0 -103.5 -64t-41.5 -196v-430q0 -100 15.5 -136t70.5 -67v-4h-389v4q39 21 55.5 42.5t22.5 55.5t6 105v569q0 103 -19.5 146.5t-75.5 74.5v4h314v-206q29 108 93.5 167.5t152.5 59.5q96 0 153.5 -57.5t67.5 -165.5z" />
    <glyph glyph-name="n" unicode="n" horiz-adv-x="927" 
d="M20 1001h314v-206q29 109 96.5 168t161.5 59q107 0 168 -68.5t61 -197.5v-549q0 -101 15 -136.5t71 -66.5v-4h-389v4q54 31 69 66.5t15 136.5v538q0 152 -115 152q-65 0 -109 -64t-44 -196v-430q0 -100 15.5 -136t70.5 -67v-4h-389v4q39 21 55.5 42.5t22.5 55.5t6 105
v569q0 103 -19.5 146.5t-75.5 74.5v4z" />
    <glyph glyph-name="o" unicode="o" horiz-adv-x="856" 
d="M428 -20q-168 0 -279.5 147.5t-111.5 374.5q0 226 111.5 373t279.5 147t278.5 -147t110.5 -373q0 -228 -110.5 -375t-278.5 -147zM428 18q156 0 156 484q0 481 -156 481q-158 0 -158 -481q0 -224 38 -354t120 -130z" />
    <glyph glyph-name="p" unicode="p" horiz-adv-x="942" 
d="M502 934q-69 0 -120.5 -85t-51.5 -235v-219q0 -159 50.5 -246.5t119.5 -87.5q82 0 126 118.5t44 322.5q0 200 -43.5 316t-124.5 116zM330 211v-463q0 -99 20.5 -136.5t85.5 -64.5v-4h-409v4q54 29 69 64.5t15 136.5v1028q0 102 -20 145.5t-77 75.5v4h316v-221
q21 119 87 180.5t165 61.5q135 0 229 -140t94 -380q0 -232 -97.5 -377t-232.5 -145q-202 0 -245 231z" />
    <glyph glyph-name="q" unicode="q" horiz-adv-x="927" 
d="M829 563v-817q0 -100 15 -135t71 -64v-4h-409v4q66 27 86 64t20 137v473q-23 -118 -89 -179.5t-165 -61.5q-135 0 -227 139t-92 379q0 232 101 378t247 146q94 0 163 -56t97 -169q19 79 74.5 135t124.5 86h4q-21 -139 -21 -455zM612 389v240q0 155 -51 241t-119 86
q-81 0 -124.5 -124.5t-43.5 -331.5q0 -201 42 -316.5t122 -115.5q69 0 121.5 85.5t52.5 235.5z" />
    <glyph glyph-name="r" unicode="r" horiz-adv-x="743" 
d="M518 707q22 5 39.5 27t17.5 54q0 40 -23 63t-67 23q-61 0 -106 -84.5t-45 -216.5v-374q0 -65 11.5 -101.5t30.5 -53.5t64 -40v-4h-409v4q39 21 55.5 42.5t22.5 55.5t6 105v569q0 103 -19.5 146.5t-75.5 74.5v4h314v-258q27 120 85 198.5t140 78.5q75 0 122.5 -46.5
t47.5 -121.5q0 -73 -40.5 -120.5t-102.5 -47.5q-53 0 -68 23z" />
    <glyph glyph-name="s" unicode="s" horiz-adv-x="716" 
d="M340 981q-58 0 -92.5 -39.5t-34.5 -101.5q0 -69 38 -114t146 -95q139 -65 205 -144t66 -194q0 -145 -90 -229t-216 -84q-62 0 -126.5 23.5t-83.5 23.5q-23 0 -45.5 -13t-36.5 -34l-19 391h6q54 -161 135.5 -257t167.5 -96q66 0 105 46t39 118q0 81 -41.5 124.5
t-145.5 96.5q-139 67 -199.5 137.5t-60.5 186.5q0 131 83 213t196 82q56 0 116.5 -24.5t82.5 -24.5t39.5 11.5t41.5 37.5v-340h-6q-48 137 -118 218t-152 81z" />
    <glyph glyph-name="t" unicode="t" horiz-adv-x="585" 
d="M541 324h18q-16 -344 -240 -344q-221 0 -221 292v676h-94v17q114 30 190.5 131.5t104.5 255.5h18v-351h218l-11 -53h-207v-676q0 -92 21.5 -132t69.5 -40q112 0 133 224z" />
    <glyph glyph-name="u" unicode="u" horiz-adv-x="917" 
d="M582 365v411q0 103 -19.5 146.5t-77.5 74.5v4h316v-778q0 -103 16 -146t68 -73v-4h-303v205q-29 -109 -93 -167t-157 -58q-105 0 -166.5 69t-61.5 197v530q0 103 -19 146.5t-75 74.5v4h314v-743q0 -154 110 -154q64 0 106 64.5t42 196.5z" />
    <glyph glyph-name="v" unicode="v" horiz-adv-x="815" 
d="M489 322l156 444q19 59 19 100q0 96 -93 131v4h265v-4q-45 -36 -68.5 -77t-60.5 -148l-289 -792h-4l-310 800q-41 107 -61 142.5t-63 74.5v4h393v-4q-72 -34 -72 -100q0 -40 27 -113z" />
    <glyph glyph-name="w" unicode="w" horiz-adv-x="1132" 
d="M770 -20l-188 630l-205 -630h-4l-269 800q-34 101 -56 138.5t-68 78.5v4h374v-4q-61 -31 -61 -96q0 -40 24 -117l132 -426l104 349l-23 73q-35 102 -56 139t-66 78v4h370v-4q-65 -35 -65 -104q0 -41 20 -109l115 -413l117 395q16 56 16 98q0 97 -90 133v4h262v-4
q-47 -38 -71.5 -79.5t-57.5 -145.5l-250 -792h-4z" />
    <glyph glyph-name="x" unicode="x" horiz-adv-x="845" 
d="M254 4v-4h-248v4q61 40 105 94.5t96 147.5l129 233l-133 277q-43 96 -79 146t-95 95v4h356v-4q-25 -25 -25 -57q0 -8 1 -16.5t3.5 -18t4.5 -17t6.5 -18.5t7 -17.5t8.5 -19.5t8.5 -18l9.5 -19l9 -18l65 -139l68 137q43 88 43 139q0 49 -41 82v4h248v-4q-66 -42 -112 -96.5
t-89 -146.5l-88 -174l160 -336q50 -103 84 -151.5t90 -88.5v-4h-354v4q22 19 22 57q0 46 -55 162l-97 203l-106 -203q-45 -81 -45 -131q0 -54 43 -88z" />
    <glyph glyph-name="y" unicode="y" horiz-adv-x="815" 
d="M346 -193l47 150l-289 823q-36 103 -57 139.5t-67 77.5v4h391v-4q-70 -36 -70 -100q0 -36 25 -113l166 -526l153 508q19 59 19 102q0 94 -93 129v4h265v-4q-48 -39 -73 -80.5t-56 -144.5l-314 -995q-19 -59 -37.5 -99t-45.5 -79t-65 -58.5t-87 -19.5q-66 0 -114 43
t-48 114q0 69 44 109.5t99 40.5q39 0 60 -18q-22 -10 -37 -33.5t-15 -55.5q0 -34 20 -54.5t50 -20.5q43 0 72 36.5t57 124.5z" />
    <glyph glyph-name="z" unicode="z" horiz-adv-x="780" 
d="M485 963h-102q-99 0 -171 -69.5t-151 -236.5h-4l27 359q58 -15 123 -15h524v-4l-457 -958h101q116 0 196 79.5t156 264.5h4l-39 -383h-663v4z" />
    <glyph glyph-name="braceleft" unicode="{" horiz-adv-x="614" 
d="M25 635v12q190 7 190 297q0 42 -13.5 135t-13.5 148q0 137 85.5 222t228.5 85q50 0 86 -8v-8q-96 0 -148.5 -75.5t-52.5 -209.5q0 -46 13.5 -151t13.5 -150q0 -61 -20 -111t-49.5 -81t-68 -53.5t-70.5 -32.5t-61 -13q29 -3 61 -13t70.5 -32.5t68 -53.5t49.5 -81t20 -111
q0 -45 -13.5 -150t-13.5 -151q0 -134 52.5 -209.5t148.5 -75.5v-8q-36 -8 -86 -8q-143 0 -228.5 85t-85.5 222q0 55 13.5 148t13.5 135q0 290 -190 297z" />
    <glyph glyph-name="bar" unicode="|" horiz-adv-x="391" 
d="M168 -252v1786h55v-1786h-55z" />
    <glyph glyph-name="braceright" unicode="}" horiz-adv-x="614" 
d="M590 647v-12q-191 -7 -191 -297q0 -42 13.5 -135t13.5 -148q0 -137 -85 -222t-228 -85q-50 0 -86 8v8q96 0 148 75t52 210q0 46 -13 151t-13 150q0 75 29 133t74 89.5t86 48t79 20.5q-38 4 -79 20.5t-86 48t-74 89.5t-29 133q0 45 13 150t13 151q0 135 -52 210t-148 75v8
q36 8 86 8q143 0 228 -85t85 -222q0 -55 -13.5 -148t-13.5 -135q0 -290 191 -297z" />
    <glyph glyph-name="asciitilde" unicode="~" horiz-adv-x="770" 
d="M66 502h-9q23 131 76.5 200.5t128.5 69.5q44 0 94 -25.5t98.5 -51t88.5 -25.5q109 0 162 114h8q-23 -131 -77 -200.5t-128 -69.5q-53 0 -143.5 50t-137.5 50q-109 0 -161 -112z" />
    <glyph glyph-name="uni00A0" unicode="&#xa0;" horiz-adv-x="292" 
 />
    <glyph glyph-name="exclamdown" unicode="&#xa1;" horiz-adv-x="477" 
d="M238 1143q61 0 104 -43t43 -105q0 -63 -42.5 -106t-104.5 -43t-105 43t-43 106q0 61 43 104.5t105 43.5zM391 -305h-305l147 997h11z" />
    <glyph glyph-name="cent" unicode="&#xa2;" horiz-adv-x="765" 
d="M256 543q0 -327 139 -412l45 846q-85 -25 -134.5 -138t-49.5 -296zM410 -233h-35l12 213q-149 8 -247.5 141t-98.5 346q0 118 33.5 220.5t89 173t128.5 113t152 48.5l11 199h37l-11 -199q110 -3 178 -59t68 -142q0 -61 -36 -97t-89 -36q-38 0 -68.5 20.5t-37.5 55.5
q8 -2 24 -2q36 0 58 28.5t22 75.5q0 55 -31.5 86t-83.5 31h-8l-47 -868q33 -11 62 -11q75 0 133 56.5t82 171.5l14 -4q-15 -161 -92 -251t-207 -97z" />
    <glyph glyph-name="sterling" unicode="&#xa3;" horiz-adv-x="1028" 
d="M743 -33q-40 0 -80 8.5t-65 16.5t-65.5 31.5t-52.5 31.5t-56 40.5t-49 35.5q-88 -149 -223 -149q-63 0 -102.5 34t-39.5 93q0 62 46 100.5t116 38.5q50 0 125 -21q8 49 8 123q0 142 -37 348h-151v39h143q-35 183 -35 279q0 197 119 317.5t324 120.5q140 0 221.5 -62
t81.5 -169q0 -79 -48.5 -125.5t-115.5 -46.5q-51 0 -91 21.5t-59 53.5q64 -3 103 37t39 125q0 62 -33.5 97.5t-93.5 35.5q-94 0 -142.5 -90t-48.5 -235v-359h281v-39h-281v-77q0 -259 -73 -428q166 -52 270 -52q98 0 152.5 43t54.5 125q0 48 -27 84q65 -22 103 -74.5
t38 -123.5q0 -107 -72 -167.5t-184 -60.5zM141 25q107 0 148 159q-60 29 -117 29q-53 0 -85 -27.5t-32 -76.5q0 -41 23.5 -62.5t62.5 -21.5z" />
    <glyph glyph-name="yen" unicode="&#xa5;" horiz-adv-x="1079" 
d="M772 4v-4h-473v4q73 36 98 79.5t25 143.5v303h-268v41h268v27l-45 102h-223v39h204l-217 488q-36 82 -63.5 123.5t-79.5 79.5v4h438v-4q-36 -23 -52.5 -46t-16.5 -57q0 -42 26 -104l230 -549l231 516q29 63 29 108q0 90 -99 132v4h295v-4q-53 -37 -83.5 -81t-67.5 -122
l-217 -488h204v-39h-223l-45 -102v-27h268v-41h-268v-303q0 -99 25.5 -143t99.5 -80z" />
    <glyph glyph-name="section" unicode="&#xa7;" horiz-adv-x="909" 
d="M272 539l310 -297q78 -81 114 -140q39 56 39 154q0 55 -21.5 100t-76.5 97l-309 297q-76 76 -115 139q-39 -59 -39 -156q0 -54 21.5 -97.5t76.5 -96.5zM430 -465q-133 0 -217 58t-84 157q0 67 39 105.5t98 38.5q34 0 63.5 -13t45.5 -31q-40 -14 -63 -43t-23 -88
q0 -70 38.5 -110.5t104.5 -40.5q77 0 123.5 61t46.5 160q0 94 -35 153.5t-121 141.5l-241 231q-82 77 -117 144t-35 155q0 86 44.5 164.5t103.5 128.5q-56 101 -56 201q0 144 98.5 245t235.5 101q133 0 217 -58t84 -157q0 -67 -39 -105t-98 -38q-33 0 -62.5 13t-45.5 32
q40 12 63 41.5t23 89.5q0 69 -39 109t-105 40q-77 0 -123.5 -61t-46.5 -160q0 -64 20 -115.5t49 -87t87 -90.5l242 -233q82 -77 116.5 -143.5t34.5 -153.5q0 -86 -44 -165t-103 -130q55 -99 55 -199q0 -145 -98.5 -246.5t-235.5 -101.5z" />
    <glyph glyph-name="dieresis" unicode="&#xa8;" 
d="M369 1174q-51 0 -87 36t-36 86t36.5 87.5t86.5 37.5q51 0 85.5 -37t34.5 -88q0 -50 -34 -86t-86 -36zM655 1174q-53 0 -88 36t-35 86q0 51 35 88t88 37q49 0 86 -37.5t37 -87.5q0 -49 -36.5 -85.5t-86.5 -36.5z" />
    <glyph glyph-name="copyright" unicode="&#xa9;" horiz-adv-x="1234" 
d="M1182 717q0 -209 -76 -379t-205 -264t-283 -94q-115 0 -219 55.5t-180 152t-121 234.5t-45 295t45 295t121 234.5t180 152t219 55.5q154 0 283 -94t205 -264t76 -379zM1143 717q0 197 -70 357t-190 249.5t-265 89.5q-109 0 -206 -53t-167 -144.5t-110.5 -221
t-40.5 -277.5q0 -197 69 -357t189 -250t266 -90q145 0 265 90t190 250t70 357zM672 1128q-75 0 -115.5 -108.5t-40.5 -280.5q0 -177 50 -278t134 -101q123 0 172 172h9q-15 -121 -82.5 -192.5t-167.5 -71.5q-136 0 -222.5 119t-86.5 313q0 201 97 330t240 129q35 0 79 -18.5
t59 -18.5q38 0 61 37l8 -305h-4q-34 122 -82 198t-108 76z" />
    <glyph glyph-name="ordfeminine" unicode="&#xaa;" horiz-adv-x="634" 
d="M612 864v-4q-37 -69 -118 -69q-51 0 -83 27.5t-38 76.5l-2 25q-10 -57 -56 -93t-106 -36q-65 0 -109.5 40t-44.5 113q0 39 15 70.5t35.5 51.5t56.5 38t64 27.5t71 21.5l70 18v142q0 52 -22.5 81t-59.5 29q-30 0 -49 -21.5t-19 -60.5q0 -36 13.5 -55.5t37.5 -19.5
q9 0 17 4q-9 -31 -36.5 -48.5t-62.5 -17.5q-45 0 -73.5 28t-28.5 73q0 67 59 108t148 41q239 0 239 -203q0 -56 -1 -158.5t-1 -150.5q0 -84 56 -84q19 0 28 6zM367 1143l-43 -13q-51 -19 -78 -54.5t-27 -100.5q0 -45 18 -73t48 -28q34 0 58 33t24 92v144zM88 639v43h471v-43
h-471z" />
    <glyph glyph-name="guillemotleft" unicode="&#xab;" horiz-adv-x="727" 
d="M31 498v4q110 69 207 167.5t161 211.5h13q-63 -243 -160 -381q97 -138 160 -381h-13q-64 113 -161 211.5t-207 167.5zM313 498v4q110 70 207.5 168t161.5 211h14q-62 -241 -161 -381q99 -140 161 -381h-14q-64 113 -161.5 211t-207.5 168z" />
    <glyph glyph-name="registered" unicode="&#xae;" horiz-adv-x="841" 
d="M782 1053q0 -172 -104.5 -286t-255.5 -114q-152 0 -257.5 114t-105.5 286q0 173 105.5 287t257.5 114q151 0 255.5 -114t104.5 -287zM750 1053q0 161 -94.5 265.5t-233.5 104.5q-140 0 -235 -104.5t-95 -265.5q0 -160 95.5 -264.5t234.5 -104.5t233.5 104.5t94.5 264.5z
M365 1262v-199h30q48 0 72.5 22t24.5 74q0 103 -97 103h-30zM229 1284h201q75 0 120.5 -30t45.5 -93q0 -56 -42 -84t-103 -28q100 -6 118 -86l13 -54q7 -35 19 -48.5t42 -24.5v-9h-135q-19 22 -29 72l-16 72q-14 71 -78 71h-20v-133q0 -33 6.5 -47t29.5 -26v-9h-172v9
q22 12 29.5 26.5t7.5 46.5v293q0 32 -7.5 47t-29.5 27v8z" />
    <glyph glyph-name="macron" unicode="&#xaf;" 
d="M752 1192h-473v74h473v-74z" />
    <glyph glyph-name="degree" unicode="&#xb0;" horiz-adv-x="462" 
d="M422 1262q0 -78 -56.5 -134.5t-134.5 -56.5t-134 56.5t-56 134.5t56 134t134 56t134.5 -56t56.5 -134zM369 1262q0 59 -40 99t-98 40t-96.5 -40t-38.5 -99t38.5 -99.5t96.5 -40.5t98 40.5t40 99.5z" />
    <glyph glyph-name="plusminus" unicode="&#xb1;" horiz-adv-x="817" 
d="M729 721h-293v-221h-57v221h-291v55h291v219h57v-219h293v-55zM88 344v53h641v-53h-641z" />
    <glyph glyph-name="twosuperior" unicode="&#xb2;" horiz-adv-x="552" 
d="M248 1411q-44 0 -70 -27.5t-26 -64.5q0 -40 19 -63t48 -23q25 0 37 12h4q-23 -69 -98 -69q-47 0 -78 31t-31 81q0 70 54.5 112t140.5 42q103 0 169 -42t66 -128q0 -45 -18 -84t-60.5 -78t-94.5 -74t-136 -84h143q77 2 108 14t60 60h9l-23 -186h-436v4q185 179 245 268.5
t60 185.5q0 48 -22.5 80.5t-69.5 32.5z" />
    <glyph glyph-name="threesuperior" unicode="&#xb3;" horiz-adv-x="548" 
d="M252 862q46 0 73 41.5t27 100.5q0 145 -129 145v18q60 3 84.5 37.5t24.5 100.5q0 46 -19 77t-57 31q-35 0 -55.5 -23.5t-20.5 -56.5q0 -29 12 -47t33 -18q13 0 19 4l4 -2q-21 -43 -84 -43q-40 0 -65 25t-25 63q0 58 51.5 92.5t130.5 34.5q97 0 157 -38t60 -106
q0 -60 -44.5 -94.5t-117.5 -40.5q82 -5 134.5 -46.5t52.5 -112.5q0 -83 -69 -128t-177 -45q-89 0 -150 37.5t-61 104.5q0 46 29 72t73 26q70 0 84 -43l-2 -2q-8 4 -20 4q-20 0 -31.5 -19.5t-11.5 -52.5q0 -43 24.5 -69.5t65.5 -26.5z" />
    <glyph glyph-name="acute" unicode="&#xb4;" 
d="M428 1489h209q-26 -120 -91 -209t-177 -168h-7q66 129 66 377z" />
    <glyph glyph-name="paragraph" unicode="&#xb6;" horiz-adv-x="843" 
d="M709 1217v-1352q0 -144 -74.5 -243t-200.5 -99q-110 0 -185 55t-75 160q0 63 41 103t92 40q40 0 69.5 -21t41.5 -59h-2q-20 17 -49 17t-48.5 -29.5t-19.5 -69.5q0 -72 39.5 -112.5t110.5 -40.5q96 0 153 86t57 217v1517h-79v-1130h-50v330q-86 0 -169 27.5t-152.5 78.5
t-112.5 134t-43 184t43 184t112.5 134t152.5 78.5t169 27.5h301v-4q-53 -29 -76 -50t-34.5 -58t-11.5 -105z" />
    <glyph glyph-name="periodcentered" unicode="&#xb7;" horiz-adv-x="438" 
d="M367 553q0 -61 -43 -104t-105 -43q-61 0 -104 43t-43 104q0 63 42.5 106t104.5 43t105 -43t43 -106z" />
    <glyph glyph-name="cedilla" unicode="&#xb8;" 
d="M305 -332l10 8q43 -71 107 -71q41 0 64.5 29t23.5 85q0 117 -119 123l82 176h37l-66 -143q91 2 151 -40t60 -122q0 -79 -51 -124.5t-125 -45.5q-66 0 -110.5 35t-63.5 90z" />
    <glyph glyph-name="onesuperior" unicode="&#xb9;" horiz-adv-x="405" 
d="M131 1348q0 34 -20 47.5t-86 25.5v13h254v-508q0 -35 19 -48.5t83 -25.5v-12h-352v12q64 12 83 25.5t19 48.5v422z" />
    <glyph glyph-name="ordmasculine" unicode="&#xba;" horiz-adv-x="657" 
d="M328 791q-122 0 -204.5 92.5t-82.5 238.5t82.5 239t204.5 93q124 0 206 -93t82 -239t-82 -238.5t-206 -92.5zM328 825q50 0 77 78t27 219q0 142 -26.5 219.5t-77.5 77.5q-49 0 -75 -77.5t-26 -219.5q0 -141 26 -219t75 -78zM78 639v43h497v-43h-497z" />
    <glyph glyph-name="guillemotright" unicode="&#xbb;" horiz-adv-x="727" 
d="M412 502v-4q-111 -70 -207.5 -168.5t-159.5 -210.5h-14q64 245 162 381q-98 136 -162 381h14q63 -112 159.5 -210.5t207.5 -168.5zM696 502v-4q-110 -69 -207 -167.5t-161 -211.5h-15q67 245 162 381q-95 136 -162 381h15q64 -113 161 -211.5t207 -167.5z" />
    <glyph glyph-name="onequarter" unicode="&#xbc;" horiz-adv-x="747" 
d="M313 1348q0 34 -20.5 47.5t-85.5 25.5v13h254v-508q0 -35 19 -48.5t83 -25.5v-12h-352v12q64 12 83 25.5t19 48.5v422zM45 733h657v-33h-657v33zM367 190v310l-211 -310h211zM367 104v54h-271v2l299 438h115v-408h47q36 0 47.5 9.5t32.5 46.5h6v-144h-6
q-15 27 -21.5 35.5t-20 14.5t-38.5 6h-47v-54q0 -40 9.5 -58.5t37.5 -37.5v-8h-238v8q29 19 38.5 37.5t9.5 58.5z" />
    <glyph glyph-name="onehalf" unicode="&#xbd;" horiz-adv-x="747" 
d="M313 1348q0 34 -20.5 47.5t-85.5 25.5v13h254v-508q0 -35 19 -48.5t83 -25.5v-12h-352v12q64 12 83 25.5t19 48.5v422zM45 733h657v-33h-657v33zM367 571q-44 0 -70.5 -27.5t-26.5 -64.5q0 -40 19.5 -63t48.5 -23q24 0 37 13h4q-24 -70 -98 -70q-47 0 -78 31.5t-31 81.5
q0 70 54.5 111.5t140.5 41.5q103 0 169 -42t66 -128q0 -87 -70 -154.5t-239 -164.5h143q77 2 108 13.5t60 59.5h8l-22 -186h-436v4q185 179 245 269t60 186q0 48 -22.5 80t-69.5 32z" />
    <glyph glyph-name="threequarters" unicode="&#xbe;" horiz-adv-x="747" 
d="M371 862q46 0 73 41.5t27 100.5q0 145 -129 145v18q60 3 84.5 37.5t24.5 100.5q0 46 -19 77t-57 31q-35 0 -55.5 -23.5t-20.5 -56.5q0 -29 12 -47t33 -18q14 0 18 4l5 -2q-21 -43 -84 -43q-40 0 -65 25t-25 63q0 58 51.5 92.5t130.5 34.5q97 0 157 -38t60 -106
q0 -60 -44.5 -94.5t-117.5 -40.5q82 -5 134 -46.5t52 -112.5q0 -83 -68.5 -128t-176.5 -45q-89 0 -150 37.5t-61 104.5q0 46 29 72t73 26q70 0 84 -43l-4 -2q-6 4 -18 4q-20 0 -32.5 -20t-12.5 -52q0 -43 25.5 -69.5t66.5 -26.5zM45 733h657v-33h-657v33zM367 190v310
l-211 -310h211zM367 104v54h-271v2l299 438h115v-408h47q36 0 47.5 9.5t32.5 46.5h6v-144h-6q-15 27 -21.5 35.5t-20 14.5t-38.5 6h-47v-54q0 -40 9.5 -58.5t37.5 -37.5v-8h-238v8q29 19 38.5 37.5t9.5 58.5z" />
    <glyph glyph-name="questiondown" unicode="&#xbf;" horiz-adv-x="862" 
d="M467 846q-63 0 -106.5 43t-43.5 106q0 62 43.5 105t106.5 43q61 0 103 -43t42 -105q0 -63 -42 -106t-103 -43zM453 -285q92 0 144 60.5t52 158.5q0 75 -35.5 121.5t-87.5 46.5q-43 0 -67 -24l-2 2q20 64 64 99.5t104 35.5q83 0 141.5 -61t58.5 -160q0 -138 -105 -229
t-271 -91q-184 0 -297 111.5t-113 282.5q0 94 32.5 177.5t89 145t128 105.5t153.5 67v137h41v-360q-252 -74 -252 -354q0 -115 59 -193t163 -78z" />
    <glyph glyph-name="Agrave" unicode="&#xc0;" horiz-adv-x="1107" 
d="M616 1800q6 -89 24.5 -156.5t59.5 -142.5h-6q-123 43 -206 119.5t-115 179.5h243zM469 1030l-162 -508h324zM311 4v-4h-313v4q58 32 95 93t73 173l391 1184h6l402 -1225q36 -109 61 -150.5t82 -74.5v-4h-442v4q79 37 79 113q0 45 -22 119l-74 231h-360l-60 -186
q-20 -65 -20 -113q0 -120 102 -164z" />
    <glyph glyph-name="Aacute" unicode="&#xc1;" horiz-adv-x="1107" 
d="M498 1800h243q-32 -103 -115 -179.5t-206 -119.5h-6q41 75 59.5 142.5t24.5 156.5zM469 1030l-162 -508h324zM311 4v-4h-313v4q58 32 95 93t73 173l391 1184h6l402 -1225q36 -109 61 -150.5t82 -74.5v-4h-442v4q79 37 79 113q0 45 -22 119l-74 231h-360l-60 -186
q-20 -65 -20 -113q0 -120 102 -164z" />
    <glyph glyph-name="Acircumflex" unicode="&#xc2;" horiz-adv-x="1107" 
d="M811 1491q-74 9 -145 37.5t-111 68.5q-43 -40 -114.5 -68.5t-145.5 -37.5h-12q100 78 163 157.5t103 182.5h10q40 -103 103 -182.5t163 -157.5h-14zM469 1030l-162 -508h324zM311 4v-4h-313v4q58 32 95 93t73 173l391 1184h6l402 -1225q36 -109 61 -150.5t82 -74.5v-4
h-442v4q79 37 79 113q0 45 -22 119l-74 231h-360l-60 -186q-20 -65 -20 -113q0 -120 102 -164z" />
    <glyph glyph-name="Atilde" unicode="&#xc3;" horiz-adv-x="1107" 
d="M848 1815q-19 -140 -66 -215.5t-118 -75.5q-28 0 -63.5 20t-64 44.5t-63 44.5t-61.5 20q-49 0 -80.5 -37t-55.5 -107h-14q19 140 66 217.5t116 77.5q29 0 65.5 -20t64.5 -44.5t62.5 -44.5t61.5 -20q48 0 79.5 35.5t58.5 104.5h12zM469 1030l-162 -508h324zM311 4v-4h-313
v4q58 32 95 93t73 173l391 1184h6l402 -1225q36 -109 61 -150.5t82 -74.5v-4h-442v4q79 37 79 113q0 45 -22 119l-74 231h-360l-60 -186q-20 -65 -20 -113q0 -120 102 -164z" />
    <glyph glyph-name="Adieresis" unicode="&#xc4;" horiz-adv-x="1107" 
d="M410 1513q-51 0 -87 36.5t-36 86.5t36.5 87.5t86.5 37.5q51 0 85.5 -37t34.5 -88t-34 -87t-86 -36zM696 1513q-53 0 -88 36t-35 87t35 88t88 37q49 0 86 -37.5t37 -87.5t-36.5 -86.5t-86.5 -36.5zM469 1030l-162 -508h324zM311 4v-4h-313v4q58 32 95 93t73 173l391 1184
h6l402 -1225q36 -109 61 -150.5t82 -74.5v-4h-442v4q79 37 79 113q0 45 -22 119l-74 231h-360l-60 -186q-20 -65 -20 -113q0 -120 102 -164z" />
    <glyph glyph-name="Aring" unicode="&#xc5;" horiz-adv-x="1107" 
d="M553 1827q72 0 124 -51.5t52 -122.5q0 -70 -52 -121t-124 -51q-71 0 -123.5 51t-52.5 121t52.5 122t123.5 52zM553 1526q53 0 90 37t37 90t-37 90t-90 37t-90 -37t-37 -90t37 -90t90 -37zM469 1030l-162 -508h324zM311 4v-4h-313v4q58 32 95 93t73 173l391 1184h6
l402 -1225q36 -109 61 -150.5t82 -74.5v-4h-442v4q79 37 79 113q0 45 -22 119l-74 231h-360l-60 -186q-20 -65 -20 -113q0 -120 102 -164z" />
    <glyph glyph-name="AE" unicode="&#xc6;" horiz-adv-x="1515" 
d="M702 1235l-311 -686h311v686zM322 4v-4h-324v4q102 56 201 266l458 990q15 38 15 55q0 33 -25 59.5t-78 55.5v4h709q79 0 108 16l50 -365h-4q-32 63 -62.5 108t-68.5 83.5t-81.5 61.5t-99.5 35.5t-125 12.5h-61v-630h31q125 0 179.5 43.5t106.5 185.5h4v-475h-4
q-27 72 -50 111.5t-58 60.5t-72 26t-106 5h-31v-666h74q170 0 272.5 80t181.5 258h4l-45 -385h-827v4q66 32 87 82t21 156v254h-333l-99 -215q-41 -87 -41 -146q0 -90 93 -131z" />
    <glyph glyph-name="Ccedilla" unicode="&#xc7;" horiz-adv-x="952" 
d="M498 -457q-66 0 -110.5 35t-63.5 90l10 8q43 -71 106 -71q41 0 64.5 29t23.5 85q0 117 -118 123l65 142q-191 25 -308.5 221.5t-117.5 503.5q0 212 68.5 383.5t185.5 266.5t258 95q53 0 120.5 -29.5t94.5 -29.5q62 0 98 59l17 -496h-6q-48 193 -128.5 321t-174.5 128
q-69 0 -122 -50t-85.5 -140.5t-49 -210.5t-16.5 -265q0 -295 83 -463.5t220 -168.5q97 0 169.5 71t115.5 238l14 -4q-26 -199 -129 -316.5t-256 -117.5h-16l-47 -105q91 2 151 -40t60 -122q0 -79 -51 -124.5t-125 -45.5z" />
    <glyph glyph-name="Egrave" unicode="&#xc8;" horiz-adv-x="950" 
d="M557 1800q6 -89 24.5 -156.5t59.5 -142.5h-6q-123 43 -206.5 119.5t-115.5 179.5h244zM29 1434h684q79 0 108 16l49 -365h-4q-55 107 -107.5 168.5t-133.5 97t-195 35.5h-61v-630h28q125 0 181 43.5t108 185.5h4v-475h-4q-27 71 -50.5 111t-59.5 61t-72.5 26t-106.5 5
h-28v-666h73q169 0 271.5 80t183.5 258h4l-45 -385h-827v4q66 32 87 82t21 156v950q0 106 -21 156t-87 82v4z" />
    <glyph glyph-name="Eacute" unicode="&#xc9;" horiz-adv-x="950" 
d="M438 1800h244q-32 -103 -115.5 -179.5t-206.5 -119.5h-6q41 75 59.5 142.5t24.5 156.5zM29 1434h684q79 0 108 16l49 -365h-4q-55 107 -107.5 168.5t-133.5 97t-195 35.5h-61v-630h28q125 0 181 43.5t108 185.5h4v-475h-4q-27 71 -50.5 111t-59.5 61t-72.5 26t-106.5 5
h-28v-666h73q169 0 271.5 80t183.5 258h4l-45 -385h-827v4q66 32 87 82t21 156v950q0 106 -21 156t-87 82v4z" />
    <glyph glyph-name="Ecircumflex" unicode="&#xca;" horiz-adv-x="950" 
d="M752 1491q-74 9 -145 37.5t-111 68.5q-43 -40 -114.5 -68.5t-145.5 -37.5h-13q100 78 163 157.5t103 182.5h11q40 -103 103 -182.5t163 -157.5h-14zM29 1434h684q79 0 108 16l49 -365h-4q-55 107 -107.5 168.5t-133.5 97t-195 35.5h-61v-630h28q125 0 181 43.5t108 185.5
h4v-475h-4q-27 71 -50.5 111t-59.5 61t-72.5 26t-106.5 5h-28v-666h73q169 0 271.5 80t183.5 258h4l-45 -385h-827v4q66 32 87 82t21 156v950q0 106 -21 156t-87 82v4z" />
    <glyph glyph-name="Edieresis" unicode="&#xcb;" horiz-adv-x="950" 
d="M350 1513q-51 0 -87 36.5t-36 86.5t36.5 87.5t86.5 37.5q51 0 86 -37t35 -88q0 -50 -34.5 -86.5t-86.5 -36.5zM637 1513q-53 0 -88 36t-35 87t35 88t88 37q49 0 86 -37.5t37 -87.5t-37 -86.5t-86 -36.5zM29 1434h684q79 0 108 16l49 -365h-4q-55 107 -107.5 168.5
t-133.5 97t-195 35.5h-61v-630h28q125 0 181 43.5t108 185.5h4v-475h-4q-27 71 -50.5 111t-59.5 61t-72.5 26t-106.5 5h-28v-666h73q169 0 271.5 80t183.5 258h4l-45 -385h-827v4q66 32 87 82t21 156v950q0 106 -21 156t-87 82v4z" />
    <glyph glyph-name="Igrave" unicode="&#xcc;" horiz-adv-x="505" 
d="M315 1800q6 -89 24.5 -156.5t59.5 -142.5h-6q-123 43 -206 119.5t-115 179.5h243zM369 242q0 -106 21 -156t87 -82v-4h-448v4q66 32 87 82t21 156v950q0 106 -21 156t-87 82v4h448v-4q-66 -32 -87 -82t-21 -156v-950z" />
    <glyph glyph-name="Iacute" unicode="&#xcd;" horiz-adv-x="505" 
d="M197 1800h243q-32 -103 -115 -179.5t-206 -119.5h-6q41 75 59.5 142.5t24.5 156.5zM369 242q0 -106 21 -156t87 -82v-4h-448v4q66 32 87 82t21 156v950q0 106 -21 156t-87 82v4h448v-4q-66 -32 -87 -82t-21 -156v-950z" />
    <glyph glyph-name="Icircumflex" unicode="&#xce;" horiz-adv-x="505" 
d="M510 1491q-74 9 -145 37.5t-111 68.5q-43 -40 -114.5 -68.5t-145.5 -37.5h-12q100 78 163 157.5t103 182.5h10q40 -103 103 -182.5t163 -157.5h-14zM369 242q0 -106 21 -156t87 -82v-4h-448v4q66 32 87 82t21 156v950q0 106 -21 156t-87 82v4h448v-4q-66 -32 -87 -82
t-21 -156v-950z" />
    <glyph glyph-name="Idieresis" unicode="&#xcf;" horiz-adv-x="505" 
d="M109 1513q-51 0 -87 36.5t-36 86.5t36.5 87.5t86.5 37.5q51 0 85.5 -37t34.5 -88t-34 -87t-86 -36zM395 1513q-53 0 -88 36t-35 87t35 88t88 37q49 0 86 -37.5t37 -87.5t-37 -86.5t-86 -36.5zM369 242q0 -106 21 -156t87 -82v-4h-448v4q66 32 87 82t21 156v950
q0 106 -21 156t-87 82v4h448v-4q-66 -32 -87 -82t-21 -156v-950z" />
    <glyph glyph-name="Eth" unicode="&#xd0;" horiz-adv-x="1112" 
d="M434 0h-397v4q66 32 87 82t21 156v467h-90v53h90v430q0 106 -21 156t-87 82v4h366q111 0 209.5 -28t181.5 -85.5t142.5 -140t93 -197.5t33.5 -252q0 -181 -52 -323.5t-141 -230t-200 -132.5t-236 -45zM377 49h43q88 0 157.5 38.5t122.5 118.5t81 213t28 312
q0 318 -109.5 485.5t-300.5 167.5h-22v-622h164v-53h-164v-660z" />
    <glyph glyph-name="Ntilde" unicode="&#xd1;" horiz-adv-x="1056" 
d="M858 1815q-19 -140 -66 -215.5t-118 -75.5q-28 0 -63.5 20t-64 44.5t-63 44.5t-61.5 20q-49 0 -80 -37t-55 -107h-15q19 140 66.5 217.5t116.5 77.5q29 0 65.5 -20t64.5 -44.5t62.5 -44.5t61.5 -20q48 0 79 35t58 105h12zM1069 1430q-72 -34 -107.5 -97t-35.5 -174v-1173
h-49l-680 1298v-993q0 -124 36 -188.5t113 -98.5v-4h-352v4q73 34 108 96t35 174v918q0 106 -21 156t-87 82v4h358l479 -930v639q0 124 -36 188.5t-113 98.5v4h352v-4z" />
    <glyph glyph-name="Ograve" unicode="&#xd2;" horiz-adv-x="1105" 
d="M616 1800q6 -89 24.5 -156.5t59.5 -142.5h-6q-123 43 -206 119.5t-115 179.5h243zM1057 717q0 -158 -39.5 -296t-107.5 -234.5t-160.5 -151.5t-196.5 -55t-197 55t-160.5 151.5t-107 234.5t-39.5 296t39.5 296t107 234.5t160.5 151.5t197 55t196.5 -55t160.5 -151.5
t107.5 -234.5t39.5 -296zM791 717q0 692 -238 692t-238 -692t238 -692t238 692z" />
    <glyph glyph-name="Oacute" unicode="&#xd3;" horiz-adv-x="1105" 
d="M498 1800h243q-32 -103 -115 -179.5t-206 -119.5h-6q41 75 59.5 142.5t24.5 156.5zM1057 717q0 -158 -39.5 -296t-107.5 -234.5t-160.5 -151.5t-196.5 -55t-197 55t-160.5 151.5t-107 234.5t-39.5 296t39.5 296t107 234.5t160.5 151.5t197 55t196.5 -55t160.5 -151.5
t107.5 -234.5t39.5 -296zM791 717q0 692 -238 692t-238 -692t238 -692t238 692z" />
    <glyph glyph-name="Ocircumflex" unicode="&#xd4;" horiz-adv-x="1105" 
d="M811 1491q-74 9 -145 37.5t-111 68.5q-43 -40 -114.5 -68.5t-145.5 -37.5h-12q100 78 163 157.5t103 182.5h10q40 -103 103 -182.5t163 -157.5h-14zM1057 717q0 -158 -39.5 -296t-107.5 -234.5t-160.5 -151.5t-196.5 -55t-197 55t-160.5 151.5t-107 234.5t-39.5 296
t39.5 296t107 234.5t160.5 151.5t197 55t196.5 -55t160.5 -151.5t107.5 -234.5t39.5 -296zM791 717q0 692 -238 692t-238 -692t238 -692t238 692z" />
    <glyph glyph-name="Otilde" unicode="&#xd5;" horiz-adv-x="1105" 
d="M846 1815q-19 -140 -66 -215.5t-118 -75.5q-28 0 -63.5 20t-64 44.5t-63 44.5t-61.5 20q-49 0 -80.5 -37t-55.5 -107h-14q19 140 66 217.5t116 77.5q29 0 65.5 -20t64.5 -44.5t62.5 -44.5t61.5 -20q48 0 79.5 35.5t58.5 104.5h12zM1057 717q0 -158 -39.5 -296
t-107.5 -234.5t-160.5 -151.5t-196.5 -55t-197 55t-160.5 151.5t-107 234.5t-39.5 296t39.5 296t107 234.5t160.5 151.5t197 55t196.5 -55t160.5 -151.5t107.5 -234.5t39.5 -296zM791 717q0 692 -238 692t-238 -692t238 -692t238 692z" />
    <glyph glyph-name="Odieresis" unicode="&#xd6;" horiz-adv-x="1105" 
d="M410 1513q-51 0 -87 36.5t-36 86.5t36.5 87.5t86.5 37.5q51 0 85.5 -37t34.5 -88t-34 -87t-86 -36zM696 1513q-53 0 -88 36t-35 87t35 88t88 37q49 0 86 -37.5t37 -87.5t-36.5 -86.5t-86.5 -36.5zM1057 717q0 -158 -39.5 -296t-107.5 -234.5t-160.5 -151.5t-196.5 -55
t-197 55t-160.5 151.5t-107 234.5t-39.5 296t39.5 296t107 234.5t160.5 151.5t197 55t196.5 -55t160.5 -151.5t107.5 -234.5t39.5 -296zM791 717q0 692 -238 692t-238 -692t238 -692t238 692z" />
    <glyph glyph-name="multiply" unicode="&#xd7;" horiz-adv-x="651" 
d="M287 655l-215 215l39 39l215 -215l213 215l39 -39l-213 -215l213 -217l-37 -37l-215 217l-215 -217l-39 37z" />
    <glyph glyph-name="Oslash" unicode="&#xd8;" horiz-adv-x="1105" 
d="M315 717q0 -187 17 -320l432 703q-54 309 -211 309q-238 0 -238 -692zM553 25q238 0 238 692q0 179 -17 309l-430 -704q53 -297 209 -297zM553 -20q-183 0 -322 161l-108 -178l-41 29l117 190q-150 214 -150 535q0 158 39.5 296t107 234.5t160.5 151.5t197 55
q187 0 326 -168l104 170l39 -29l-113 -182q148 -211 148 -528q0 -158 -39.5 -296t-107.5 -234.5t-160.5 -151.5t-196.5 -55z" />
    <glyph glyph-name="Ugrave" unicode="&#xd9;" horiz-adv-x="1048" 
d="M621 1800q6 -89 24.5 -156.5t59.5 -142.5h-7q-123 43 -206 119.5t-115 179.5h244zM934 1159v-739q0 -193 -105 -316.5t-294 -123.5q-204 0 -312 116.5t-108 329.5v766q0 106 -21 155.5t-88 82.5v4h449v-4q-67 -33 -88 -82.5t-21 -155.5v-754q0 -354 260 -354
q126 0 197 93t71 249v717q0 124 -36 188.5t-113 98.5v4h352v-4q-73 -33 -108 -96t-35 -175z" />
    <glyph glyph-name="Uacute" unicode="&#xda;" horiz-adv-x="1048" 
d="M502 1800h243q-32 -103 -115 -179.5t-206 -119.5h-6q41 75 59.5 142.5t24.5 156.5zM934 1159v-739q0 -193 -105 -316.5t-294 -123.5q-204 0 -312 116.5t-108 329.5v766q0 106 -21 155.5t-88 82.5v4h449v-4q-67 -33 -88 -82.5t-21 -155.5v-754q0 -354 260 -354
q126 0 197 93t71 249v717q0 124 -36 188.5t-113 98.5v4h352v-4q-73 -33 -108 -96t-35 -175z" />
    <glyph glyph-name="Ucircumflex" unicode="&#xdb;" horiz-adv-x="1048" 
d="M815 1491q-74 9 -145 37.5t-111 68.5q-43 -40 -114.5 -68.5t-145.5 -37.5h-12q100 78 163 157.5t103 182.5h10q40 -103 103 -182.5t163 -157.5h-14zM934 1159v-739q0 -193 -105 -316.5t-294 -123.5q-204 0 -312 116.5t-108 329.5v766q0 106 -21 155.5t-88 82.5v4h449v-4
q-67 -33 -88 -82.5t-21 -155.5v-754q0 -354 260 -354q126 0 197 93t71 249v717q0 124 -36 188.5t-113 98.5v4h352v-4q-73 -33 -108 -96t-35 -175z" />
    <glyph glyph-name="Udieresis" unicode="&#xdc;" horiz-adv-x="1048" 
d="M414 1513q-51 0 -87 36.5t-36 86.5t36.5 87.5t86.5 37.5q51 0 86 -37t35 -88q0 -50 -34.5 -86.5t-86.5 -36.5zM700 1513q-53 0 -87.5 36t-34.5 87t34.5 88t87.5 37q49 0 86 -37.5t37 -87.5t-36.5 -86.5t-86.5 -36.5zM934 1159v-739q0 -193 -105 -316.5t-294 -123.5
q-204 0 -312 116.5t-108 329.5v766q0 106 -21 155.5t-88 82.5v4h449v-4q-67 -33 -88 -82.5t-21 -155.5v-754q0 -354 260 -354q126 0 197 93t71 249v717q0 124 -36 188.5t-113 98.5v4h352v-4q-73 -33 -108 -96t-35 -175z" />
    <glyph glyph-name="Yacute" unicode="&#xdd;" horiz-adv-x="1075" 
d="M532 1800h244q-32 -103 -115 -179.5t-206 -119.5h-6q41 75 59 142t24 157zM618 678l230 512q29 63 29 108q0 89 -97 132v4h297v-4q-54 -36 -85 -79.5t-66 -121.5l-281 -631v-371q0 -100 25 -144.5t98 -78.5v-4h-469v4q73 34 98 78.5t25 144.5v371l-281 631
q-36 80 -63.5 121.5t-79.5 79.5v4h432v-4q-35 -22 -52.5 -45.5t-17.5 -57.5q0 -39 27 -104z" />
    <glyph glyph-name="Thorn" unicode="&#xde;" horiz-adv-x="1015" 
d="M369 1192v-31h123q220 0 357.5 -110.5t137.5 -313.5q0 -202 -138 -312t-357 -110h-123v-79q0 -55 3.5 -85t17 -59.5t40 -49t72.5 -38.5v-4h-473v4q66 32 87 82t21 156v950q0 106 -21 156t-87 82v4h448v-4q-66 -32 -87 -82t-21 -156zM369 365h69q153 0 230 100.5t77 271.5
q0 172 -77 273.5t-230 101.5h-69v-747z" />
    <glyph glyph-name="germandbls" unicode="&#xdf;" horiz-adv-x="997" 
d="M334 1169v-1169h-303v4q55 30 69.5 64.5t14.5 130.5v749h-115v15l115 45v61q0 126 36.5 221.5t98 149t132 79t148.5 25.5q133 0 227.5 -68t94.5 -184q0 -45 -13 -82.5t-39 -68t-49 -51t-59 -48t-53 -43.5q-47 -45 -64.5 -76t-17.5 -75q0 -50 34 -86t138 -112
q19 -14 29 -21q57 -41 91.5 -72t65.5 -70.5t44.5 -85.5t13.5 -104q0 -139 -80 -228t-201 -89q-51 0 -103.5 25.5t-72.5 25.5q-38 0 -76 -51l-18 391h4q67 -179 134.5 -266t141.5 -87q57 0 94.5 46.5t37.5 109.5q0 53 -23 95t-50 66t-99 77q-8 7 -13 10q-99 77 -128 107
q-76 80 -79 193v11q0 35 9.5 68t19 54.5t39 59t43 52.5t57.5 63q88 101 88 262q0 101 -44.5 160t-123.5 59q-96 0 -146 -88.5t-50 -253.5z" />
    <glyph glyph-name="agrave" unicode="&#xe0;" horiz-adv-x="833" 
d="M473 1489q0 -248 66 -377h-9q-112 79 -176 168t-90 209h209zM854 92v-4q-20 -46 -63 -75t-107 -29q-74 0 -119.5 44.5t-54.5 125.5l-2 39q-15 -94 -78.5 -150.5t-155.5 -56.5q-98 0 -162.5 62t-64.5 173q0 59 22.5 108t54.5 81t86 60t98.5 44t109.5 35l88 24v252
q0 72 -33 115t-92 43q-53 0 -84 -38t-31 -99q0 -59 22.5 -91t65.5 -32q15 0 27 6q-12 -45 -49.5 -70.5t-85.5 -25.5q-68 0 -110 40.5t-42 114.5q0 105 88.5 169.5t216.5 64.5q162 0 245 -70t83 -227q0 -107 -2 -291.5t-2 -249.5q0 -110 80 -110q33 0 51 18zM506 535l-55 -19
q-92 -31 -142.5 -87.5t-50.5 -160.5q0 -74 29.5 -116.5t83.5 -42.5q59 0 95.5 52t37.5 154z" />
    <glyph glyph-name="aacute" unicode="&#xe1;" horiz-adv-x="833" 
d="M367 1489h208q-26 -120 -91 -209t-177 -168h-6q66 129 66 377zM854 92v-4q-20 -46 -63 -75t-107 -29q-74 0 -119.5 44.5t-54.5 125.5l-2 39q-15 -94 -78.5 -150.5t-155.5 -56.5q-98 0 -162.5 62t-64.5 173q0 59 22.5 108t54.5 81t86 60t98.5 44t109.5 35l88 24v252
q0 72 -33 115t-92 43q-53 0 -84 -38t-31 -99q0 -59 22.5 -91t65.5 -32q15 0 27 6q-12 -45 -49.5 -70.5t-85.5 -25.5q-68 0 -110 40.5t-42 114.5q0 105 88.5 169.5t216.5 64.5q162 0 245 -70t83 -227q0 -107 -2 -291.5t-2 -249.5q0 -110 80 -110q33 0 51 18zM506 535l-55 -19
q-92 -31 -142.5 -87.5t-50.5 -160.5q0 -74 29.5 -116.5t83.5 -42.5q59 0 95.5 52t37.5 154z" />
    <glyph glyph-name="acircumflex" unicode="&#xe2;" horiz-adv-x="833" 
d="M664 1104q-68 28 -135.5 75t-104.5 93q-39 -46 -107 -93t-135 -75h-12q179 201 250 422h8q70 -226 248 -422h-12zM854 92v-4q-20 -46 -63 -75t-107 -29q-74 0 -119.5 44.5t-54.5 125.5l-2 39q-15 -94 -78.5 -150.5t-155.5 -56.5q-98 0 -162.5 62t-64.5 173q0 59 22.5 108
t54.5 81t86 60t98.5 44t109.5 35l88 24v252q0 72 -33 115t-92 43q-53 0 -84 -38t-31 -99q0 -59 22.5 -91t65.5 -32q15 0 27 6q-12 -45 -49.5 -70.5t-85.5 -25.5q-68 0 -110 40.5t-42 114.5q0 105 88.5 169.5t216.5 64.5q162 0 245 -70t83 -227q0 -107 -2 -291.5t-2 -249.5
q0 -110 80 -110q33 0 51 18zM506 535l-55 -19q-92 -31 -142.5 -87.5t-50.5 -160.5q0 -74 29.5 -116.5t83.5 -42.5q59 0 95.5 52t37.5 154z" />
    <glyph glyph-name="atilde" unicode="&#xe3;" horiz-adv-x="833" 
d="M713 1448q-17 -138 -61.5 -213.5t-110.5 -75.5q-32 0 -67 20t-60 43.5t-56 43.5t-55 20q-82 0 -127 -137h-14q19 139 63 214t111 75q32 0 66.5 -20t59.5 -43.5t55.5 -43.5t55.5 -20q44 0 73.5 35t53.5 102h13zM854 92v-4q-20 -46 -63 -75t-107 -29q-74 0 -119.5 44.5
t-54.5 125.5l-2 39q-15 -94 -78.5 -150.5t-155.5 -56.5q-98 0 -162.5 62t-64.5 173q0 59 22.5 108t54.5 81t86 60t98.5 44t109.5 35l88 24v252q0 72 -33 115t-92 43q-53 0 -84 -38t-31 -99q0 -59 22.5 -91t65.5 -32q15 0 27 6q-12 -45 -49.5 -70.5t-85.5 -25.5
q-68 0 -110 40.5t-42 114.5q0 105 88.5 169.5t216.5 64.5q162 0 245 -70t83 -227q0 -107 -2 -291.5t-2 -249.5q0 -110 80 -110q33 0 51 18zM506 535l-55 -19q-92 -31 -142.5 -87.5t-50.5 -160.5q0 -74 29.5 -116.5t83.5 -42.5q59 0 95.5 52t37.5 154z" />
    <glyph glyph-name="adieresis" unicode="&#xe4;" horiz-adv-x="833" 
d="M279 1174q-51 0 -87 36t-36 86t36.5 87.5t86.5 37.5q51 0 85.5 -37t34.5 -88q0 -50 -34 -86t-86 -36zM565 1174q-53 0 -88 36t-35 86q0 51 35 88t88 37q49 0 86 -37.5t37 -87.5q0 -49 -36.5 -85.5t-86.5 -36.5zM854 92v-4q-20 -46 -63 -75t-107 -29q-74 0 -119.5 44.5
t-54.5 125.5l-2 39q-15 -94 -78.5 -150.5t-155.5 -56.5q-98 0 -162.5 62t-64.5 173q0 59 22.5 108t54.5 81t86 60t98.5 44t109.5 35l88 24v252q0 72 -33 115t-92 43q-53 0 -84 -38t-31 -99q0 -59 22.5 -91t65.5 -32q15 0 27 6q-12 -45 -49.5 -70.5t-85.5 -25.5
q-68 0 -110 40.5t-42 114.5q0 105 88.5 169.5t216.5 64.5q162 0 245 -70t83 -227q0 -107 -2 -291.5t-2 -249.5q0 -110 80 -110q33 0 51 18zM506 535l-55 -19q-92 -31 -142.5 -87.5t-50.5 -160.5q0 -74 29.5 -116.5t83.5 -42.5q59 0 95.5 52t37.5 154z" />
    <glyph glyph-name="aring" unicode="&#xe5;" horiz-adv-x="833" 
d="M422 1468q72 0 124 -51.5t52 -120.5q0 -71 -52 -122.5t-124 -51.5q-71 0 -123.5 52t-52.5 122q0 69 52.5 120.5t123.5 51.5zM422 1169q52 0 89.5 37.5t37.5 89.5t-37.5 89.5t-89.5 37.5t-89.5 -37.5t-37.5 -89.5t37.5 -89.5t89.5 -37.5zM854 92v-4q-20 -46 -63 -75
t-107 -29q-74 0 -119.5 44.5t-54.5 125.5l-2 39q-15 -94 -78.5 -150.5t-155.5 -56.5q-98 0 -162.5 62t-64.5 173q0 59 22.5 108t54.5 81t86 60t98.5 44t109.5 35l88 24v252q0 72 -33 115t-92 43q-53 0 -84 -38t-31 -99q0 -59 22.5 -91t65.5 -32q15 0 27 6
q-12 -45 -49.5 -70.5t-85.5 -25.5q-68 0 -110 40.5t-42 114.5q0 105 88.5 169.5t216.5 64.5q162 0 245 -70t83 -227q0 -107 -2 -291.5t-2 -249.5q0 -110 80 -110q33 0 51 18zM506 535l-55 -19q-92 -31 -142.5 -87.5t-50.5 -160.5q0 -74 29.5 -116.5t83.5 -42.5q59 0 95.5 52
t37.5 154z" />
    <glyph glyph-name="ae" unicode="&#xe6;" horiz-adv-x="1230" 
d="M1190 332q-22 -169 -104 -260.5t-222 -91.5q-111 0 -203.5 65.5t-132.5 185.5q-9 -107 -82 -176t-167 -69q-101 0 -166.5 62t-65.5 173q0 59 22.5 108t54.5 81t86 60t98.5 44t109.5 35l88 24v250q0 73 -33 116.5t-94 43.5q-52 0 -82.5 -38t-30.5 -99q0 -59 22.5 -91
t65.5 -32q15 0 27 6q-12 -45 -49.5 -70.5t-85.5 -25.5q-68 0 -110 40.5t-42 114.5q0 105 88.5 169.5t216.5 64.5q171 0 234 -135q101 133 231 133q164 0 247 -130t83 -349h-483q0 -206 59.5 -325.5t177.5 -119.5q78 0 137.5 59t90.5 179zM713 586h272q0 73 -2 123t-9 106
t-19.5 89t-35.5 55t-55 22q-64 0 -105 -112t-46 -283zM506 530l-55 -16q-93 -31 -143 -86.5t-50 -159.5q0 -74 29.5 -116.5t83.5 -42.5q59 0 95.5 52t37.5 154z" />
    <glyph glyph-name="ccedilla" unicode="&#xe7;" horiz-adv-x="753" 
d="M381 -457q-66 0 -110.5 35t-63.5 90l10 8q43 -71 107 -71q41 0 64.5 29t23.5 85q0 117 -119 123l65 142q-139 21 -230 155.5t-91 349.5q0 114 35 215t92.5 169.5t132.5 108.5t154 40q119 0 191.5 -59t72.5 -158q0 -71 -43 -113.5t-107 -42.5q-48 0 -83 23.5t-44 64.5
q8 -2 29 -2q41 0 66.5 34.5t25.5 88.5q0 125 -102 125q-84 0 -139.5 -118t-55.5 -318q0 -208 56 -326.5t171 -118.5q170 0 216 228l14 -2q-15 -168 -97 -258t-219 -90h-10l-47 -105q91 2 151 -40t60 -122q0 -79 -51 -124.5t-125 -45.5z" />
    <glyph glyph-name="egrave" unicode="&#xe8;" horiz-adv-x="784" 
d="M481 1489q0 -248 66 -377h-8q-112 79 -176.5 168t-90.5 209h209zM418 1022q164 0 247 -129.5t83 -349.5h-484q0 -206 60 -326.5t178 -120.5q78 0 137 58.5t90 179.5l14 -2q-22 -169 -103.5 -260.5t-221.5 -91.5q-160 0 -270.5 140t-110.5 378q0 228 112.5 376t268.5 148z
M266 590h273q0 60 -1.5 103t-5.5 92t-12 81.5t-21 61t-33.5 42t-47.5 13.5q-65 0 -106 -111.5t-46 -281.5z" />
    <glyph glyph-name="eacute" unicode="&#xe9;" horiz-adv-x="784" 
d="M373 1489h209q-25 -119 -90.5 -208.5t-178.5 -168.5h-6q66 129 66 377zM418 1022q164 0 247 -129.5t83 -349.5h-484q0 -206 60 -326.5t178 -120.5q78 0 137 58.5t90 179.5l14 -2q-22 -169 -103.5 -260.5t-221.5 -91.5q-160 0 -270.5 140t-110.5 378q0 228 112.5 376
t268.5 148zM266 590h273q0 60 -1.5 103t-5.5 92t-12 81.5t-21 61t-33.5 42t-47.5 13.5q-65 0 -106 -111.5t-46 -281.5z" />
    <glyph glyph-name="ecircumflex" unicode="&#xea;" horiz-adv-x="784" 
d="M670 1104q-68 28 -135.5 75t-104.5 93q-39 -46 -107 -93t-135 -75h-12q179 201 250 422h8q70 -226 248 -422h-12zM418 1022q164 0 247 -129.5t83 -349.5h-484q0 -206 60 -326.5t178 -120.5q78 0 137 58.5t90 179.5l14 -2q-22 -169 -103.5 -260.5t-221.5 -91.5
q-160 0 -270.5 140t-110.5 378q0 228 112.5 376t268.5 148zM266 590h273q0 60 -1.5 103t-5.5 92t-12 81.5t-21 61t-33.5 42t-47.5 13.5q-65 0 -106 -111.5t-46 -281.5z" />
    <glyph glyph-name="edieresis" unicode="&#xeb;" horiz-adv-x="784" 
d="M287 1174q-51 0 -87 36t-36 86t36.5 87.5t86.5 37.5q51 0 86 -37t35 -88q0 -50 -34.5 -86t-86.5 -36zM573 1174q-53 0 -87.5 35.5t-34.5 86.5t34.5 88t87.5 37q49 0 86 -37.5t37 -87.5q0 -49 -36.5 -85.5t-86.5 -36.5zM418 1022q164 0 247 -129.5t83 -349.5h-484
q0 -206 60 -326.5t178 -120.5q78 0 137 58.5t90 179.5l14 -2q-22 -169 -103.5 -260.5t-221.5 -91.5q-160 0 -270.5 140t-110.5 378q0 228 112.5 376t268.5 148zM266 590h273q0 60 -1.5 103t-5.5 92t-12 81.5t-21 61t-33.5 42t-47.5 13.5q-65 0 -106 -111.5t-46 -281.5z" />
    <glyph glyph-name="igrave" unicode="&#xec;" horiz-adv-x="446" 
d="M272 1489q0 -248 66 -377h-8q-112 79 -176.5 168t-90.5 209h209zM334 1001v-794q0 -100 15.5 -136t70.5 -67v-4h-389v4q39 21 55.5 42.5t22.5 55.5t6 105v569q0 103 -19.5 146.5t-75.5 74.5v4h314z" />
    <glyph glyph-name="iacute" unicode="&#xed;" horiz-adv-x="446" 
d="M164 1489h209q-25 -119 -90.5 -208.5t-178.5 -168.5h-6q66 129 66 377zM334 1001v-794q0 -100 15.5 -136t70.5 -67v-4h-389v4q39 21 55.5 42.5t22.5 55.5t6 105v569q0 103 -19.5 146.5t-75.5 74.5v4h314z" />
    <glyph glyph-name="icircumflex" unicode="&#xee;" horiz-adv-x="446" 
d="M461 1104q-68 28 -135.5 75t-104.5 93q-39 -47 -106.5 -93.5t-134.5 -74.5h-13q179 201 250 422h8q70 -226 248 -422h-12zM334 1001v-794q0 -100 15.5 -136t70.5 -67v-4h-389v4q39 21 55.5 42.5t22.5 55.5t6 105v569q0 103 -19.5 146.5t-75.5 74.5v4h314z" />
    <glyph glyph-name="idieresis" unicode="&#xef;" horiz-adv-x="446" 
d="M78 1174q-51 0 -87 36t-36 86t36.5 87.5t86.5 37.5q51 0 86 -37t35 -88q0 -50 -34.5 -86t-86.5 -36zM365 1174q-53 0 -88 36t-35 86q0 51 35 88t88 37q49 0 85.5 -37.5t36.5 -87.5t-36.5 -86t-85.5 -36zM334 1001v-794q0 -100 15.5 -136t70.5 -67v-4h-389v4
q39 21 55.5 42.5t22.5 55.5t6 105v569q0 103 -19.5 146.5t-75.5 74.5v4h314z" />
    <glyph glyph-name="eth" unicode="&#xf0;" horiz-adv-x="856" 
d="M428 -20q-168 0 -279.5 147t-111.5 373t111 373t276 147q88 0 141 -43q-13 161 -104 297l-228 -96l-18 43l217 92q-113 139 -307 221l6 20q232 -64 387 -204l176 73l19 -41l-160 -67q264 -270 264 -770q0 -250 -108.5 -407.5t-280.5 -157.5zM428 18q156 0 156 482
q0 481 -156 481q-158 0 -158 -481q0 -482 158 -482z" />
    <glyph glyph-name="ntilde" unicode="&#xf1;" horiz-adv-x="927" 
d="M760 1448q-17 -138 -61.5 -213.5t-110.5 -75.5q-32 0 -67 20t-60 43.5t-56 43.5t-55 20q-82 0 -127 -137h-14q19 139 63 214t111 75q32 0 67 -20t59.5 -43.5t55.5 -43.5t56 -20q44 0 73.5 35t53.5 102h12zM20 1001h314v-206q29 109 96.5 168t161.5 59q107 0 168 -68.5
t61 -197.5v-549q0 -101 15 -136.5t71 -66.5v-4h-389v4q54 31 69 66.5t15 136.5v538q0 152 -115 152q-65 0 -109 -64t-44 -196v-430q0 -100 15.5 -136t70.5 -67v-4h-389v4q39 21 55.5 42.5t22.5 55.5t6 105v569q0 103 -19.5 146.5t-75.5 74.5v4z" />
    <glyph glyph-name="ograve" unicode="&#xf2;" horiz-adv-x="856" 
d="M477 1489q0 -248 66 -377h-8q-112 79 -176.5 168t-90.5 209h209zM428 -20q-168 0 -279.5 147.5t-111.5 374.5q0 226 111.5 373t279.5 147t278.5 -147t110.5 -373q0 -228 -110.5 -375t-278.5 -147zM428 18q156 0 156 484q0 481 -156 481q-158 0 -158 -481q0 -224 38 -354
t120 -130z" />
    <glyph glyph-name="oacute" unicode="&#xf3;" horiz-adv-x="856" 
d="M371 1489h209q-25 -119 -90.5 -208.5t-178.5 -168.5h-6q66 129 66 377zM428 -20q-168 0 -279.5 147.5t-111.5 374.5q0 226 111.5 373t279.5 147t278.5 -147t110.5 -373q0 -228 -110.5 -375t-278.5 -147zM428 18q156 0 156 484q0 481 -156 481q-158 0 -158 -481
q0 -224 38 -354t120 -130z" />
    <glyph glyph-name="ocircumflex" unicode="&#xf4;" horiz-adv-x="856" 
d="M668 1104q-68 28 -135.5 75t-104.5 93q-39 -46 -107 -93t-135 -75h-12q179 201 250 422h8q70 -226 248 -422h-12zM428 -20q-168 0 -279.5 147.5t-111.5 374.5q0 226 111.5 373t279.5 147t278.5 -147t110.5 -373q0 -228 -110.5 -375t-278.5 -147zM428 18q156 0 156 484
q0 481 -156 481q-158 0 -158 -481q0 -224 38 -354t120 -130z" />
    <glyph glyph-name="otilde" unicode="&#xf5;" horiz-adv-x="856" 
d="M702 1448q-17 -138 -61.5 -213.5t-110.5 -75.5q-32 0 -67 20t-60 43.5t-55.5 43.5t-54.5 20q-82 0 -127 -137h-14q19 139 63 214t111 75q32 0 66.5 -20t59.5 -43.5t55.5 -43.5t55.5 -20q44 0 73.5 35t53.5 102h12zM428 -20q-168 0 -279.5 147.5t-111.5 374.5
q0 226 111.5 373t279.5 147t278.5 -147t110.5 -373q0 -228 -110.5 -375t-278.5 -147zM428 18q156 0 156 484q0 481 -156 481q-158 0 -158 -481q0 -224 38 -354t120 -130z" />
    <glyph glyph-name="odieresis" unicode="&#xf6;" horiz-adv-x="856" 
d="M283 1174q-51 0 -87 36t-36 86t36.5 87.5t86.5 37.5q51 0 85.5 -37t34.5 -88q0 -50 -34 -86t-86 -36zM569 1174q-53 0 -88 36t-35 86q0 51 35 88t88 37q49 0 86 -37.5t37 -87.5q0 -49 -36.5 -85.5t-86.5 -36.5zM428 -20q-168 0 -279.5 147.5t-111.5 374.5
q0 226 111.5 373t279.5 147t278.5 -147t110.5 -373q0 -228 -110.5 -375t-278.5 -147zM428 18q156 0 156 484q0 481 -156 481q-158 0 -158 -481q0 -224 38 -354t120 -130z" />
    <glyph glyph-name="divide" unicode="&#xf7;" horiz-adv-x="817" 
d="M342 936q0 28 19 46.5t47 18.5t47.5 -18.5t19.5 -46.5t-19.5 -48t-47.5 -20t-47 20t-19 48zM88 631v57h641v-57h-641zM342 383q0 29 19 48.5t47 19.5t47.5 -19.5t19.5 -48.5q0 -27 -19.5 -46.5t-47.5 -19.5q-27 0 -46.5 19.5t-19.5 46.5z" />
    <glyph glyph-name="oslash" unicode="&#xf8;" horiz-adv-x="856" 
d="M270 502q0 -106 9 -191l286 457q-32 215 -137 215q-158 0 -158 -481zM428 18q156 0 156 484q0 106 -9 194l-286 -456q33 -222 139 -222zM428 -20q-135 0 -240 100l-77 -123l-39 27l84 133q-119 151 -119 385q0 226 111.5 373t279.5 147q138 0 236 -98l73 116l39 -24
l-80 -127q121 -146 121 -387q0 -228 -110.5 -375t-278.5 -147z" />
    <glyph glyph-name="ugrave" unicode="&#xf9;" horiz-adv-x="917" 
d="M508 1489q0 -250 65 -377h-8q-112 79 -176 168t-90 209h209zM582 365v411q0 103 -19.5 146.5t-77.5 74.5v4h316v-778q0 -103 16 -146t68 -73v-4h-303v205q-29 -109 -93 -167t-157 -58q-105 0 -166.5 69t-61.5 197v530q0 103 -19 146.5t-75 74.5v4h314v-743
q0 -154 110 -154q64 0 106 64.5t42 196.5z" />
    <glyph glyph-name="uacute" unicode="&#xfa;" horiz-adv-x="917" 
d="M399 1489h209q-26 -120 -91 -209t-177 -168h-6q65 127 65 377zM582 365v411q0 103 -19.5 146.5t-77.5 74.5v4h316v-778q0 -103 16 -146t68 -73v-4h-303v205q-29 -109 -93 -167t-157 -58q-105 0 -166.5 69t-61.5 197v530q0 103 -19 146.5t-75 74.5v4h314v-743
q0 -154 110 -154q64 0 106 64.5t42 196.5z" />
    <glyph glyph-name="ucircumflex" unicode="&#xfb;" horiz-adv-x="917" 
d="M696 1104q-67 28 -134 75t-105 93q-39 -46 -107 -93t-135 -75h-12q179 201 250 422h8q70 -226 248 -422h-13zM582 365v411q0 103 -19.5 146.5t-77.5 74.5v4h316v-778q0 -103 16 -146t68 -73v-4h-303v205q-29 -109 -93 -167t-157 -58q-105 0 -166.5 69t-61.5 197v530
q0 103 -19 146.5t-75 74.5v4h314v-743q0 -154 110 -154q64 0 106 64.5t42 196.5z" />
    <glyph glyph-name="udieresis" unicode="&#xfc;" horiz-adv-x="917" 
d="M313 1174q-51 0 -87 36t-36 86t36.5 87.5t86.5 37.5q51 0 86 -37t35 -88q0 -50 -34.5 -86t-86.5 -36zM600 1174q-53 0 -88 36t-35 86q0 51 35 88t88 37q49 0 86 -37.5t37 -87.5q0 -49 -36.5 -85.5t-86.5 -36.5zM582 365v411q0 103 -19.5 146.5t-77.5 74.5v4h316v-778
q0 -103 16 -146t68 -73v-4h-303v205q-29 -109 -93 -167t-157 -58q-105 0 -166.5 69t-61.5 197v530q0 103 -19 146.5t-75 74.5v4h314v-743q0 -154 110 -154q64 0 106 64.5t42 196.5z" />
    <glyph glyph-name="yacute" unicode="&#xfd;" horiz-adv-x="815" 
d="M395 1489h209q-26 -120 -91 -209t-177 -168h-6q65 127 65 377zM346 -193l47 150l-289 823q-36 103 -57 139.5t-67 77.5v4h391v-4q-70 -36 -70 -100q0 -36 25 -113l166 -526l153 508q19 59 19 102q0 94 -93 129v4h265v-4q-48 -39 -73 -80.5t-56 -144.5l-314 -995
q-19 -59 -37.5 -99t-45.5 -79t-65 -58.5t-87 -19.5q-66 0 -114 43t-48 114q0 69 44 109.5t99 40.5q39 0 60 -18q-22 -10 -37 -33.5t-15 -55.5q0 -34 20 -54.5t50 -20.5q43 0 72 36.5t57 124.5z" />
    <glyph glyph-name="thorn" unicode="&#xfe;" horiz-adv-x="942" 
d="M502 934q-69 0 -120.5 -85t-51.5 -235v-219q0 -159 50.5 -246.5t119.5 -87.5q82 0 126 118.5t44 322.5q0 200 -43.5 316t-124.5 116zM14 1534h316v-754q21 119 87 180.5t165 61.5q135 0 229 -140t94 -380q0 -232 -97.5 -377t-232.5 -145q-202 0 -245 231v-463
q0 -99 20.5 -136.5t85.5 -64.5v-4h-409v4q54 29 69 64.5t15 136.5v1561q0 102 -20 145.5t-77 75.5v4z" />
    <glyph glyph-name="ydieresis" unicode="&#xff;" horiz-adv-x="815" 
d="M309 1174q-51 0 -87 36t-36 86t36.5 87.5t86.5 37.5q51 0 86 -37t35 -88q0 -50 -34.5 -86t-86.5 -36zM596 1174q-53 0 -88 36t-35 86q0 51 35 88t88 37q49 0 86 -37.5t37 -87.5q0 -49 -36.5 -85.5t-86.5 -36.5zM346 -193l47 150l-289 823q-36 103 -57 139.5t-67 77.5v4
h391v-4q-70 -36 -70 -100q0 -36 25 -113l166 -526l153 508q19 59 19 102q0 94 -93 129v4h265v-4q-48 -39 -73 -80.5t-56 -144.5l-314 -995q-19 -59 -37.5 -99t-45.5 -79t-65 -58.5t-87 -19.5q-66 0 -114 43t-48 114q0 69 44 109.5t99 40.5q39 0 60 -18q-22 -10 -37 -33.5
t-15 -55.5q0 -34 20 -54.5t50 -20.5q43 0 72 36.5t57 124.5z" />
    <glyph glyph-name="Amacron" unicode="&#x100;" horiz-adv-x="1107" 
d="M791 1552h-474v74h474v-74zM469 1030l-162 -508h324zM311 4v-4h-313v4q58 32 95 93t73 173l391 1184h6l402 -1225q36 -109 61 -150.5t82 -74.5v-4h-442v4q79 37 79 113q0 45 -22 119l-74 231h-360l-60 -186q-20 -65 -20 -113q0 -120 102 -164z" />
    <glyph glyph-name="amacron" unicode="&#x101;" horiz-adv-x="833" 
d="M659 1192h-473v74h473v-74zM854 92v-4q-20 -46 -63 -75t-107 -29q-74 0 -119.5 44.5t-54.5 125.5l-2 39q-15 -94 -78.5 -150.5t-155.5 -56.5q-98 0 -162.5 62t-64.5 173q0 59 22.5 108t54.5 81t86 60t98.5 44t109.5 35l88 24v252q0 72 -33 115t-92 43q-53 0 -84 -38
t-31 -99q0 -59 22.5 -91t65.5 -32q15 0 27 6q-12 -45 -49.5 -70.5t-85.5 -25.5q-68 0 -110 40.5t-42 114.5q0 105 88.5 169.5t216.5 64.5q162 0 245 -70t83 -227q0 -107 -2 -291.5t-2 -249.5q0 -110 80 -110q33 0 51 18zM506 535l-55 -19q-92 -31 -142.5 -87.5t-50.5 -160.5
q0 -74 29.5 -116.5t83.5 -42.5q59 0 95.5 52t37.5 154z" />
    <glyph glyph-name="Abreve" unicode="&#x102;" horiz-adv-x="1107" 
d="M793 1802q-23 -301 -238 -301q-217 0 -240 301h13q12 -73 73.5 -112t153.5 -39q91 0 152.5 39t74.5 112h11zM469 1030l-162 -508h324zM311 4v-4h-313v4q58 32 95 93t73 173l391 1184h6l402 -1225q36 -109 61 -150.5t82 -74.5v-4h-442v4q79 37 79 113q0 45 -22 119
l-74 231h-360l-60 -186q-20 -65 -20 -113q0 -120 102 -164z" />
    <glyph glyph-name="abreve" unicode="&#x103;" horiz-adv-x="833" 
d="M637 1479q0 -167 -59.5 -261t-155.5 -94t-155.5 94t-59.5 261h12q11 -101 68.5 -149t134.5 -48t134.5 48t68.5 149h12zM854 92v-4q-20 -46 -63 -75t-107 -29q-74 0 -119.5 44.5t-54.5 125.5l-2 39q-15 -94 -78.5 -150.5t-155.5 -56.5q-98 0 -162.5 62t-64.5 173
q0 59 22.5 108t54.5 81t86 60t98.5 44t109.5 35l88 24v252q0 72 -33 115t-92 43q-53 0 -84 -38t-31 -99q0 -59 22.5 -91t65.5 -32q15 0 27 6q-12 -45 -49.5 -70.5t-85.5 -25.5q-68 0 -110 40.5t-42 114.5q0 105 88.5 169.5t216.5 64.5q162 0 245 -70t83 -227
q0 -107 -2 -291.5t-2 -249.5q0 -110 80 -110q33 0 51 18zM506 535l-55 -19q-92 -31 -142.5 -87.5t-50.5 -160.5q0 -74 29.5 -116.5t83.5 -42.5q59 0 95.5 52t37.5 154z" />
    <glyph glyph-name="Aogonek" unicode="&#x104;" horiz-adv-x="1107" 
d="M778 -274q-53 -203 -196 -203q-71 0 -117.5 44t-46.5 116q0 43 18 85.5t41.5 73.5t67.5 69.5t73 59.5t82 58q45 30 45 88q0 45 -22 119l-74 231h-360l-60 -186q-20 -65 -20 -113q0 -120 102 -164v-4h-313v4q58 32 95 93t73 173l391 1184h6l402 -1225q36 -109 61 -150.5
t82 -74.5v-4h-412q-145 -130 -145 -260q0 -58 26 -87.5t72 -29.5q39 0 67.5 25.5t55.5 81.5zM469 1030l-162 -508h324z" />
    <glyph glyph-name="aogonek" unicode="&#x105;" horiz-adv-x="833" 
d="M662 -477q-71 0 -117.5 44t-46.5 116q0 84 61.5 158t163.5 145q-10 -2 -39 -2q-74 0 -119.5 44.5t-54.5 125.5l-2 39q-15 -94 -78.5 -150.5t-155.5 -56.5q-98 0 -162.5 62t-64.5 173q0 59 22.5 108t54.5 81t86 60t98.5 44t109.5 35l88 24v252q0 72 -33 115t-92 43
q-53 0 -84 -38t-31 -99q0 -59 22.5 -91t65.5 -32q15 0 27 6q-12 -45 -49.5 -70.5t-85.5 -25.5q-68 0 -110 40.5t-42 114.5q0 105 88.5 169.5t216.5 64.5q162 0 245 -70t83 -227q0 -107 -2 -291.5t-2 -249.5q0 -110 80 -110q33 0 51 18v-4q-14 -24 -43.5 -52.5t-58.5 -55
t-57.5 -60t-46 -80t-17.5 -100.5q0 -58 26 -87.5t70 -29.5q39 0 68 25t57 82l4 -4q-53 -203 -194 -203zM506 535l-55 -19q-92 -31 -142.5 -87.5t-50.5 -160.5q0 -74 29.5 -116.5t83.5 -42.5q59 0 95.5 52t37.5 154z" />
    <glyph glyph-name="Cacute" unicode="&#x106;" horiz-adv-x="952" 
d="M510 1800h244q-32 -103 -115.5 -179.5t-206.5 -119.5h-6q41 75 59.5 142.5t24.5 156.5zM874 1454l17 -496h-6q-48 193 -128.5 321t-174.5 128q-69 0 -122 -50t-85.5 -140.5t-49 -210.5t-16.5 -265q0 -295 83 -463.5t220 -168.5q97 0 169.5 71t115.5 238l14 -4
q-26 -199 -129 -316.5t-256 -117.5q-211 0 -344 200.5t-133 528.5q0 212 68.5 383.5t185.5 266.5t258 95q53 0 120.5 -29.5t94.5 -29.5q62 0 98 59z" />
    <glyph glyph-name="cacute" unicode="&#x107;" horiz-adv-x="753" 
d="M393 1489h209q-26 -120 -91 -209t-177 -168h-6q65 127 65 377zM457 983q-84 0 -139.5 -118t-55.5 -318q0 -208 56 -326.5t171 -118.5q170 0 216 228l14 -2q-15 -168 -97 -258t-219 -90q-155 0 -260.5 137.5t-105.5 371.5q0 114 35 215t92.5 169.5t132.5 108.5t154 40
q119 0 191.5 -59t72.5 -158q0 -71 -43 -113.5t-107 -42.5q-48 0 -83 23.5t-44 64.5q8 -2 29 -2q41 0 66.5 34.5t25.5 88.5q0 125 -102 125z" />
    <glyph glyph-name="Ccircumflex" unicode="&#x108;" horiz-adv-x="952" 
d="M823 1491q-74 9 -145 37.5t-111 68.5q-43 -40 -114.5 -68.5t-145.5 -37.5h-12q100 78 163 157.5t103 182.5h10q40 -103 103.5 -182t163.5 -158h-15zM874 1454l17 -496h-6q-48 193 -128.5 321t-174.5 128q-69 0 -122 -50t-85.5 -140.5t-49 -210.5t-16.5 -265
q0 -295 83 -463.5t220 -168.5q97 0 169.5 71t115.5 238l14 -4q-26 -199 -129 -316.5t-256 -117.5q-211 0 -344 200.5t-133 528.5q0 212 68.5 383.5t185.5 266.5t258 95q53 0 120.5 -29.5t94.5 -29.5q62 0 98 59z" />
    <glyph glyph-name="ccircumflex" unicode="&#x109;" horiz-adv-x="753" 
d="M690 1104q-67 28 -134 75t-105 93q-39 -46 -107 -93t-135 -75h-12q177 199 249 422h9q71 -227 247 -422h-12zM457 983q-84 0 -139.5 -118t-55.5 -318q0 -208 56 -326.5t171 -118.5q170 0 216 228l14 -2q-15 -168 -97 -258t-219 -90q-155 0 -260.5 137.5t-105.5 371.5
q0 114 35 215t92.5 169.5t132.5 108.5t154 40q119 0 191.5 -59t72.5 -158q0 -71 -43 -113.5t-107 -42.5q-48 0 -83 23.5t-44 64.5q8 -2 29 -2q41 0 66.5 34.5t25.5 88.5q0 125 -102 125z" />
    <glyph glyph-name="Cdotaccent" unicode="&#x10a;" horiz-adv-x="952" 
d="M428 1661q0 57 40 98t97 41q58 0 100 -41t42 -98t-42 -98t-100 -41q-57 0 -97 41t-40 98zM874 1454l17 -496h-6q-48 193 -128.5 321t-174.5 128q-69 0 -122 -50t-85.5 -140.5t-49 -210.5t-16.5 -265q0 -295 83 -463.5t220 -168.5q97 0 169.5 71t115.5 238l14 -4
q-26 -199 -129 -316.5t-256 -117.5q-211 0 -344 200.5t-133 528.5q0 212 68.5 383.5t185.5 266.5t258 95q53 0 120.5 -29.5t94.5 -29.5q62 0 98 59z" />
    <glyph glyph-name="cdotaccent" unicode="&#x10b;" horiz-adv-x="753" 
d="M311 1319q0 57 40.5 97t97.5 40q59 0 100 -40t41 -97t-41.5 -98t-99.5 -41q-57 0 -97.5 41t-40.5 98zM457 983q-84 0 -139.5 -118t-55.5 -318q0 -208 56 -326.5t171 -118.5q170 0 216 228l14 -2q-15 -168 -97 -258t-219 -90q-155 0 -260.5 137.5t-105.5 371.5
q0 114 35 215t92.5 169.5t132.5 108.5t154 40q119 0 191.5 -59t72.5 -158q0 -71 -43 -113.5t-107 -42.5q-48 0 -83 23.5t-44 64.5q8 -2 29 -2q41 0 66.5 34.5t25.5 88.5q0 125 -102 125z" />
    <glyph glyph-name="Ccaron" unicode="&#x10c;" horiz-adv-x="952" 
d="M307 1831q74 -9 145.5 -37t114.5 -68q40 40 111 68t145 37h15q-100 -79 -163.5 -158t-103.5 -182h-10q-40 103 -103 182.5t-163 157.5h12zM874 1454l17 -496h-6q-48 193 -128.5 321t-174.5 128q-69 0 -122 -50t-85.5 -140.5t-49 -210.5t-16.5 -265q0 -295 83 -463.5
t220 -168.5q97 0 169.5 71t115.5 238l14 -4q-26 -199 -129 -316.5t-256 -117.5q-211 0 -344 200.5t-133 528.5q0 212 68.5 383.5t185.5 266.5t258 95q53 0 120.5 -29.5t94.5 -29.5q62 0 98 59z" />
    <glyph glyph-name="ccaron" unicode="&#x10d;" horiz-adv-x="753" 
d="M209 1530q66 -26 134 -73t108 -93q38 46 105.5 93t133.5 73h12q-176 -195 -247 -422h-9q-72 223 -249 422h12zM457 983q-84 0 -139.5 -118t-55.5 -318q0 -208 56 -326.5t171 -118.5q170 0 216 228l14 -2q-15 -168 -97 -258t-219 -90q-155 0 -260.5 137.5t-105.5 371.5
q0 114 35 215t92.5 169.5t132.5 108.5t154 40q119 0 191.5 -59t72.5 -158q0 -71 -43 -113.5t-107 -42.5q-48 0 -83 23.5t-44 64.5q8 -2 29 -2q41 0 66.5 34.5t25.5 88.5q0 125 -102 125z" />
    <glyph glyph-name="Dcaron" unicode="&#x10e;" horiz-adv-x="1103" 
d="M248 1831q74 -9 145.5 -37t114.5 -68q40 40 111 68t145 37h14q-100 -78 -163 -157.5t-103 -182.5h-10q-40 103 -103 182.5t-163 157.5h12zM29 0v4q66 32 87 82t21 156v950q0 106 -21 156t-87 82v4h366q111 0 209.5 -28t181.5 -85.5t142.5 -140t93 -197.5t33.5 -252
q0 -181 -52 -323.5t-141 -230t-200 -132.5t-236 -45h-397zM369 49h43q88 0 157.5 38.5t122.5 118.5t81 213t28 312q0 318 -109.5 485.5t-300.5 167.5h-22v-1335z" />
    <glyph glyph-name="dcaron" unicode="&#x10f;" horiz-adv-x="942" 
d="M1128 1534q-23 -106 -90.5 -229.5t-142.5 -196.5h-6q50 192 35 426h204zM438 68q69 0 121.5 85.5t52.5 235.5v219q0 156 -51.5 244t-120.5 88q-80 0 -123 -118.5t-43 -321.5q0 -201 42 -316.5t122 -115.5zM612 791v518q0 101 -20 144.5t-76 76.5v4h313v-1311
q0 -104 16 -146.5t70 -72.5v-4h-303v221q-23 -118 -89 -179.5t-165 -61.5q-135 0 -227 139t-92 379q0 234 96.5 379t231.5 145q200 0 245 -231z" />
    <glyph glyph-name="Dcroat" unicode="&#x110;" horiz-adv-x="1112" 
d="M434 0h-397v4q66 32 87 82t21 156v467h-90v53h90v430q0 106 -21 156t-87 82v4h366q111 0 209.5 -28t181.5 -85.5t142.5 -140t93 -197.5t33.5 -252q0 -181 -52 -323.5t-141 -230t-200 -132.5t-236 -45zM377 49h43q88 0 157.5 38.5t122.5 118.5t81 213t28 312
q0 318 -109.5 485.5t-300.5 167.5h-22v-622h164v-53h-164v-660z" />
    <glyph glyph-name="dcroat" unicode="&#x111;" horiz-adv-x="942" 
d="M438 68q69 0 121.5 85.5t52.5 235.5v219q0 156 -51.5 244t-120.5 88q-80 0 -123 -118.5t-43 -321.5q0 -201 42 -316.5t122 -115.5zM612 221q-23 -118 -89 -179.5t-165 -61.5q-135 0 -227 139t-92 379q0 234 96.5 379t231.5 145q200 0 245 -231v391h-202v51h202v76
q0 101 -20 144.5t-76 76.5v4h313v-301h78v-51h-78v-959q0 -104 16 -146.5t70 -72.5v-4h-303v221z" />
    <glyph glyph-name="Emacron" unicode="&#x112;" horiz-adv-x="950" 
d="M731 1552h-473v74h473v-74zM29 1434h684q79 0 108 16l49 -365h-4q-55 107 -107.5 168.5t-133.5 97t-195 35.5h-61v-630h28q125 0 181 43.5t108 185.5h4v-475h-4q-27 71 -50.5 111t-59.5 61t-72.5 26t-106.5 5h-28v-666h73q169 0 271.5 80t183.5 258h4l-45 -385h-827v4
q66 32 87 82t21 156v950q0 106 -21 156t-87 82v4z" />
    <glyph glyph-name="emacron" unicode="&#x113;" horiz-adv-x="784" 
d="M666 1192h-473v74h473v-74zM418 1022q164 0 247 -129.5t83 -349.5h-484q0 -206 60 -326.5t178 -120.5q78 0 137 58.5t90 179.5l14 -2q-22 -169 -103.5 -260.5t-221.5 -91.5q-160 0 -270.5 140t-110.5 378q0 228 112.5 376t268.5 148zM266 590h273q0 60 -1.5 103t-5.5 92
t-12 81.5t-21 61t-33.5 42t-47.5 13.5q-65 0 -106 -111.5t-46 -281.5z" />
    <glyph glyph-name="Ebreve" unicode="&#x114;" horiz-adv-x="950" 
d="M733 1802q-12 -155 -71.5 -228t-165.5 -73q-217 0 -240 301h12q12 -73 74 -112t154 -39q91 0 152.5 39t74.5 112h10zM29 1434h684q79 0 108 16l49 -365h-4q-55 107 -107.5 168.5t-133.5 97t-195 35.5h-61v-630h28q125 0 181 43.5t108 185.5h4v-475h-4q-27 71 -50.5 111
t-59.5 61t-72.5 26t-106.5 5h-28v-666h73q169 0 271.5 80t183.5 258h4l-45 -385h-827v4q66 32 87 82t21 156v950q0 106 -21 156t-87 82v4z" />
    <glyph glyph-name="ebreve" unicode="&#x115;" horiz-adv-x="784" 
d="M645 1479q0 -167 -59.5 -261t-155.5 -94t-155.5 94t-59.5 261h12q11 -101 68.5 -149t134.5 -48t134.5 48t68.5 149h12zM418 1022q164 0 247 -129.5t83 -349.5h-484q0 -206 60 -326.5t178 -120.5q78 0 137 58.5t90 179.5l14 -2q-22 -169 -103.5 -260.5t-221.5 -91.5
q-160 0 -270.5 140t-110.5 378q0 228 112.5 376t268.5 148zM266 590h273q0 60 -1.5 103t-5.5 92t-12 81.5t-21 61t-33.5 42t-47.5 13.5q-65 0 -106 -111.5t-46 -281.5z" />
    <glyph glyph-name="Edotaccent" unicode="&#x116;" horiz-adv-x="950" 
d="M356 1661q0 57 40.5 98t97.5 41q58 0 99.5 -41t41.5 -98t-41.5 -98t-99.5 -41q-57 0 -97.5 41t-40.5 98zM29 1434h684q79 0 108 16l49 -365h-4q-55 107 -107.5 168.5t-133.5 97t-195 35.5h-61v-630h28q125 0 181 43.5t108 185.5h4v-475h-4q-27 71 -50.5 111t-59.5 61
t-72.5 26t-106.5 5h-28v-666h73q169 0 271.5 80t183.5 258h4l-45 -385h-827v4q66 32 87 82t21 156v950q0 106 -21 156t-87 82v4z" />
    <glyph glyph-name="edotaccent" unicode="&#x117;" horiz-adv-x="784" 
d="M291 1319q0 57 40 97t97 40q59 0 100 -40t41 -97t-41.5 -98t-99.5 -41q-57 0 -97 41t-40 98zM418 1022q164 0 247 -129.5t83 -349.5h-484q0 -206 60 -326.5t178 -120.5q78 0 137 58.5t90 179.5l14 -2q-22 -169 -103.5 -260.5t-221.5 -91.5q-160 0 -270.5 140t-110.5 378
q0 228 112.5 376t268.5 148zM266 590h273q0 60 -1.5 103t-5.5 92t-12 81.5t-21 61t-33.5 42t-47.5 13.5q-65 0 -106 -111.5t-46 -281.5z" />
    <glyph glyph-name="Eogonek" unicode="&#x118;" horiz-adv-x="950" 
d="M766 -274q-53 -203 -195 -203q-72 0 -117.5 44t-45.5 116q0 89 64.5 166.5t170.5 150.5h-614v4q66 32 87 82t21 156v950q0 106 -21 156t-87 82v4h684q79 0 108 16l49 -365h-4q-55 107 -107.5 168.5t-133.5 97t-195 35.5h-61v-630h28q125 0 181 43.5t108 185.5h4v-475h-4
q-27 71 -50.5 111t-59.5 61t-72.5 26t-106.5 5h-28v-666h73q169 0 271.5 80t183.5 258h4l-45 -385h-176q-139 -130 -139 -260q0 -58 26 -87.5t70 -29.5q39 0 68 25t57 82z" />
    <glyph glyph-name="eogonek" unicode="&#x119;" horiz-adv-x="784" 
d="M442 -477q-70 0 -115.5 44t-45.5 116q0 86 60 160.5t161 146.5q-42 -10 -84 -10q-160 0 -270.5 140t-110.5 378q0 228 112.5 376t268.5 148q164 0 247 -129.5t83 -349.5h-484q0 -206 60 -326.5t178 -120.5q78 0 137 58.5t90 179.5l14 -2q-13 -111 -55 -187t-117 -131
q-159 -120 -159 -274q0 -58 26 -87.5t72 -29.5q39 0 68 25t57 82l4 -4q-53 -203 -197 -203zM266 590h273q0 60 -1.5 103t-5.5 92t-12 81.5t-21 61t-33.5 42t-47.5 13.5q-65 0 -106 -111.5t-46 -281.5z" />
    <glyph glyph-name="Ecaron" unicode="&#x11a;" horiz-adv-x="950" 
d="M236 1831q74 -9 145.5 -37t114.5 -68q40 40 111 68t145 37h14q-100 -78 -163 -157.5t-103 -182.5h-11q-40 103 -103 182.5t-163 157.5h13zM29 1434h684q79 0 108 16l49 -365h-4q-55 107 -107.5 168.5t-133.5 97t-195 35.5h-61v-630h28q125 0 181 43.5t108 185.5h4v-475
h-4q-27 71 -50.5 111t-59.5 61t-72.5 26t-106.5 5h-28v-666h73q169 0 271.5 80t183.5 258h4l-45 -385h-827v4q66 32 87 82t21 156v950q0 106 -21 156t-87 82v4z" />
    <glyph glyph-name="ecaron" unicode="&#x11b;" horiz-adv-x="784" 
d="M190 1530q66 -26 134 -73t108 -93q38 46 106 93t134 73h12q-178 -196 -248 -422h-8q-71 221 -250 422h12zM418 1022q164 0 247 -129.5t83 -349.5h-484q0 -206 60 -326.5t178 -120.5q78 0 137 58.5t90 179.5l14 -2q-22 -169 -103.5 -260.5t-221.5 -91.5q-160 0 -270.5 140
t-110.5 378q0 228 112.5 376t268.5 148zM266 590h273q0 60 -1.5 103t-5.5 92t-12 81.5t-21 61t-33.5 42t-47.5 13.5q-65 0 -106 -111.5t-46 -281.5z" />
    <glyph glyph-name="Gcircumflex" unicode="&#x11c;" horiz-adv-x="1050" 
d="M834 1491q-74 9 -145 37.5t-111 68.5q-43 -40 -115 -68.5t-146 -37.5h-12q100 78 163 157.5t103 182.5h11q40 -103 103 -182.5t163 -157.5h-14zM580 1407q-131 0 -203 -190.5t-72 -518.5q0 -148 14.5 -265t43.5 -205t78 -135.5t114 -47.5q81 0 134.5 76.5t53.5 208.5v100
q0 102 -22.5 153t-85.5 87v4h395v-4q-45 -32 -58.5 -81t-13.5 -157v-452h-4l-157 210q-28 -96 -107 -153t-186 -57q-129 0 -233 91.5t-163 255.5t-59 369q0 167 42.5 310.5t113 240.5t163.5 152t193 55q57 0 133.5 -29.5t102.5 -29.5q64 0 100 59l18 -496h-6
q-51 192 -138.5 320.5t-190.5 128.5z" />
    <glyph glyph-name="gcircumflex" unicode="&#x11d;" horiz-adv-x="870" 
d="M668 1141q-68 28 -135.5 75t-104.5 93q-39 -46 -107 -93t-135 -75h-12q179 201 250 422h8q70 -226 248 -422h-12zM426 987q-62 0 -92.5 -82t-30.5 -217t30.5 -216t92.5 -81t92.5 81t30.5 216t-30.5 217t-92.5 82zM868 -94q0 -117 -64.5 -205.5t-169 -133t-231.5 -44.5
q-72 0 -139 14t-125.5 43t-93.5 78.5t-35 114.5q0 85 65 141t171 70q-79 12 -135 63.5t-56 138.5q0 76 54.5 133.5t128.5 83.5q-75 40 -115.5 116t-40.5 169q0 144 92.5 239t251.5 95q104 0 190 -47q12 89 57 142.5t107 53.5q61 0 92 -34t31 -82q0 -40 -28 -73t-70 -54l-2 4
q6 18 6 37q0 32 -19 52.5t-53 20.5q-68 0 -94 -86q129 -91 129 -268q0 -143 -92.5 -237.5t-253.5 -94.5q-88 0 -162 33q-86 -38 -86 -106q0 -46 33 -69.5t86 -23.5h256q152 0 233.5 -74t81.5 -210zM428 -440q121 0 202 66t81 173q0 96 -53.5 138.5t-172.5 42.5h-127
q-87 0 -137.5 -49.5t-50.5 -143.5q0 -106 71 -166.5t187 -60.5z" />
    <glyph glyph-name="Gbreve" unicode="&#x11e;" horiz-adv-x="1050" 
d="M815 1802q-12 -155 -71.5 -228t-165.5 -73q-217 0 -240 301h12q12 -73 74 -112t154 -39q91 0 152.5 39t74.5 112h10zM580 1407q-131 0 -203 -190.5t-72 -518.5q0 -148 14.5 -265t43.5 -205t78 -135.5t114 -47.5q81 0 134.5 76.5t53.5 208.5v100q0 102 -22.5 153t-85.5 87
v4h395v-4q-45 -32 -58.5 -81t-13.5 -157v-452h-4l-157 210q-28 -96 -107 -153t-186 -57q-129 0 -233 91.5t-163 255.5t-59 369q0 167 42.5 310.5t113 240.5t163.5 152t193 55q57 0 133.5 -29.5t102.5 -29.5q64 0 100 59l18 -496h-6q-51 192 -138.5 320.5t-190.5 128.5z" />
    <glyph glyph-name="gbreve" unicode="&#x11f;" horiz-adv-x="870" 
d="M641 1479q0 -167 -59.5 -261t-155.5 -94t-155.5 94t-59.5 261h12q11 -101 68.5 -149t134.5 -48t134.5 48t68.5 149h12zM426 987q-62 0 -92.5 -82t-30.5 -217t30.5 -216t92.5 -81t92.5 81t30.5 216t-30.5 217t-92.5 82zM868 -94q0 -117 -64.5 -205.5t-169 -133
t-231.5 -44.5q-72 0 -139 14t-125.5 43t-93.5 78.5t-35 114.5q0 85 65 141t171 70q-79 12 -135 63.5t-56 138.5q0 76 54.5 133.5t128.5 83.5q-75 40 -115.5 116t-40.5 169q0 144 92.5 239t251.5 95q104 0 190 -47q12 89 57 142.5t107 53.5q61 0 92 -34t31 -82q0 -40 -28 -73
t-70 -54l-2 4q6 18 6 37q0 32 -19 52.5t-53 20.5q-68 0 -94 -86q129 -91 129 -268q0 -143 -92.5 -237.5t-253.5 -94.5q-88 0 -162 33q-86 -38 -86 -106q0 -46 33 -69.5t86 -23.5h256q152 0 233.5 -74t81.5 -210zM428 -440q121 0 202 66t81 173q0 96 -53.5 138.5t-172.5 42.5
h-127q-87 0 -137.5 -49.5t-50.5 -143.5q0 -106 71 -166.5t187 -60.5z" />
    <glyph glyph-name="Gdotaccent" unicode="&#x120;" horiz-adv-x="1050" 
d="M438 1661q0 57 40 98t97 41q58 0 100 -41t42 -98t-42 -98t-100 -41q-57 0 -97 41t-40 98zM580 1407q-131 0 -203 -190.5t-72 -518.5q0 -148 14.5 -265t43.5 -205t78 -135.5t114 -47.5q81 0 134.5 76.5t53.5 208.5v100q0 102 -22.5 153t-85.5 87v4h395v-4
q-45 -32 -58.5 -81t-13.5 -157v-452h-4l-157 210q-28 -96 -107 -153t-186 -57q-129 0 -233 91.5t-163 255.5t-59 369q0 167 42.5 310.5t113 240.5t163.5 152t193 55q57 0 133.5 -29.5t102.5 -29.5q64 0 100 59l18 -496h-6q-51 192 -138.5 320.5t-190.5 128.5z" />
    <glyph glyph-name="gdotaccent" unicode="&#x121;" horiz-adv-x="870" 
d="M289 1319q0 57 40 97t97 40q59 0 100 -40t41 -97t-41.5 -98t-99.5 -41q-57 0 -97 41t-40 98zM426 987q-62 0 -92.5 -82t-30.5 -217t30.5 -216t92.5 -81t92.5 81t30.5 216t-30.5 217t-92.5 82zM868 -94q0 -117 -64.5 -205.5t-169 -133t-231.5 -44.5q-72 0 -139 14
t-125.5 43t-93.5 78.5t-35 114.5q0 85 65 141t171 70q-79 12 -135 63.5t-56 138.5q0 76 54.5 133.5t128.5 83.5q-75 40 -115.5 116t-40.5 169q0 144 92.5 239t251.5 95q104 0 190 -47q12 89 57 142.5t107 53.5q61 0 92 -34t31 -82q0 -40 -28 -73t-70 -54l-2 4q6 18 6 37
q0 32 -19 52.5t-53 20.5q-68 0 -94 -86q129 -91 129 -268q0 -143 -92.5 -237.5t-253.5 -94.5q-88 0 -162 33q-86 -38 -86 -106q0 -46 33 -69.5t86 -23.5h256q152 0 233.5 -74t81.5 -210zM428 -440q121 0 202 66t81 173q0 96 -53.5 138.5t-172.5 42.5h-127
q-87 0 -137.5 -49.5t-50.5 -143.5q0 -106 71 -166.5t187 -60.5z" />
    <glyph glyph-name="uni0122" unicode="&#x122;" horiz-adv-x="1050" 
d="M580 1407q-131 0 -203 -190.5t-72 -518.5q0 -148 14.5 -265t43.5 -205t78 -135.5t114 -47.5q81 0 134.5 76.5t53.5 208.5v100q0 102 -22.5 153t-85.5 87v4h395v-4q-45 -32 -58.5 -81t-13.5 -157v-452h-4l-157 210q-28 -96 -107 -153t-186 -57q-129 0 -233 91.5
t-163 255.5t-59 369q0 167 42.5 310.5t113 240.5t163.5 152t193 55q57 0 133.5 -29.5t102.5 -29.5q64 0 100 59l18 -496h-6q-51 192 -138.5 320.5t-190.5 128.5zM709 -260q0 -95 -71.5 -155.5t-182.5 -63.5v28q159 11 176 142q-29 -29 -84 -29q-49 0 -81 32.5t-32 78.5
q0 53 36 87t91 34q67 0 107.5 -41.5t40.5 -112.5z" />
    <glyph glyph-name="uni0123" unicode="&#x123;" horiz-adv-x="870" 
d="M289 1307q0 94 71.5 154t182.5 63v-27q-81 -6 -124.5 -43.5t-51.5 -97.5q31 28 84 28q49 0 80.5 -32.5t31.5 -79.5q0 -53 -36 -87t-91 -34q-67 0 -107 41.5t-40 114.5zM426 987q-62 0 -92.5 -82t-30.5 -217t30.5 -216t92.5 -81t92.5 81t30.5 216t-30.5 217t-92.5 82z
M868 -94q0 -117 -64.5 -205.5t-169 -133t-231.5 -44.5q-72 0 -139 14t-125.5 43t-93.5 78.5t-35 114.5q0 85 65 141t171 70q-79 12 -135 63.5t-56 138.5q0 76 54.5 133.5t128.5 83.5q-75 40 -115.5 116t-40.5 169q0 144 92.5 239t251.5 95q104 0 190 -47q12 89 57 142.5
t107 53.5q61 0 92 -34t31 -82q0 -40 -28 -73t-70 -54l-2 4q6 18 6 37q0 32 -19 52.5t-53 20.5q-68 0 -94 -86q129 -91 129 -268q0 -143 -92.5 -237.5t-253.5 -94.5q-88 0 -162 33q-86 -38 -86 -106q0 -46 33 -69.5t86 -23.5h256q152 0 233.5 -74t81.5 -210zM428 -440
q121 0 202 66t81 173q0 96 -53.5 138.5t-172.5 42.5h-127q-87 0 -137.5 -49.5t-50.5 -143.5q0 -106 71 -166.5t187 -60.5z" />
    <glyph glyph-name="Hcircumflex" unicode="&#x124;" horiz-adv-x="1157" 
d="M836 1491q-74 9 -145 37.5t-111 68.5q-43 -40 -115 -68.5t-146 -37.5h-12q100 78 163 157.5t103 182.5h11q40 -103 103 -182.5t163 -157.5h-14zM137 242v950q0 106 -21 156t-87 82v4h448v-4q-66 -32 -87 -82t-21 -156v-432h422v432q0 106 -21.5 155.5t-89.5 82.5v4h450
v-4q-68 -32 -89 -82t-21 -156v-950q0 -106 21 -156t89 -82v-4h-450v4q68 33 89.5 82.5t21.5 155.5v463h-422v-463q0 -106 21 -156t87 -82v-4h-448v4q66 32 87 82t21 156z" />
    <glyph glyph-name="hcircumflex" unicode="&#x125;" horiz-adv-x="919" 
d="M717 1573q-74 9 -145 37.5t-111 68.5q-43 -40 -114.5 -68.5t-145.5 -37.5h-13q100 79 163.5 158t103.5 182h10q40 -103 103 -182.5t163 -157.5h-14zM12 1534h316v-739q29 108 96 167.5t160 59.5q107 0 168 -68.5t61 -197.5v-549q0 -100 15.5 -136t70.5 -67v-4h-389v4
q56 31 71 66.5t15 136.5v538q0 152 -115 152q-65 0 -109 -64t-44 -196v-430q0 -101 15 -136.5t69 -66.5v-4h-387v4q54 31 69 66.5t15 136.5v1102q0 102 -20 145t-77 76v4z" />
    <glyph glyph-name="Hbar" unicode="&#x126;" horiz-adv-x="1173" 
d="M799 719v248h-422v-248h422zM485 0h-448v4q66 32 87 82t21 156v725h-90v53h90v172q0 106 -21 156t-87 82v4h448v-4q-66 -32 -87 -82t-21 -156v-172h422v172q0 106 -21.5 155.5t-89.5 82.5v4h451v-4q-68 -33 -89.5 -82.5t-21.5 -155.5v-172h90v-53h-90v-725
q0 -106 21.5 -155.5t89.5 -82.5v-4h-451v4q68 33 89.5 82.5t21.5 155.5v422h-422v-422q0 -106 21 -156t87 -82v-4z" />
    <glyph glyph-name="hbar" unicode="&#x127;" horiz-adv-x="919" 
d="M412 4v-4h-387v4q54 31 69 66.5t15 136.5v975h-78v51h78v76q0 102 -20 145t-77 76v4h316v-301h202v-51h-202v-387q29 108 96 167.5t160 59.5q107 0 168 -68.5t61 -197.5v-549q0 -100 15.5 -136t70.5 -67v-4h-389v4q56 31 71 66.5t15 136.5v538q0 152 -115 152
q-65 0 -109 -64t-44 -196v-430q0 -101 15 -136.5t69 -66.5z" />
    <glyph glyph-name="Itilde" unicode="&#x128;" horiz-adv-x="505" 
d="M545 1815q-19 -140 -66.5 -215.5t-118.5 -75.5q-28 0 -63.5 20t-63.5 44.5t-62.5 44.5t-61.5 20q-49 0 -80.5 -37t-55.5 -107h-14q19 140 66 217.5t116 77.5q29 0 65.5 -20t64.5 -44.5t62.5 -44.5t61.5 -20q48 0 79 35t58 105h13zM369 242q0 -106 21 -156t87 -82v-4h-448
v4q66 32 87 82t21 156v950q0 106 -21 156t-87 82v4h448v-4q-66 -32 -87 -82t-21 -156v-950z" />
    <glyph glyph-name="itilde" unicode="&#x129;" horiz-adv-x="446" 
d="M489 1450q-17 -139 -60 -215t-107 -76q-32 0 -66 20t-58.5 43.5t-55 43.5t-54.5 20q-43 0 -72 -35t-53 -102h-12q19 138 62.5 214.5t107.5 76.5q31 0 65 -20t58.5 -44.5t55 -44.5t54.5 -20q43 0 71 35.5t52 103.5h12zM334 1001v-794q0 -100 15.5 -136t70.5 -67v-4h-389v4
q39 21 55.5 42.5t22.5 55.5t6 105v569q0 103 -19.5 146.5t-75.5 74.5v4h314z" />
    <glyph glyph-name="Imacron" unicode="&#x12a;" horiz-adv-x="505" 
d="M489 1552h-473v74h473v-74zM369 242q0 -106 21 -156t87 -82v-4h-448v4q66 32 87 82t21 156v950q0 106 -21 156t-87 82v4h448v-4q-66 -32 -87 -82t-21 -156v-950z" />
    <glyph glyph-name="imacron" unicode="&#x12b;" horiz-adv-x="446" 
d="M416 1192h-406v74h406v-74zM334 1001v-794q0 -100 15.5 -136t70.5 -67v-4h-389v4q39 21 55.5 42.5t22.5 55.5t6 105v569q0 103 -19.5 146.5t-75.5 74.5v4h314z" />
    <glyph glyph-name="Ibreve" unicode="&#x12c;" horiz-adv-x="505" 
d="M492 1802q-23 -301 -238 -301q-217 0 -240 301h13q12 -73 73.5 -112t153.5 -39q91 0 152.5 39t74.5 112h11zM369 242q0 -106 21 -156t87 -82v-4h-448v4q66 32 87 82t21 156v950q0 106 -21 156t-87 82v4h448v-4q-66 -32 -87 -82t-21 -156v-950z" />
    <glyph glyph-name="ibreve" unicode="&#x12d;" horiz-adv-x="446" 
d="M436 1479q0 -167 -59.5 -261t-155.5 -94q-97 0 -156 94t-59 261h12q11 -101 68.5 -149t134.5 -48q76 0 133.5 48t67.5 149h14zM334 1001v-794q0 -100 15.5 -136t70.5 -67v-4h-389v4q39 21 55.5 42.5t22.5 55.5t6 105v569q0 103 -19.5 146.5t-75.5 74.5v4h314z" />
    <glyph glyph-name="Iogonek" unicode="&#x12e;" horiz-adv-x="505" 
d="M422 -274q-53 -203 -195 -203q-72 0 -118 44t-46 116q0 89 64.5 166t171.5 151h-270v4q66 32 87 82t21 156v950q0 106 -21 156t-87 82v4h448v-4q-66 -32 -87 -82t-21 -156v-950q0 -106 21 -156t87 -82v-4h-141q-139 -130 -139 -260q0 -58 26 -87.5t70 -29.5q39 0 68 25
t57 82z" />
    <glyph glyph-name="iogonek" unicode="&#x12f;" horiz-adv-x="446" 
d="M84 1319q0 57 41 97t98 40q58 0 98.5 -40t40.5 -97t-40.5 -98t-98.5 -41q-57 0 -98 41t-41 98zM391 -274q-53 -203 -194 -203q-72 0 -118 44t-46 116q0 89 64.5 166.5t170.5 150.5h-237v4q39 21 55.5 42.5t22.5 55.5t6 105v569q0 103 -19.5 146.5t-75.5 74.5v4h314v-794
q0 -100 15.5 -136t70.5 -67v-4h-115q-139 -130 -139 -260q0 -58 26 -87.5t70 -29.5q39 0 68 25t57 82z" />
    <glyph glyph-name="Idotaccent" unicode="&#x130;" horiz-adv-x="505" 
d="M115 1661q0 57 40 98t97 41q58 0 99.5 -41t41.5 -98t-41.5 -98t-99.5 -41q-57 0 -97 41t-40 98zM369 242q0 -106 21 -156t87 -82v-4h-448v4q66 32 87 82t21 156v950q0 106 -21 156t-87 82v4h448v-4q-66 -32 -87 -82t-21 -156v-950z" />
    <glyph glyph-name="dotlessi" unicode="&#x131;" horiz-adv-x="446" 
d="M334 1001v-794q0 -100 15.5 -136t70.5 -67v-4h-389v4q39 21 55.5 42.5t22.5 55.5t6 105v569q0 103 -19.5 146.5t-75.5 74.5v4h314z" />
    <glyph glyph-name="Jcircumflex" unicode="&#x134;" horiz-adv-x="907" 
d="M932 1491q-74 9 -145 37.5t-111 68.5q-43 -40 -114.5 -68.5t-145.5 -37.5h-13q100 79 163.5 158t103.5 182h10q40 -103 103 -182.5t163 -157.5h-14zM559 330v862q0 106 -21 156t-87 82v4h448v-4q-66 -32 -87 -82t-21 -156v-797q0 -103 -33 -183.5t-90.5 -130.5
t-131.5 -75.5t-159 -25.5q-157 0 -260 76t-103 210q0 93 58.5 147t142.5 54q46 0 89 -19.5t65 -54.5q-55 -5 -97.5 -53t-42.5 -127q0 -85 39 -140t115 -55q91 0 133.5 83.5t42.5 228.5z" />
    <glyph glyph-name="jcircumflex" unicode="&#x135;" horiz-adv-x="436" 
d="M461 1104q-68 28 -135.5 75t-104.5 93q-39 -47 -106.5 -93.5t-134.5 -74.5h-13q179 201 250 422h8q70 -226 248 -422h-12zM334 -106q0 -184 -87 -277.5t-231 -93.5q-112 0 -182 47.5t-70 140.5q0 63 42 105.5t104 42.5q35 0 65.5 -17t44.5 -43q-38 -10 -66 -39.5
t-28 -87.5q0 -51 25 -82.5t67 -31.5q31 0 51.5 19t29.5 56t12.5 74t3.5 88v981q0 103 -19.5 146.5t-75.5 74.5v4h314v-1107z" />
    <glyph glyph-name="uni0136" unicode="&#x136;" horiz-adv-x="1118" 
d="M477 0h-448v4q66 32 87 82t21 156v950q0 106 -21 156t-87 82v4h448v-4q-66 -32 -87 -82t-21 -156v-547l389 586q33 51 33 88q0 70 -86 111v4h397v-4q-102 -30 -169.5 -82t-121.5 -134l-225 -342l356 -643q55 -97 97.5 -148t99.5 -77v-4h-445v4q47 33 47 84t-34 115
l-267 471l-71 -109v-323q0 -106 21 -156t87 -82v-4zM690 -260q0 -95 -71.5 -155.5t-182.5 -63.5v28q159 11 176 142q-29 -29 -84 -29q-49 0 -80.5 32t-31.5 79q0 53 36 87t91 34q67 0 107 -41.5t40 -112.5z" />
    <glyph glyph-name="uni0137" unicode="&#x137;" horiz-adv-x="915" 
d="M328 573h53q37 0 64.5 13.5t54.5 52.5l125 186q28 35 28 76q0 66 -65 96v4h330v-4q-146 -49 -228 -170l-131 -196l209 -428q66 -138 176 -199v-4h-334q-4 51 -49 147l-162 338q-12 26 -23 35.5t-30 9.5h-18v-323q0 -101 15 -136.5t69 -66.5v-4h-387v4q54 31 69 66.5
t15 136.5v1102q0 102 -20 145t-77 76v4h316v-961zM596 -260q0 -95 -71.5 -155.5t-182.5 -63.5v28q159 11 176 142q-29 -29 -84 -29q-49 0 -80.5 32t-31.5 79q0 53 36 87t91 34q67 0 107 -41.5t40 -112.5z" />
    <glyph glyph-name="kgreenlandic" unicode="&#x138;" horiz-adv-x="923" 
d="M334 573h55q37 0 63 13.5t54 52.5l127 186q26 36 26 76q0 65 -63 96v4h330v-4q-149 -50 -230 -170l-131 -196l209 -428q36 -76 79 -122t99 -77v-4h-336q-4 56 -47 147l-163 338q-12 26 -23.5 35.5t-30.5 9.5h-18v-323q0 -100 15.5 -136t68.5 -67v-4h-387v4q54 31 69 66.5
t15 136.5v569q0 102 -19.5 145t-77.5 76v4h316v-428z" />
    <glyph glyph-name="Lacute" unicode="&#x139;" horiz-adv-x="913" 
d="M293 1800h244q-32 -103 -115.5 -179.5t-206.5 -119.5h-6q41 75 59.5 142.5t24.5 156.5zM29 1434h448v-4q-66 -32 -87 -82t-21 -156v-1145h90q83 0 143 19.5t110.5 68.5t90.5 118t88 181h4l-41 -434h-825v4q66 32 87 82t21 156v950q0 106 -21 156t-87 82v4z" />
    <glyph glyph-name="lacute" unicode="&#x13a;" horiz-adv-x="440" 
d="M172 1866h244q-32 -103 -115.5 -179.5t-206.5 -119.5h-6q41 75 59.5 142.5t24.5 156.5zM328 1534v-1327q0 -101 15 -136.5t69 -66.5v-4h-387v4q54 31 69 66.5t15 136.5v1102q0 102 -20 145t-77 76v4h316z" />
    <glyph glyph-name="uni013B" unicode="&#x13b;" horiz-adv-x="913" 
d="M29 1434h448v-4q-66 -32 -87 -82t-21 -156v-1145h90q83 0 143 19.5t110.5 68.5t90.5 118t88 181h4l-41 -434h-825v4q66 32 87 82t21 156v950q0 106 -21 156t-87 82v4zM600 -260q0 -95 -71.5 -155.5t-182.5 -63.5v28q159 11 176 142q-29 -29 -84 -29q-49 0 -80.5 32
t-31.5 79q0 53 36 87t91 34q67 0 107 -41.5t40 -112.5z" />
    <glyph glyph-name="uni013C" unicode="&#x13c;" horiz-adv-x="440" 
d="M328 1534v-1327q0 -101 15 -136.5t69 -66.5v-4h-387v4q54 31 69 66.5t15 136.5v1102q0 102 -20 145t-77 76v4h316zM350 -260q0 -95 -71.5 -155.5t-182.5 -63.5v28q159 11 176 142q-29 -29 -84 -29q-49 0 -80.5 32t-31.5 79q0 53 36 87t91 34q67 0 107 -41.5t40 -112.5z
" />
    <glyph glyph-name="Lcaron" unicode="&#x13d;" horiz-adv-x="913" 
d="M29 1434h448v-4q-66 -32 -87 -82t-21 -156v-1145h90q83 0 143 19.5t110.5 68.5t90.5 118t88 181h4l-41 -434h-825v4q66 32 87 82t21 156v950q0 106 -21 156t-87 82v4zM793 1434q-23 -106 -91 -229t-143 -197h-6q50 192 35 426h205z" />
    <glyph glyph-name="lcaron" unicode="&#x13e;" horiz-adv-x="440" 
d="M328 1534v-1327q0 -101 15 -136.5t69 -66.5v-4h-387v4q54 31 69 66.5t15 136.5v1102q0 102 -20 145t-77 76v4h316zM627 1534q-23 -106 -91 -229t-143 -197h-6q50 192 35 426h205z" />
    <glyph glyph-name="Ldot" unicode="&#x13f;" horiz-adv-x="913" 
d="M29 1434h448v-4q-66 -32 -87 -82t-21 -156v-1145h90q83 0 143 19.5t110.5 68.5t90.5 118t88 181h4l-41 -434h-825v4q66 32 87 82t21 156v950q0 106 -21 156t-87 82v4zM584 723q0 57 40 97t97 40q59 0 100 -40t41 -97t-41.5 -98t-99.5 -41q-57 0 -97 41t-40 98z" />
    <glyph glyph-name="ldot" unicode="&#x140;" horiz-adv-x="673" 
d="M328 1534v-1327q0 -101 15 -136.5t69 -66.5v-4h-387v4q54 31 69 66.5t15 136.5v1102q0 102 -20 145t-77 76v4h316zM410 766q0 57 40 97t97 40q59 0 100 -40t41 -97t-41.5 -98t-99.5 -41q-57 0 -97 41t-40 98z" />
    <glyph glyph-name="Lslash" unicode="&#x141;" horiz-adv-x="917" 
d="M854 0h-825v4q66 32 87 82t21 156v374l-88 -34v59l88 33v518q0 106 -21 156t-87 82v4h448v-4q-66 -32 -87 -82t-21 -156v-438l219 82v-60l-219 -82v-647h90q83 0 143 19.5t110.5 68.5t90.5 118t88 181h4z" />
    <glyph glyph-name="lslash" unicode="&#x142;" horiz-adv-x="483" 
d="M434 0h-387v4q54 31 69 66.5t15 136.5v555l-121 -78v57l121 80v488q0 102 -19.5 145t-76.5 76v4h315v-596l123 82v-59l-123 -82v-672q0 -101 15 -136.5t69 -66.5v-4z" />
    <glyph glyph-name="Nacute" unicode="&#x143;" horiz-adv-x="1056" 
d="M508 1800h244q-32 -103 -115.5 -179.5t-206.5 -119.5h-6q41 75 59.5 142.5t24.5 156.5zM1069 1430q-72 -34 -107.5 -97t-35.5 -174v-1173h-49l-680 1298v-993q0 -124 36 -188.5t113 -98.5v-4h-352v4q73 34 108 96t35 174v918q0 106 -21 156t-87 82v4h358l479 -930v639
q0 124 -36 188.5t-113 98.5v4h352v-4z" />
    <glyph glyph-name="nacute" unicode="&#x144;" horiz-adv-x="927" 
d="M428 1489h209q-26 -120 -91 -209t-177 -168h-7q66 129 66 377zM20 1001h314v-206q29 109 96.5 168t161.5 59q107 0 168 -68.5t61 -197.5v-549q0 -101 15 -136.5t71 -66.5v-4h-389v4q54 31 69 66.5t15 136.5v538q0 152 -115 152q-65 0 -109 -64t-44 -196v-430
q0 -100 15.5 -136t70.5 -67v-4h-389v4q39 21 55.5 42.5t22.5 55.5t6 105v569q0 103 -19.5 146.5t-75.5 74.5v4z" />
    <glyph glyph-name="uni0145" unicode="&#x145;" horiz-adv-x="1056" 
d="M1069 1430q-72 -34 -107.5 -97t-35.5 -174v-1173h-49l-680 1298v-993q0 -124 36 -188.5t113 -98.5v-4h-352v4q73 34 108 96t35 174v918q0 106 -21 156t-87 82v4h358l479 -930v639q0 124 -36 188.5t-113 98.5v4h352v-4zM690 -260q0 -95 -71.5 -155.5t-182.5 -63.5v28
q159 11 176 142q-29 -29 -84 -29q-49 0 -80.5 32t-31.5 79q0 53 36 87t91 34q67 0 107 -41.5t40 -112.5z" />
    <glyph glyph-name="uni0146" unicode="&#x146;" horiz-adv-x="927" 
d="M20 1001h314v-206q29 109 96.5 168t161.5 59q107 0 168 -68.5t61 -197.5v-549q0 -101 15 -136.5t71 -66.5v-4h-389v4q54 31 69 66.5t15 136.5v538q0 152 -115 152q-65 0 -109 -64t-44 -196v-430q0 -100 15.5 -136t70.5 -67v-4h-389v4q39 21 55.5 42.5t22.5 55.5t6 105
v569q0 103 -19.5 146.5t-75.5 74.5v4zM618 -260q0 -95 -71 -155.5t-182 -63.5v28q159 11 176 142q-29 -29 -84 -29q-49 0 -81 32.5t-32 78.5q0 53 36 87t91 34q67 0 107 -41.5t40 -112.5z" />
    <glyph glyph-name="Ncaron" unicode="&#x147;" horiz-adv-x="1056" 
d="M305 1831q74 -9 145.5 -37t114.5 -68q40 40 111 68t145 37h15q-100 -79 -163.5 -158t-103.5 -182h-10q-40 103 -103 182.5t-163 157.5h12zM1069 1430q-72 -34 -107.5 -97t-35.5 -174v-1173h-49l-680 1298v-993q0 -124 36 -188.5t113 -98.5v-4h-352v4q73 34 108 96t35 174
v918q0 106 -21 156t-87 82v4h358l479 -930v639q0 124 -36 188.5t-113 98.5v4h352v-4z" />
    <glyph glyph-name="ncaron" unicode="&#x148;" horiz-adv-x="927" 
d="M246 1530q65 -26 133 -73t108 -93q38 46 106 93t134 73h12q-176 -195 -247 -422h-9q-71 221 -250 422h13zM20 1001h314v-206q29 109 96.5 168t161.5 59q107 0 168 -68.5t61 -197.5v-549q0 -101 15 -136.5t71 -66.5v-4h-389v4q54 31 69 66.5t15 136.5v538q0 152 -115 152
q-65 0 -109 -64t-44 -196v-430q0 -100 15.5 -136t70.5 -67v-4h-389v4q39 21 55.5 42.5t22.5 55.5t6 105v569q0 103 -19.5 146.5t-75.5 74.5v4z" />
    <glyph glyph-name="Eng" unicode="&#x14a;" horiz-adv-x="1056" 
d="M866 -137v176l-669 1245v-993q0 -124 36 -188.5t113 -98.5v-4h-352v4q73 34 108 96t35 174v918q0 106 -21 156t-87 82v4h358l479 -922v631q0 124 -36 188.5t-113 98.5v4h352v-4q-72 -34 -107.5 -97t-35.5 -174v-1284q0 -167 -68 -259.5t-196 -92.5q-117 0 -186.5 56
t-69.5 149q0 58 42.5 97.5t108.5 39.5q71 0 111 -37q-88 -22 -88 -129q0 -56 28 -91.5t78 -35.5q85 0 132.5 73t47.5 218z" />
    <glyph glyph-name="eng" unicode="&#x14b;" horiz-adv-x="923" 
d="M504 -477q-112 0 -183 48t-71 140q0 63 42.5 105.5t102.5 42.5q37 0 68 -17t43 -43q-92 -24 -92 -127q0 -52 24 -83t66 -31q32 0 52.5 19t30 56t12.5 73.5t3 88.5v950q0 152 -115 152q-65 0 -109 -64t-44 -196v-430q0 -100 15.5 -136t70.5 -67v-4h-389v4q39 21 55.5 42.5
t22.5 55.5t6 105v569q0 103 -19.5 146.5t-75.5 74.5v4h314v-206q29 109 96.5 168t161.5 59q107 0 168 -68.5t61 -197.5v-862q0 -184 -86.5 -277.5t-230.5 -93.5z" />
    <glyph glyph-name="Omacron" unicode="&#x14c;" horiz-adv-x="1105" 
d="M791 1552h-474v74h474v-74zM1057 717q0 -158 -39.5 -296t-107.5 -234.5t-160.5 -151.5t-196.5 -55t-197 55t-160.5 151.5t-107 234.5t-39.5 296t39.5 296t107 234.5t160.5 151.5t197 55t196.5 -55t160.5 -151.5t107.5 -234.5t39.5 -296zM791 717q0 692 -238 692
t-238 -692t238 -692t238 692z" />
    <glyph glyph-name="omacron" unicode="&#x14d;" horiz-adv-x="856" 
d="M664 1192h-474v74h474v-74zM428 -20q-168 0 -279.5 147.5t-111.5 374.5q0 226 111.5 373t279.5 147t278.5 -147t110.5 -373q0 -228 -110.5 -375t-278.5 -147zM428 18q156 0 156 484q0 481 -156 481q-158 0 -158 -481q0 -224 38 -354t120 -130z" />
    <glyph glyph-name="Obreve" unicode="&#x14e;" horiz-adv-x="1105" 
d="M793 1802q-23 -301 -238 -301q-217 0 -240 301h13q12 -73 73.5 -112t153.5 -39q91 0 152.5 39t74.5 112h11zM1057 717q0 -158 -39.5 -296t-107.5 -234.5t-160.5 -151.5t-196.5 -55t-197 55t-160.5 151.5t-107 234.5t-39.5 296t39.5 296t107 234.5t160.5 151.5t197 55
t196.5 -55t160.5 -151.5t107.5 -234.5t39.5 -296zM791 717q0 692 -238 692t-238 -692t238 -692t238 692z" />
    <glyph glyph-name="obreve" unicode="&#x14f;" horiz-adv-x="856" 
d="M641 1479q0 -167 -59.5 -261t-155.5 -94t-155.5 94t-59.5 261h12q11 -101 68.5 -149t134.5 -48t134.5 48t68.5 149h12zM428 -20q-168 0 -279.5 147.5t-111.5 374.5q0 226 111.5 373t279.5 147t278.5 -147t110.5 -373q0 -228 -110.5 -375t-278.5 -147zM428 18
q156 0 156 484q0 481 -156 481q-158 0 -158 -481q0 -224 38 -354t120 -130z" />
    <glyph glyph-name="Ohungarumlaut" unicode="&#x150;" horiz-adv-x="1105" 
d="M457 1812h202q-31 -101 -94 -174t-166 -137h-6q64 159 64 311zM696 1812h203q-31 -101 -94 -174t-166 -137h-6q63 157 63 311zM1057 717q0 -158 -39.5 -296t-107.5 -234.5t-160.5 -151.5t-196.5 -55t-197 55t-160.5 151.5t-107 234.5t-39.5 296t39.5 296t107 234.5
t160.5 151.5t197 55t196.5 -55t160.5 -151.5t107.5 -234.5t39.5 -296zM791 717q0 692 -238 692t-238 -692t238 -692t238 692z" />
    <glyph glyph-name="ohungarumlaut" unicode="&#x151;" horiz-adv-x="856" 
d="M332 1489h190q-27 -125 -85 -213t-165 -164h-6q66 129 66 377zM571 1489h191q-27 -125 -84.5 -213.5t-165.5 -163.5h-6q65 127 65 377zM428 -20q-168 0 -279.5 147.5t-111.5 374.5q0 226 111.5 373t279.5 147t278.5 -147t110.5 -373q0 -228 -110.5 -375t-278.5 -147z
M428 18q156 0 156 484q0 481 -156 481q-158 0 -158 -481q0 -224 38 -354t120 -130z" />
    <glyph glyph-name="OE" unicode="&#x152;" horiz-adv-x="1548" 
d="M737 49v1335h-43q-182 0 -286.5 -165.5t-104.5 -516.5q0 -317 110 -485t300 -168h24zM1499 385l-45 -385h-741q-140 1 -259.5 45.5t-210.5 130t-142.5 220.5t-51.5 306q0 145 34.5 266.5t94 206.5t140 144t172 87t190.5 28h631q81 0 110 16l49 -365h-4
q-55 107 -107.5 168.5t-133.5 97t-195 35.5h-63v-630h30q125 0 181 43.5t108 185.5h4v-475h-4q-27 71 -50.5 111t-59.5 61t-72.5 26t-106.5 5h-30v-666h73q117 0 201 38t142.5 109.5t111.5 190.5h4z" />
    <glyph glyph-name="oe" unicode="&#x153;" horiz-adv-x="1320" 
d="M1280 332q-22 -169 -104 -260.5t-222 -91.5q-161 0 -262 157q-105 -157 -264 -157q-168 0 -279.5 147.5t-111.5 374.5q0 226 111.5 373t279.5 147q164 0 268 -162q51 79 117.5 120.5t140.5 41.5q164 0 247 -129.5t83 -349.5h-483q0 -206 59.5 -326.5t177.5 -120.5
q77 0 136 59t92 179zM584 502q0 481 -156 481q-158 0 -158 -481q0 -224 38 -354t120 -130q156 0 156 484zM803 590h270q0 45 -0.5 78t-2.5 72t-5.5 67.5t-9.5 58t-15 49t-21 36t-28.5 24.5t-36.5 8q-64 0 -105 -111.5t-46 -281.5z" />
    <glyph glyph-name="Racute" unicode="&#x154;" horiz-adv-x="1069" 
d="M477 1800h244q-32 -103 -115.5 -179.5t-206.5 -119.5h-6q41 75 59.5 142.5t24.5 156.5zM369 1382v-661h53q147 0 231 80.5t84 255.5q0 161 -82 243t-233 82h-53zM29 1434h448q109 0 198 -20.5t160 -64t110.5 -118.5t39.5 -176q0 -89 -37.5 -159.5t-101 -112.5t-139 -65
t-160.5 -26q147 -10 235 -78.5t111 -189.5l33 -168q20 -109 60.5 -162t131.5 -90v-4h-342q-58 71 -84 221l-30 201q-21 121 -76 185.5t-170 64.5h-47v-430q0 -106 21 -156t87 -82v-4h-448v4q66 32 87 82t21 156v950q0 106 -21 156t-87 82v4z" />
    <glyph glyph-name="racute" unicode="&#x155;" horiz-adv-x="743" 
d="M346 1489h209q-26 -120 -91 -209t-177 -168h-6q65 127 65 377zM518 707q22 5 39.5 27t17.5 54q0 40 -23 63t-67 23q-61 0 -106 -84.5t-45 -216.5v-374q0 -65 11.5 -101.5t30.5 -53.5t64 -40v-4h-409v4q39 21 55.5 42.5t22.5 55.5t6 105v569q0 103 -19.5 146.5t-75.5 74.5
v4h314v-258q27 120 85 198.5t140 78.5q75 0 122.5 -46.5t47.5 -121.5q0 -73 -40.5 -120.5t-102.5 -47.5q-53 0 -68 23z" />
    <glyph glyph-name="uni0156" unicode="&#x156;" horiz-adv-x="1069" 
d="M369 1382v-661h53q147 0 231 80.5t84 255.5q0 161 -82 243t-233 82h-53zM29 1434h448q109 0 198 -20.5t160 -64t110.5 -118.5t39.5 -176q0 -89 -37.5 -159.5t-101 -112.5t-139 -65t-160.5 -26q147 -10 235 -78.5t111 -189.5l33 -168q20 -109 60.5 -162t131.5 -90v-4h-342
q-58 71 -84 221l-30 201q-21 121 -76 185.5t-170 64.5h-47v-430q0 -106 21 -156t87 -82v-4h-448v4q66 32 87 82t21 156v950q0 106 -21 156t-87 82v4zM670 -260q0 -95 -71.5 -155.5t-182.5 -63.5v28q159 11 176 142q-29 -29 -84 -29q-49 0 -81 32.5t-32 78.5q0 53 36 87
t91 34q67 0 107.5 -41.5t40.5 -112.5z" />
    <glyph glyph-name="uni0157" unicode="&#x157;" horiz-adv-x="743" 
d="M518 707q22 5 39.5 27t17.5 54q0 40 -23 63t-67 23q-61 0 -106 -84.5t-45 -216.5v-374q0 -65 11.5 -101.5t30.5 -53.5t64 -40v-4h-409v4q39 21 55.5 42.5t22.5 55.5t6 105v569q0 103 -19.5 146.5t-75.5 74.5v4h314v-258q27 120 85 198.5t140 78.5q75 0 122.5 -46.5
t47.5 -121.5q0 -73 -40.5 -120.5t-102.5 -47.5q-53 0 -68 23zM369 -260q0 -95 -71.5 -155.5t-182.5 -63.5v28q159 11 176 142q-29 -29 -84 -29q-49 0 -81 32.5t-32 78.5q0 53 36 87t91 34q67 0 107.5 -41.5t40.5 -112.5z" />
    <glyph glyph-name="Rcaron" unicode="&#x158;" horiz-adv-x="1069" 
d="M274 1831q74 -9 146.5 -37t114.5 -68q40 40 111 68t145 37h14q-100 -78 -163 -157.5t-103 -182.5h-11q-40 103 -103 182.5t-163 157.5h12zM369 1382v-661h53q147 0 231 80.5t84 255.5q0 161 -82 243t-233 82h-53zM29 1434h448q109 0 198 -20.5t160 -64t110.5 -118.5
t39.5 -176q0 -89 -37.5 -159.5t-101 -112.5t-139 -65t-160.5 -26q147 -10 235 -78.5t111 -189.5l33 -168q20 -109 60.5 -162t131.5 -90v-4h-342q-58 71 -84 221l-30 201q-21 121 -76 185.5t-170 64.5h-47v-430q0 -106 21 -156t87 -82v-4h-448v4q66 32 87 82t21 156v950
q0 106 -21 156t-87 82v4z" />
    <glyph glyph-name="rcaron" unicode="&#x159;" horiz-adv-x="743" 
d="M164 1530q66 -26 134 -73t108 -93q38 46 105.5 93t133.5 73h12q-176 -195 -247 -422h-9q-72 223 -249 422h12zM518 707q22 5 39.5 27t17.5 54q0 40 -23 63t-67 23q-61 0 -106 -84.5t-45 -216.5v-374q0 -65 11.5 -101.5t30.5 -53.5t64 -40v-4h-409v4q39 21 55.5 42.5
t22.5 55.5t6 105v569q0 103 -19.5 146.5t-75.5 74.5v4h314v-258q27 120 85 198.5t140 78.5q75 0 122.5 -46.5t47.5 -121.5q0 -73 -40.5 -120.5t-102.5 -47.5q-53 0 -68 23z" />
    <glyph glyph-name="Sacute" unicode="&#x15a;" horiz-adv-x="892" 
d="M414 1800h243q-32 -103 -115 -179.5t-206 -119.5h-6q41 75 59.5 142.5t24.5 156.5zM455 1409q-90 0 -150.5 -70.5t-60.5 -173.5q0 -48 15.5 -90t36 -71t60 -62t69 -52t81.5 -50l1 -1h1l1 -1h1l1 -1l1 -1h1l1 -1h1l1 -1l1 -1h1q138 -83 196 -136q136 -125 136 -310
q0 -125 -59 -219.5t-150.5 -141t-198.5 -46.5q-75 0 -162 29.5t-112 29.5q-30 0 -51.5 -13.5t-48.5 -45.5l-27 501h4q71 -209 177 -332.5t216 -123.5q102 0 164 68.5t62 187.5q0 30 -6 58.5t-13.5 51t-25 47.5t-29 40.5t-39 38.5t-40 33.5t-47 33t-47 30t-50.5 31.5
q-42 25 -66.5 41t-62 43.5t-60 49.5t-48.5 54.5t-40.5 65t-24.5 74.5t-10 88q0 175 115 284t281 109q68 0 141 -25.5t96 -25.5q53 0 86 51l21 -448h-4q-18 53 -31 87.5t-33 81t-38 77t-44 63t-53 51t-62 31t-75 12.5z" />
    <glyph glyph-name="sacute" unicode="&#x15b;" horiz-adv-x="716" 
d="M305 1489h209q-26 -120 -91 -209t-177 -168h-6q65 127 65 377zM340 981q-58 0 -92.5 -39.5t-34.5 -101.5q0 -69 38 -114t146 -95q139 -65 205 -144t66 -194q0 -145 -90 -229t-216 -84q-62 0 -126.5 23.5t-83.5 23.5q-23 0 -45.5 -13t-36.5 -34l-19 391h6
q54 -161 135.5 -257t167.5 -96q66 0 105 46t39 118q0 81 -41.5 124.5t-145.5 96.5q-139 67 -199.5 137.5t-60.5 186.5q0 131 83 213t196 82q56 0 116.5 -24.5t82.5 -24.5t39.5 11.5t41.5 37.5v-340h-6q-48 137 -118 218t-152 81z" />
    <glyph glyph-name="Scircumflex" unicode="&#x15c;" horiz-adv-x="892" 
d="M727 1491q-74 9 -145 37.5t-111 68.5q-43 -40 -114.5 -68.5t-145.5 -37.5h-12q100 78 163 157.5t103 182.5h10q40 -103 103 -182.5t163 -157.5h-14zM455 1409q-90 0 -150.5 -70.5t-60.5 -173.5q0 -48 15.5 -90t36 -71t60 -62t69 -52t81.5 -50l1 -1h1l1 -1h1l1 -1l1 -1h1
l1 -1h1l1 -1l1 -1h1q138 -83 196 -136q136 -125 136 -310q0 -125 -59 -219.5t-150.5 -141t-198.5 -46.5q-75 0 -162 29.5t-112 29.5q-30 0 -51.5 -13.5t-48.5 -45.5l-27 501h4q71 -209 177 -332.5t216 -123.5q102 0 164 68.5t62 187.5q0 30 -6 58.5t-13.5 51t-25 47.5
t-29 40.5t-39 38.5t-40 33.5t-47 33t-47 30t-50.5 31.5q-42 25 -66.5 41t-62 43.5t-60 49.5t-48.5 54.5t-40.5 65t-24.5 74.5t-10 88q0 175 115 284t281 109q68 0 141 -25.5t96 -25.5q53 0 86 51l21 -448h-4q-18 53 -31 87.5t-33 81t-38 77t-44 63t-53 51t-62 31t-75 12.5z
" />
    <glyph glyph-name="scircumflex" unicode="&#x15d;" horiz-adv-x="716" 
d="M602 1104q-68 28 -135.5 75t-104.5 93q-39 -47 -106.5 -93.5t-134.5 -74.5h-12q177 199 249 422h9q71 -227 247 -422h-12zM340 981q-58 0 -92.5 -39.5t-34.5 -101.5q0 -69 38 -114t146 -95q139 -65 205 -144t66 -194q0 -145 -90 -229t-216 -84q-62 0 -126.5 23.5
t-83.5 23.5q-23 0 -45.5 -13t-36.5 -34l-19 391h6q54 -161 135.5 -257t167.5 -96q66 0 105 46t39 118q0 81 -41.5 124.5t-145.5 96.5q-139 67 -199.5 137.5t-60.5 186.5q0 131 83 213t196 82q56 0 116.5 -24.5t82.5 -24.5t39.5 11.5t41.5 37.5v-340h-6q-48 137 -118 218
t-152 81z" />
    <glyph glyph-name="uni015E" unicode="&#x15e;" horiz-adv-x="892" 
d="M446 -457q-66 0 -110.5 35t-63.5 90l11 8q43 -71 106 -71q41 0 64.5 29t23.5 85q0 117 -119 123l64 138q-67 3 -148 31t-106 28q-30 0 -51.5 -13.5t-48.5 -45.5l-27 501h4q71 -209 177 -332.5t216 -123.5q102 0 164 68.5t62 187.5q0 30 -6 58.5t-13.5 51t-25 47.5
t-29 40.5t-39 38.5t-40 33.5t-47 33t-47 30t-50.5 31.5q-42 25 -66.5 41t-62 43.5t-60 49.5t-48.5 54.5t-40.5 65t-24.5 74.5t-10 88q0 175 115 284t281 109q68 0 141 -25.5t96 -25.5q53 0 86 51l21 -448h-4q-18 53 -31 87.5t-33 81t-38 77t-44 63t-53 51t-62 31t-75 12.5
q-90 0 -150.5 -70.5t-60.5 -173.5q0 -48 15.5 -90t36 -71t60 -62t69 -52t81.5 -50l1 -1h1l1 -1h1l1 -1l1 -1h1l1 -1h1l1 -1l1 -1h1q138 -83 196 -136q136 -125 136 -310q0 -122 -56 -215t-143.5 -140.5t-191.5 -51.5l-47 -105q91 2 151 -40t60 -122q0 -79 -51.5 -124.5
t-125.5 -45.5z" />
    <glyph glyph-name="uni015F" unicode="&#x15f;" horiz-adv-x="716" 
d="M338 -457q-66 0 -110.5 35t-63.5 90l10 8q43 -71 107 -71q41 0 64.5 29t23.5 85q0 117 -119 123l65 142q-40 5 -90.5 24t-72.5 19q-23 0 -45.5 -13t-36.5 -34l-19 391h6q54 -161 135.5 -257t167.5 -96q66 0 105 46t39 118q0 81 -41.5 124.5t-145.5 96.5
q-139 67 -199.5 137.5t-60.5 186.5q0 131 83 213t196 82q56 0 116.5 -24.5t82.5 -24.5t39.5 11.5t41.5 37.5v-340h-6q-48 137 -118 218t-152 81q-58 0 -92.5 -39.5t-34.5 -101.5q0 -69 38 -114t146 -95q139 -65 205 -144t66 -194q0 -145 -90 -229t-216 -84h-12l-47 -105
q91 2 151 -40t60 -122q0 -79 -51 -124.5t-125 -45.5z" />
    <glyph glyph-name="Scaron" unicode="&#x160;" horiz-adv-x="892" 
d="M211 1831q74 -9 145.5 -37t114.5 -68q40 40 111 68t145 37h14q-100 -78 -163 -157.5t-103 -182.5h-10q-40 103 -103 182.5t-163 157.5h12zM455 1409q-90 0 -150.5 -70.5t-60.5 -173.5q0 -48 15.5 -90t36 -71t60 -62t69 -52t81.5 -50l1 -1h1l1 -1h1l1 -1l1 -1h1l1 -1h1
l1 -1l1 -1h1q138 -83 196 -136q136 -125 136 -310q0 -125 -59 -219.5t-150.5 -141t-198.5 -46.5q-75 0 -162 29.5t-112 29.5q-30 0 -51.5 -13.5t-48.5 -45.5l-27 501h4q71 -209 177 -332.5t216 -123.5q102 0 164 68.5t62 187.5q0 30 -6 58.5t-13.5 51t-25 47.5t-29 40.5
t-39 38.5t-40 33.5t-47 33t-47 30t-50.5 31.5q-42 25 -66.5 41t-62 43.5t-60 49.5t-48.5 54.5t-40.5 65t-24.5 74.5t-10 88q0 175 115 284t281 109q68 0 141 -25.5t96 -25.5q53 0 86 51l21 -448h-4q-18 53 -31 87.5t-33 81t-38 77t-44 63t-53 51t-62 31t-75 12.5z" />
    <glyph glyph-name="scaron" unicode="&#x161;" horiz-adv-x="716" 
d="M121 1530q65 -26 133 -73t108 -93q38 46 106 93t134 73h12q-176 -195 -247 -422h-9q-72 223 -249 422h12zM340 981q-58 0 -92.5 -39.5t-34.5 -101.5q0 -69 38 -114t146 -95q139 -65 205 -144t66 -194q0 -145 -90 -229t-216 -84q-62 0 -126.5 23.5t-83.5 23.5
q-23 0 -45.5 -13t-36.5 -34l-19 391h6q54 -161 135.5 -257t167.5 -96q66 0 105 46t39 118q0 81 -41.5 124.5t-145.5 96.5q-139 67 -199.5 137.5t-60.5 186.5q0 131 83 213t196 82q56 0 116.5 -24.5t82.5 -24.5t39.5 11.5t41.5 37.5v-340h-6q-48 137 -118 218t-152 81z" />
    <glyph glyph-name="uni0162" unicode="&#x162;" horiz-adv-x="1122" 
d="M561 -457q-66 0 -110.5 35t-63.5 90l10 8q43 -71 107 -71q41 0 64.5 29t23.5 85q0 117 -119 123l74 158h-225v4q73 34 98.5 78.5t25.5 144.5v1166h-20q-41 0 -75 -5.5t-63.5 -18.5t-52.5 -28.5t-46 -43.5t-40.5 -55t-38 -70t-37.5 -82.5t-40 -98.5h-4l30 459
q29 -16 109 -16h786q80 0 109 16l31 -459h-4q-27 68 -45.5 111.5t-42.5 90.5t-45 75t-48.5 54.5t-58 40.5t-68.5 22t-84 8h-22v-1166q0 -100 26 -144.5t101 -78.5v-4h-219l-58 -125q91 2 151 -40t60 -122q0 -79 -51 -124.5t-125 -45.5z" />
    <glyph glyph-name="uni0163" unicode="&#x163;" horiz-adv-x="585" 
d="M315 -457q-66 0 -110.5 35t-63.5 90l11 8q43 -71 106 -71q41 0 64.5 29t23.5 85q0 117 -119 123l64 140q-193 16 -193 290v676h-94v17q114 30 190.5 131.5t104.5 255.5h18v-351h218l-11 -53h-207v-676q0 -92 21.5 -132t69.5 -40q112 0 133 224h18q-16 -344 -231 -344
l-47 -105q91 2 151 -40t60 -122q0 -79 -51.5 -124.5t-125.5 -45.5z" />
    <glyph glyph-name="Tcaron" unicode="&#x164;" horiz-adv-x="1122" 
d="M301 1831q74 -9 145.5 -37t114.5 -68q40 40 111 68t145 37h14q-100 -78 -163 -157.5t-103 -182.5h-10q-40 103 -103 182.5t-163 157.5h12zM168 1434h786q80 0 109 16l31 -459h-4q-27 68 -45.5 111.5t-42.5 90.5t-45 75t-48.5 54.5t-58 40.5t-68.5 22t-84 8h-22v-1166
q0 -100 26 -144.5t101 -78.5v-4h-481v4q73 34 98.5 78.5t25.5 144.5v1166h-20q-41 0 -75 -5.5t-63.5 -18.5t-52.5 -28.5t-46 -43.5t-40.5 -55t-38 -70t-37.5 -82.5t-40 -98.5h-4l30 459q29 -16 109 -16z" />
    <glyph glyph-name="tcaron" unicode="&#x165;" horiz-adv-x="585" 
d="M639 1534q-23 -106 -90.5 -229.5t-142.5 -196.5h-7q50 192 35 426h205zM541 324h18q-16 -344 -240 -344q-221 0 -221 292v676h-94v17q114 30 190.5 131.5t104.5 255.5h18v-351h218l-11 -53h-207v-676q0 -92 21.5 -132t69.5 -40q112 0 133 224z" />
    <glyph glyph-name="Tbar" unicode="&#x166;" horiz-adv-x="1122" 
d="M803 4v-4h-481v4q73 34 98.5 78.5t25.5 144.5v482h-153v53h153v631h-20q-41 0 -75 -5.5t-63.5 -18.5t-52.5 -28.5t-46 -43.5t-40.5 -55t-38 -70t-37.5 -82.5t-40 -98.5h-4l30 459q29 -16 109 -16h786q80 0 109 16l31 -459h-4q-27 68 -45.5 111.5t-42.5 90.5t-45 75
t-48.5 54.5t-58 40.5t-68.5 22t-84 8h-22v-631h153v-53h-153v-482q0 -100 26 -144.5t101 -78.5z" />
    <glyph glyph-name="tbar" unicode="&#x167;" horiz-adv-x="614" 
d="M580 324q-9 -168 -66.5 -256t-175.5 -88q-221 0 -221 292l2 379h-90v47h90v250h-96v17q114 30 190 131.5t104 255.5h19v-351h219l-10 -53h-209v-250h207v-47h-207v-379q0 -92 21.5 -132t70.5 -40q113 0 131 224h21z" />
    <glyph glyph-name="Utilde" unicode="&#x168;" horiz-adv-x="1048" 
d="M850 1815q-19 -140 -66 -215.5t-118 -75.5q-28 0 -63.5 20t-64 44.5t-63 44.5t-61.5 20q-49 0 -80 -37t-55 -107h-15q19 140 66 217.5t116 77.5q29 0 65.5 -20t64.5 -44.5t62.5 -44.5t61.5 -20q48 0 79.5 35.5t58.5 104.5h12zM934 1159v-739q0 -193 -105 -316.5
t-294 -123.5q-204 0 -312 116.5t-108 329.5v766q0 106 -21 155.5t-88 82.5v4h449v-4q-67 -33 -88 -82.5t-21 -155.5v-754q0 -354 260 -354q126 0 197 93t71 249v717q0 124 -36 188.5t-113 98.5v4h352v-4q-73 -33 -108 -96t-35 -175z" />
    <glyph glyph-name="utilde" unicode="&#x169;" horiz-adv-x="917" 
d="M731 1448q-17 -138 -61.5 -213.5t-110.5 -75.5q-32 0 -67 20t-60 43.5t-55.5 43.5t-54.5 20q-82 0 -127 -137h-15q19 139 63 214t111 75q32 0 67 -20t59.5 -43.5t55.5 -43.5t56 -20q44 0 73.5 35t53.5 102h12zM582 365v411q0 103 -19.5 146.5t-77.5 74.5v4h316v-778
q0 -103 16 -146t68 -73v-4h-303v205q-29 -109 -93 -167t-157 -58q-105 0 -166.5 69t-61.5 197v530q0 103 -19 146.5t-75 74.5v4h314v-743q0 -154 110 -154q64 0 106 64.5t42 196.5z" />
    <glyph glyph-name="Umacron" unicode="&#x16a;" horiz-adv-x="1048" 
d="M795 1552h-473v74h473v-74zM934 1159v-739q0 -193 -105 -316.5t-294 -123.5q-204 0 -312 116.5t-108 329.5v766q0 106 -21 155.5t-88 82.5v4h449v-4q-67 -33 -88 -82.5t-21 -155.5v-754q0 -354 260 -354q126 0 197 93t71 249v717q0 124 -36 188.5t-113 98.5v4h352v-4
q-73 -33 -108 -96t-35 -175z" />
    <glyph glyph-name="umacron" unicode="&#x16b;" horiz-adv-x="917" 
d="M694 1192h-473v74h473v-74zM582 365v411q0 103 -19.5 146.5t-77.5 74.5v4h316v-778q0 -103 16 -146t68 -73v-4h-303v205q-29 -109 -93 -167t-157 -58q-105 0 -166.5 69t-61.5 197v530q0 103 -19 146.5t-75 74.5v4h314v-743q0 -154 110 -154q64 0 106 64.5t42 196.5z" />
    <glyph glyph-name="Ubreve" unicode="&#x16c;" horiz-adv-x="1048" 
d="M797 1802q-23 -301 -238 -301q-217 0 -240 301h13q12 -73 73.5 -112t153.5 -39q91 0 152.5 39t74.5 112h11zM934 1159v-739q0 -193 -105 -316.5t-294 -123.5q-204 0 -312 116.5t-108 329.5v766q0 106 -21 155.5t-88 82.5v4h449v-4q-67 -33 -88 -82.5t-21 -155.5v-754
q0 -354 260 -354q126 0 197 93t71 249v717q0 124 -36 188.5t-113 98.5v4h352v-4q-73 -33 -108 -96t-35 -175z" />
    <glyph glyph-name="ubreve" unicode="&#x16d;" horiz-adv-x="917" 
d="M672 1479q0 -167 -59.5 -261t-155.5 -94t-155.5 94t-59.5 261h12q11 -101 68.5 -149t134.5 -48t134 48t68 149h13zM582 365v411q0 103 -19.5 146.5t-77.5 74.5v4h316v-778q0 -103 16 -146t68 -73v-4h-303v205q-29 -109 -93 -167t-157 -58q-105 0 -166.5 69t-61.5 197v530
q0 103 -19 146.5t-75 74.5v4h314v-743q0 -154 110 -154q64 0 106 64.5t42 196.5z" />
    <glyph glyph-name="Uring" unicode="&#x16e;" horiz-adv-x="1048" 
d="M557 1827q72 0 124 -51.5t52 -122.5q0 -70 -52 -121t-124 -51q-71 0 -123.5 51t-52.5 121t52.5 122t123.5 52zM557 1526q53 0 90 37t37 90t-37 90t-90 37t-90 -37t-37 -90t37 -90t90 -37zM934 1159v-739q0 -193 -105 -316.5t-294 -123.5q-204 0 -312 116.5t-108 329.5
v766q0 106 -21 155.5t-88 82.5v4h449v-4q-67 -33 -88 -82.5t-21 -155.5v-754q0 -354 260 -354q126 0 197 93t71 249v717q0 124 -36 188.5t-113 98.5v4h352v-4q-73 -33 -108 -96t-35 -175z" />
    <glyph glyph-name="uring" unicode="&#x16f;" horiz-adv-x="917" 
d="M457 1468q72 0 124 -51.5t52 -120.5q0 -71 -52 -122.5t-124 -51.5q-71 0 -123.5 52t-52.5 122q0 69 52.5 120.5t123.5 51.5zM457 1169q53 0 90 37.5t37 89.5t-37 89.5t-90 37.5t-90 -37.5t-37 -89.5t37 -89.5t90 -37.5zM582 365v411q0 103 -19.5 146.5t-77.5 74.5v4h316
v-778q0 -103 16 -146t68 -73v-4h-303v205q-29 -109 -93 -167t-157 -58q-105 0 -166.5 69t-61.5 197v530q0 103 -19 146.5t-75 74.5v4h314v-743q0 -154 110 -154q64 0 106 64.5t42 196.5z" />
    <glyph glyph-name="Uhungarumlaut" unicode="&#x170;" horiz-adv-x="1048" 
d="M463 1812h203q-31 -101 -94 -174t-166 -137h-7q64 159 64 311zM702 1812h203q-31 -101 -94 -174t-166 -137h-6q63 157 63 311zM934 1159v-739q0 -193 -105 -316.5t-294 -123.5q-204 0 -312 116.5t-108 329.5v766q0 106 -21 155.5t-88 82.5v4h449v-4q-67 -33 -88 -82.5
t-21 -155.5v-754q0 -354 260 -354q126 0 197 93t71 249v717q0 124 -36 188.5t-113 98.5v4h352v-4q-73 -33 -108 -96t-35 -175z" />
    <glyph glyph-name="uhungarumlaut" unicode="&#x171;" horiz-adv-x="917" 
d="M362 1489h191q-27 -125 -85 -213t-165 -164h-6q65 127 65 377zM602 1489h191q-27 -125 -84.5 -213.5t-165.5 -163.5h-6q65 127 65 377zM582 365v411q0 103 -19.5 146.5t-77.5 74.5v4h316v-778q0 -103 16 -146t68 -73v-4h-303v205q-29 -109 -93 -167t-157 -58
q-105 0 -166.5 69t-61.5 197v530q0 103 -19 146.5t-75 74.5v4h314v-743q0 -154 110 -154q64 0 106 64.5t42 196.5z" />
    <glyph glyph-name="Uogonek" unicode="&#x172;" horiz-adv-x="1048" 
d="M590 -477q-71 0 -117.5 44t-46.5 116q0 88 61.5 164t165.5 149q-59 -16 -118 -16q-204 0 -312 116.5t-108 329.5v766q0 106 -21 155.5t-88 82.5v4h449v-4q-67 -33 -88 -82.5t-21 -155.5v-754q0 -354 260 -354q126 0 197 93t71 249v717q0 124 -36 188.5t-113 98.5v4h352
v-4q-73 -33 -108 -96t-35 -175v-739q0 -133 -53.5 -237t-153.5 -169q-84 -56 -126 -127.5t-42 -144.5q0 -59 26 -89t70 -30q39 0 68 25t57 82l4 -4q-53 -203 -194 -203z" />
    <glyph glyph-name="uogonek" unicode="&#x173;" horiz-adv-x="917" 
d="M702 -274q-53 -203 -194 -203q-72 0 -118 44t-46 116q0 62 36.5 123t84.5 104t117 90v205q-29 -109 -93 -167t-157 -58q-105 0 -166.5 69t-61.5 197v530q0 103 -19 146.5t-75 74.5v4h314v-743q0 -154 110 -154q64 0 106 64.5t42 196.5v411q0 103 -19.5 146.5t-77.5 74.5
v4h316v-778q0 -103 16 -146t68 -73v-4h-269q-139 -130 -139 -260q0 -58 26 -87.5t70 -29.5q39 0 68 25t57 82z" />
    <glyph glyph-name="Wcircumflex" unicode="&#x174;" horiz-adv-x="1484" 
d="M1012 1491q-74 9 -145 37.5t-111 68.5q-43 -40 -114.5 -68.5t-145.5 -37.5h-13q100 79 163.5 158t103.5 182h10q40 -103 103 -182.5t163 -157.5h-14zM981 -20l-233 921l-244 -921h-8l-363 1224q-30 107 -54.5 150.5t-80.5 75.5v4h430v-4q-42 -20 -60 -46t-18 -63
q0 -35 25 -123l207 -731l139 539l-51 198q-26 102 -52 147.5t-83 78.5v4h421v-4q-43 -20 -61 -46.5t-18 -66.5q0 -25 20 -119l168 -743l190 704q17 63 17 107q0 120 -105 164v4h318v-4q-60 -31 -99 -95t-71 -174l-326 -1181h-8z" />
    <glyph glyph-name="wcircumflex" unicode="&#x175;" horiz-adv-x="1132" 
d="M846 1104q-68 28 -135.5 75t-104.5 93q-39 -47 -106.5 -93.5t-134.5 -74.5h-13q179 201 250 422h8q70 -226 248 -422h-12zM770 -20l-188 630l-205 -630h-4l-269 800q-34 101 -56 138.5t-68 78.5v4h374v-4q-61 -31 -61 -96q0 -40 24 -117l132 -426l104 349l-23 73
q-35 102 -56 139t-66 78v4h370v-4q-65 -35 -65 -104q0 -41 20 -109l115 -413l117 395q16 56 16 98q0 97 -90 133v4h262v-4q-47 -38 -71.5 -79.5t-57.5 -145.5l-250 -792h-4z" />
    <glyph glyph-name="Ycircumflex" unicode="&#x176;" horiz-adv-x="1075" 
d="M846 1491q-74 9 -145 37.5t-111 68.5q-43 -40 -114.5 -68.5t-145.5 -37.5h-13q100 79 163.5 158t103.5 182h10q40 -103 103 -182.5t163 -157.5h-14zM618 678l230 512q29 63 29 108q0 89 -97 132v4h297v-4q-54 -36 -85 -79.5t-66 -121.5l-281 -631v-371q0 -100 25 -144.5
t98 -78.5v-4h-469v4q73 34 98 78.5t25 144.5v371l-281 631q-36 80 -63.5 121.5t-79.5 79.5v4h432v-4q-35 -22 -52.5 -45.5t-17.5 -57.5q0 -39 27 -104z" />
    <glyph glyph-name="ycircumflex" unicode="&#x177;" horiz-adv-x="815" 
d="M692 1104q-67 28 -134 75t-105 93q-39 -46 -107 -93t-135 -75h-12q179 201 250 422h8q70 -226 248 -422h-13zM346 -193l47 150l-289 823q-36 103 -57 139.5t-67 77.5v4h391v-4q-70 -36 -70 -100q0 -36 25 -113l166 -526l153 508q19 59 19 102q0 94 -93 129v4h265v-4
q-48 -39 -73 -80.5t-56 -144.5l-314 -995q-19 -59 -37.5 -99t-45.5 -79t-65 -58.5t-87 -19.5q-66 0 -114 43t-48 114q0 69 44 109.5t99 40.5q39 0 60 -18q-22 -10 -37 -33.5t-15 -55.5q0 -34 20 -54.5t50 -20.5q43 0 72 36.5t57 124.5z" />
    <glyph glyph-name="Ydieresis" unicode="&#x178;" horiz-adv-x="1075" 
d="M446 1513q-51 0 -86.5 36.5t-35.5 86.5t36 87.5t86 37.5q51 0 86 -37t35 -88q0 -50 -34.5 -86.5t-86.5 -36.5zM733 1513q-53 0 -88 36t-35 87t35 88t88 37q49 0 86 -37.5t37 -87.5t-37 -86.5t-86 -36.5zM618 678l230 512q29 63 29 108q0 89 -97 132v4h297v-4
q-54 -36 -85 -79.5t-66 -121.5l-281 -631v-371q0 -100 25 -144.5t98 -78.5v-4h-469v4q73 34 98 78.5t25 144.5v371l-281 631q-36 80 -63.5 121.5t-79.5 79.5v4h432v-4q-35 -22 -52.5 -45.5t-17.5 -57.5q0 -39 27 -104z" />
    <glyph glyph-name="Zacute" unicode="&#x179;" horiz-adv-x="989" 
d="M471 1800h244q-32 -103 -115.5 -179.5t-206.5 -119.5h-6q41 75 59.5 142.5t24.5 156.5zM893 0h-868v4l637 1385h-181q-68 0 -123 -18t-94 -45.5t-76.5 -77t-62.5 -95t-59 -117.5h-5l41 414q29 -16 109 -16h719v-4l-633 -1385h186q71 0 125.5 13.5t97.5 40t81.5 75.5
t71 108.5t73.5 151.5h4z" />
    <glyph glyph-name="zacute" unicode="&#x17a;" horiz-adv-x="780" 
d="M350 1489h209q-26 -120 -91 -209t-177 -168h-6q65 127 65 377zM485 963h-102q-99 0 -171 -69.5t-151 -236.5h-4l27 359q58 -15 123 -15h524v-4l-457 -958h101q116 0 196 79.5t156 264.5h4l-39 -383h-663v4z" />
    <glyph glyph-name="Zdotaccent" unicode="&#x17b;" horiz-adv-x="989" 
d="M389 1661q0 57 40 98t97 41q58 0 100 -41t42 -98t-42 -98t-100 -41q-57 0 -97 41t-40 98zM893 0h-868v4l637 1385h-181q-68 0 -123 -18t-94 -45.5t-76.5 -77t-62.5 -95t-59 -117.5h-5l41 414q29 -16 109 -16h719v-4l-633 -1385h186q71 0 125.5 13.5t97.5 40t81.5 75.5
t71 108.5t73.5 151.5h4z" />
    <glyph glyph-name="zdotaccent" unicode="&#x17c;" horiz-adv-x="780" 
d="M268 1319q0 57 40.5 97t97.5 40q59 0 100 -40t41 -97t-41.5 -98t-99.5 -41q-57 0 -97.5 41t-40.5 98zM485 963h-102q-99 0 -171 -69.5t-151 -236.5h-4l27 359q58 -15 123 -15h524v-4l-457 -958h101q116 0 196 79.5t156 264.5h4l-39 -383h-663v4z" />
    <glyph glyph-name="Zcaron" unicode="&#x17d;" horiz-adv-x="989" 
d="M268 1831q74 -9 145.5 -37t114.5 -68q40 40 111 68t145 37h15q-100 -79 -163.5 -158t-103.5 -182h-10q-40 103 -103 182.5t-163 157.5h12zM893 0h-868v4l637 1385h-181q-68 0 -123 -18t-94 -45.5t-76.5 -77t-62.5 -95t-59 -117.5h-5l41 414q29 -16 109 -16h719v-4
l-633 -1385h186q71 0 125.5 13.5t97.5 40t81.5 75.5t71 108.5t73.5 151.5h4z" />
    <glyph glyph-name="zcaron" unicode="&#x17e;" horiz-adv-x="780" 
d="M168 1530q66 -26 134 -73t108 -93q38 46 105.5 93t133.5 73h13q-178 -196 -248 -422h-8q-71 221 -250 422h12zM485 963h-102q-99 0 -171 -69.5t-151 -236.5h-4l27 359q58 -15 123 -15h524v-4l-457 -958h101q116 0 196 79.5t156 264.5h4l-39 -383h-663v4z" />
    <glyph glyph-name="uni0192" unicode="&#x192;" horiz-adv-x="909" 
d="M78 -387q-107 0 -174.5 45.5t-67.5 128.5q0 59 36 94.5t97 36.5q64 0 113 -39q-39 -2 -62.5 -35t-23.5 -94q0 -54 18 -79t60 -25q30 0 53 18t37 52.5t22.5 73t14.5 89.5l88 821h-172l6 39h170l35 326q21 184 109.5 286.5t236.5 102.5q111 0 178.5 -47.5t67.5 -132.5
q0 -59 -36.5 -94t-97.5 -35q-71 0 -110 39q39 0 62.5 33t23.5 94q0 110 -82 110q-104 0 -127 -231l-49 -451h205l-7 -39h-202l-76 -698q-21 -185 -109.5 -287t-236.5 -102z" />
    <glyph glyph-name="AEacute" unicode="&#x1fc;" horiz-adv-x="1515" 
d="M958 1800h244q-32 -103 -115 -179.5t-206 -119.5h-7q41 75 59.5 142.5t24.5 156.5zM702 1235l-311 -686h311v686zM322 4v-4h-324v4q102 56 201 266l458 990q15 38 15 55q0 33 -25 59.5t-78 55.5v4h709q79 0 108 16l50 -365h-4q-32 63 -62.5 108t-68.5 83.5t-81.5 61.5
t-99.5 35.5t-125 12.5h-61v-630h31q125 0 179.5 43.5t106.5 185.5h4v-475h-4q-27 72 -50 111.5t-58 60.5t-72 26t-106 5h-31v-666h74q170 0 272.5 80t181.5 258h4l-45 -385h-827v4q66 32 87 82t21 156v254h-333l-99 -215q-41 -87 -41 -146q0 -90 93 -131z" />
    <glyph glyph-name="aeacute" unicode="&#x1fd;" horiz-adv-x="1230" 
d="M614 1489h209q-26 -120 -91 -209t-177 -168h-6q65 127 65 377zM1190 332q-22 -169 -104 -260.5t-222 -91.5q-111 0 -203.5 65.5t-132.5 185.5q-9 -107 -82 -176t-167 -69q-101 0 -166.5 62t-65.5 173q0 59 22.5 108t54.5 81t86 60t98.5 44t109.5 35l88 24v250
q0 73 -33 116.5t-94 43.5q-52 0 -82.5 -38t-30.5 -99q0 -59 22.5 -91t65.5 -32q15 0 27 6q-12 -45 -49.5 -70.5t-85.5 -25.5q-68 0 -110 40.5t-42 114.5q0 105 88.5 169.5t216.5 64.5q171 0 234 -135q101 133 231 133q164 0 247 -130t83 -349h-483q0 -206 59.5 -325.5
t177.5 -119.5q78 0 137.5 59t90.5 179zM713 586h272q0 73 -2 123t-9 106t-19.5 89t-35.5 55t-55 22q-64 0 -105 -112t-46 -283zM506 530l-55 -16q-93 -31 -143 -86.5t-50 -159.5q0 -74 29.5 -116.5t83.5 -42.5q59 0 95.5 52t37.5 154z" />
    <glyph glyph-name="Oslashacute" unicode="&#x1fe;" horiz-adv-x="1105" 
d="M498 1800h243q-32 -103 -115 -179.5t-206 -119.5h-6q41 75 59.5 142.5t24.5 156.5zM315 717q0 -187 17 -320l432 703q-54 309 -211 309q-238 0 -238 -692zM553 25q238 0 238 692q0 179 -17 309l-430 -704q53 -297 209 -297zM553 -20q-183 0 -322 161l-108 -178l-41 29
l117 190q-150 214 -150 535q0 158 39.5 296t107 234.5t160.5 151.5t197 55q187 0 326 -168l104 170l39 -29l-113 -182q148 -211 148 -528q0 -158 -39.5 -296t-107.5 -234.5t-160.5 -151.5t-196.5 -55z" />
    <glyph glyph-name="oslashacute" unicode="&#x1ff;" horiz-adv-x="856" 
d="M371 1489h209q-25 -119 -90.5 -208.5t-178.5 -168.5h-6q66 129 66 377zM270 502q0 -106 9 -191l286 457q-32 215 -137 215q-158 0 -158 -481zM428 18q156 0 156 484q0 106 -9 194l-286 -456q33 -222 139 -222zM428 -20q-135 0 -240 100l-77 -123l-39 27l84 133
q-119 151 -119 385q0 226 111.5 373t279.5 147q138 0 236 -98l73 116l39 -24l-80 -127q121 -146 121 -387q0 -228 -110.5 -375t-278.5 -147z" />
    <glyph glyph-name="uni0218" unicode="&#x218;" horiz-adv-x="892" 
d="M455 1409q-90 0 -150.5 -70.5t-60.5 -173.5q0 -48 15.5 -90t36 -71t60 -62t69 -52t81.5 -50l1 -1h1l1 -1h1l1 -1l1 -1h1l1 -1h1l1 -1l1 -1h1q138 -83 196 -136q136 -125 136 -310q0 -125 -59 -219.5t-150.5 -141t-198.5 -46.5q-75 0 -162 29.5t-112 29.5
q-30 0 -51.5 -13.5t-48.5 -45.5l-27 501h4q71 -209 177 -332.5t216 -123.5q102 0 164 68.5t62 187.5q0 30 -6 58.5t-13.5 51t-25 47.5t-29 40.5t-39 38.5t-40 33.5t-47 33t-47 30t-50.5 31.5q-42 25 -66.5 41t-62 43.5t-60 49.5t-48.5 54.5t-40.5 65t-24.5 74.5t-10 88
q0 175 115 284t281 109q68 0 141 -25.5t96 -25.5q53 0 86 51l21 -448h-4q-18 53 -31 87.5t-33 81t-38 77t-44 63t-53 51t-62 31t-75 12.5zM606 -260q0 -95 -71.5 -155.5t-182.5 -63.5v28q159 11 176 142q-29 -29 -84 -29q-49 0 -80.5 32t-31.5 79q0 53 36 87t91 34
q67 0 107 -41.5t40 -112.5z" />
    <glyph glyph-name="uni0219" unicode="&#x219;" horiz-adv-x="716" 
d="M340 981q-58 0 -92.5 -39.5t-34.5 -101.5q0 -69 38 -114t146 -95q139 -65 205 -144t66 -194q0 -145 -90 -229t-216 -84q-62 0 -126.5 23.5t-83.5 23.5q-23 0 -45.5 -13t-36.5 -34l-19 391h6q54 -161 135.5 -257t167.5 -96q66 0 105 46t39 118q0 81 -41.5 124.5
t-145.5 96.5q-139 67 -199.5 137.5t-60.5 186.5q0 131 83 213t196 82q56 0 116.5 -24.5t82.5 -24.5t39.5 11.5t41.5 37.5v-340h-6q-48 137 -118 218t-152 81zM494 -260q0 -95 -71.5 -155.5t-182.5 -63.5v28q159 11 176 142q-29 -29 -84 -29q-49 0 -81 32.5t-32 78.5
q0 53 36 87t91 34q67 0 107.5 -41.5t40.5 -112.5z" />
    <glyph glyph-name="uni021A" unicode="&#x21a;" horiz-adv-x="1122" 
d="M168 1434h786q80 0 109 16l31 -459h-4q-27 68 -45.5 111.5t-42.5 90.5t-45 75t-48.5 54.5t-58 40.5t-68.5 22t-84 8h-22v-1166q0 -100 26 -144.5t101 -78.5v-4h-481v4q73 34 98.5 78.5t25.5 144.5v1166h-20q-41 0 -75 -5.5t-63.5 -18.5t-52.5 -28.5t-46 -43.5t-40.5 -55
t-38 -70t-37.5 -82.5t-40 -98.5h-4l30 459q29 -16 109 -16zM698 -260q0 -95 -71.5 -155.5t-182.5 -63.5v28q160 11 177 142q-29 -29 -84 -29q-49 0 -81 32.5t-32 78.5q0 53 36 87t91 34q67 0 107 -41.5t40 -112.5z" />
    <glyph glyph-name="uni021B" unicode="&#x21b;" horiz-adv-x="585" 
d="M541 324h18q-16 -344 -240 -344q-221 0 -221 292v676h-94v17q114 30 190.5 131.5t104.5 255.5h18v-351h218l-11 -53h-207v-676q0 -92 21.5 -132t69.5 -40q112 0 133 224zM451 -260q0 -95 -71.5 -155.5t-182.5 -63.5v28q159 11 176 142q-29 -29 -84 -29q-49 0 -81 32.5
t-32 78.5q0 53 36 87t91 34q67 0 107.5 -41.5t40.5 -112.5z" />
    <glyph glyph-name="uni0237" unicode="&#x237;" horiz-adv-x="436" 
d="M334 -106q0 -184 -87 -277.5t-231 -93.5q-112 0 -182 47.5t-70 140.5q0 63 42 105.5t104 42.5q35 0 65.5 -17t44.5 -43q-38 -10 -66 -39.5t-28 -87.5q0 -51 25 -82.5t67 -31.5q31 0 51.5 19t29.5 56t12.5 74t3.5 88v981q0 103 -19.5 146.5t-75.5 74.5v4h314v-1107z" />
    <glyph glyph-name="uni02BB" unicode="&#x2bb;" 
d="M377 1307q0 94 71.5 154t182.5 63v-27q-81 -6 -124.5 -43.5t-51.5 -97.5q31 28 84 28q49 0 80.5 -32.5t31.5 -79.5q0 -53 -36 -87t-91 -34q-67 0 -107 41.5t-40 114.5z" />
    <glyph glyph-name="circumflex" unicode="&#x2c6;" 
d="M754 1104q-68 28 -135.5 75t-104.5 93q-39 -46 -107 -93t-135 -75h-12q179 201 250 422h8q70 -226 248 -422h-12z" />
    <glyph glyph-name="caron" unicode="&#x2c7;" 
d="M272 1530q66 -26 134 -73t108 -93q38 46 106 93t134 73h12q-178 -196 -248 -422h-8q-71 221 -250 422h12z" />
    <glyph glyph-name="breve" unicode="&#x2d8;" 
d="M727 1479q0 -167 -59.5 -261t-155.5 -94t-155.5 94t-59.5 261h12q11 -101 68.5 -149t134.5 -48t134.5 48t68.5 149h12z" />
    <glyph glyph-name="dotaccent" unicode="&#x2d9;" 
d="M373 1319q0 57 40 97t97 40q59 0 100 -40t41 -97t-41.5 -98t-99.5 -41q-57 0 -97 41t-40 98z" />
    <glyph glyph-name="ring" unicode="&#x2da;" 
d="M512 1468q72 0 124 -51.5t52 -120.5q0 -71 -52 -122.5t-124 -51.5q-71 0 -123.5 52t-52.5 122q0 69 52.5 120.5t123.5 51.5zM512 1169q52 0 89.5 37.5t37.5 89.5t-37.5 89.5t-89.5 37.5t-89.5 -37.5t-37.5 -89.5t37.5 -89.5t89.5 -37.5z" />
    <glyph glyph-name="ogonek" unicode="&#x2db;" 
d="M350 -317q0 54 25 105.5t72.5 98t91.5 79.5t106 73l8 -12q-170 -142 -170 -287q0 -58 26 -87.5t71 -29.5q39 0 68 25t57 82l4 -4q-53 -203 -195 -203q-72 0 -118 44t-46 116z" />
    <glyph glyph-name="tilde" unicode="&#x2dc;" 
d="M786 1448q-17 -138 -61.5 -213.5t-110.5 -75.5q-32 0 -67 20t-60 43.5t-55.5 43.5t-54.5 20q-82 0 -127 -137h-14q19 139 63 214t111 75q32 0 66.5 -20t59.5 -43.5t55.5 -43.5t55.5 -20q44 0 73.5 35t53.5 102h12z" />
    <glyph glyph-name="hungarumlaut" unicode="&#x2dd;" 
d="M330 1489h190q-27 -125 -85 -213t-165 -164h-6q66 129 66 377zM569 1489h191q-27 -125 -84.5 -213.5t-165.5 -163.5h-6q65 127 65 377z" />
    <glyph glyph-name="Wgrave" unicode="&#x1e80;" horiz-adv-x="1484" 
d="M817 1800q6 -89 24.5 -156.5t59.5 -142.5h-6q-123 43 -206.5 119.5t-115.5 179.5h244zM981 -20l-233 921l-244 -921h-8l-363 1224q-30 107 -54.5 150.5t-80.5 75.5v4h430v-4q-42 -20 -60 -46t-18 -63q0 -35 25 -123l207 -731l139 539l-51 198q-26 102 -52 147.5t-83 78.5
v4h421v-4q-43 -20 -61 -46.5t-18 -66.5q0 -25 20 -119l168 -743l190 704q17 63 17 107q0 120 -105 164v4h318v-4q-60 -31 -99 -95t-71 -174l-326 -1181h-8z" />
    <glyph glyph-name="wgrave" unicode="&#x1e81;" horiz-adv-x="1132" 
d="M657 1489q0 -248 66 -377h-8q-112 79 -176 168t-90 209h208zM770 -20l-188 630l-205 -630h-4l-269 800q-34 101 -56 138.5t-68 78.5v4h374v-4q-61 -31 -61 -96q0 -40 24 -117l132 -426l104 349l-23 73q-35 102 -56 139t-66 78v4h370v-4q-65 -35 -65 -104q0 -41 20 -109
l115 -413l117 395q16 56 16 98q0 97 -90 133v4h262v-4q-47 -38 -71.5 -79.5t-57.5 -145.5l-250 -792h-4z" />
    <glyph glyph-name="Wacute" unicode="&#x1e82;" horiz-adv-x="1484" 
d="M698 1800h244q-32 -103 -115 -179.5t-206 -119.5h-7q41 75 59.5 142.5t24.5 156.5zM981 -20l-233 921l-244 -921h-8l-363 1224q-30 107 -54.5 150.5t-80.5 75.5v4h430v-4q-42 -20 -60 -46t-18 -63q0 -35 25 -123l207 -731l139 539l-51 198q-26 102 -52 147.5t-83 78.5v4
h421v-4q-43 -20 -61 -46.5t-18 -66.5q0 -25 20 -119l168 -743l190 704q17 63 17 107q0 120 -105 164v4h318v-4q-60 -31 -99 -95t-71 -174l-326 -1181h-8z" />
    <glyph glyph-name="wacute" unicode="&#x1e83;" horiz-adv-x="1132" 
d="M549 1489h209q-25 -119 -90.5 -208.5t-178.5 -168.5h-6q66 129 66 377zM770 -20l-188 630l-205 -630h-4l-269 800q-34 101 -56 138.5t-68 78.5v4h374v-4q-61 -31 -61 -96q0 -40 24 -117l132 -426l104 349l-23 73q-35 102 -56 139t-66 78v4h370v-4q-65 -35 -65 -104
q0 -41 20 -109l115 -413l117 395q16 56 16 98q0 97 -90 133v4h262v-4q-47 -38 -71.5 -79.5t-57.5 -145.5l-250 -792h-4z" />
    <glyph glyph-name="Wdieresis" unicode="&#x1e84;" horiz-adv-x="1484" 
d="M610 1513q-51 0 -87 36.5t-36 86.5t36.5 87.5t86.5 37.5q51 0 86 -37t35 -88q0 -50 -34.5 -86.5t-86.5 -36.5zM897 1513q-53 0 -88 36t-35 87t35 88t88 37q49 0 86 -37.5t37 -87.5t-37 -86.5t-86 -36.5zM981 -20l-233 921l-244 -921h-8l-363 1224q-30 107 -54.5 150.5
t-80.5 75.5v4h430v-4q-42 -20 -60 -46t-18 -63q0 -35 25 -123l207 -731l139 539l-51 198q-26 102 -52 147.5t-83 78.5v4h421v-4q-43 -20 -61 -46.5t-18 -66.5q0 -25 20 -119l168 -743l190 704q17 63 17 107q0 120 -105 164v4h318v-4q-60 -31 -99 -95t-71 -174l-326 -1181h-8
z" />
    <glyph glyph-name="wdieresis" unicode="&#x1e85;" horiz-adv-x="1132" 
d="M463 1174q-51 0 -87 36t-36 86t36.5 87.5t86.5 37.5q51 0 86 -37t35 -88q0 -50 -34.5 -86t-86.5 -36zM750 1174q-53 0 -88 36t-35 86q0 51 35 88t88 37q49 0 85.5 -37.5t36.5 -87.5t-36 -86t-86 -36zM770 -20l-188 630l-205 -630h-4l-269 800q-34 101 -56 138.5t-68 78.5
v4h374v-4q-61 -31 -61 -96q0 -40 24 -117l132 -426l104 349l-23 73q-35 102 -56 139t-66 78v4h370v-4q-65 -35 -65 -104q0 -41 20 -109l115 -413l117 395q16 56 16 98q0 97 -90 133v4h262v-4q-47 -38 -71.5 -79.5t-57.5 -145.5l-250 -792h-4z" />
    <glyph glyph-name="Ygrave" unicode="&#x1ef2;" horiz-adv-x="1075" 
d="M651 1800q6 -89 24.5 -156.5t59.5 -142.5h-6q-123 43 -206 119.5t-115 179.5h243zM618 678l230 512q29 63 29 108q0 89 -97 132v4h297v-4q-54 -36 -85 -79.5t-66 -121.5l-281 -631v-371q0 -100 25 -144.5t98 -78.5v-4h-469v4q73 34 98 78.5t25 144.5v371l-281 631
q-36 80 -63.5 121.5t-79.5 79.5v4h432v-4q-35 -22 -52.5 -45.5t-17.5 -57.5q0 -39 27 -104z" />
    <glyph glyph-name="ygrave" unicode="&#x1ef3;" horiz-adv-x="815" 
d="M504 1489q0 -250 65 -377h-8q-112 79 -176 168t-90 209h209zM346 -193l47 150l-289 823q-36 103 -57 139.5t-67 77.5v4h391v-4q-70 -36 -70 -100q0 -36 25 -113l166 -526l153 508q19 59 19 102q0 94 -93 129v4h265v-4q-48 -39 -73 -80.5t-56 -144.5l-314 -995
q-19 -59 -37.5 -99t-45.5 -79t-65 -58.5t-87 -19.5q-66 0 -114 43t-48 114q0 69 44 109.5t99 40.5q39 0 60 -18q-22 -10 -37 -33.5t-15 -55.5q0 -34 20 -54.5t50 -20.5q43 0 72 36.5t57 124.5z" />
    <glyph glyph-name="uni2009" unicode="&#x2009;" horiz-adv-x="81" 
 />
    <glyph glyph-name="endash" unicode="&#x2013;" horiz-adv-x="765" 
d="M61 528v70h646v-70h-646z" />
    <glyph glyph-name="emdash" unicode="&#x2014;" horiz-adv-x="1167" 
d="M61 528v70h1045v-70h-1045z" />
    <glyph glyph-name="quoteleft" unicode="&#x2018;" horiz-adv-x="391" 
d="M127 1202q12 23 38.5 36t59.5 13q52 0 86.5 -35t34.5 -86q0 -60 -39.5 -98.5t-103.5 -38.5q-75 0 -120.5 54t-45.5 137q0 134 90.5 214.5t228.5 82.5v-27q-120 -15 -180.5 -85t-48.5 -167z" />
    <glyph glyph-name="quoteright" unicode="&#x2019;" horiz-adv-x="366" 
d="M264 1253q-12 -23 -38.5 -36t-59.5 -13q-52 0 -86.5 35t-34.5 86q0 60 39.5 98.5t103.5 38.5q75 0 120.5 -53.5t45.5 -136.5q0 -134 -90.5 -214.5t-228.5 -82.5v26q120 15 180.5 85t48.5 167z" />
    <glyph glyph-name="quotesinglbase" unicode="&#x201a;" horiz-adv-x="391" 
d="M264 29q-12 -23 -38.5 -36t-59.5 -13q-52 0 -86.5 34.5t-34.5 85.5q0 61 39.5 99.5t103.5 38.5q75 0 120.5 -54t45.5 -137q0 -134 -90.5 -214.5t-228.5 -82.5v27q120 15 180.5 85t48.5 167z" />
    <glyph glyph-name="quotedblleft" unicode="&#x201c;" horiz-adv-x="757" 
d="M494 1202q12 23 38.5 36t59.5 13q52 0 86.5 -35t34.5 -86q0 -60 -40 -98.5t-104 -38.5q-75 0 -120.5 54t-45.5 137q0 134 91 214.5t229 82.5v-27q-120 -15 -180.5 -85t-48.5 -167zM127 1202q12 23 38.5 36t59.5 13q52 0 86.5 -35t34.5 -86q0 -60 -39.5 -98.5
t-103.5 -38.5q-75 0 -120.5 54t-45.5 137q0 134 90.5 214.5t228.5 82.5v-27q-120 -15 -180.5 -85t-48.5 -167z" />
    <glyph glyph-name="quotedblright" unicode="&#x201d;" horiz-adv-x="757" 
d="M631 1255q-12 -23 -39 -36t-60 -13q-52 0 -86 35t-34 86q0 60 39.5 98.5t103.5 38.5q75 0 120.5 -53.5t45.5 -136.5q0 -134 -91 -214.5t-229 -82.5v27q120 15 181 85t49 166zM264 1255q-12 -23 -38.5 -36t-59.5 -13q-52 0 -86.5 35t-34.5 86q0 60 39.5 98.5t103.5 38.5
q75 0 120.5 -53.5t45.5 -136.5q0 -134 -90.5 -214.5t-228.5 -82.5v27q120 15 180.5 84.5t48.5 166.5z" />
    <glyph glyph-name="quotedblbase" unicode="&#x201e;" horiz-adv-x="757" 
d="M631 29q-12 -23 -39 -36t-60 -13q-52 0 -86 34.5t-34 85.5q0 61 39.5 99.5t103.5 38.5q75 0 120.5 -54t45.5 -137q0 -134 -91 -214.5t-229 -82.5v27q120 15 181 85t49 167zM264 29q-12 -23 -38.5 -36t-59.5 -13q-52 0 -86.5 34.5t-34.5 85.5q0 61 39.5 99.5t103.5 38.5
q75 0 120.5 -54t45.5 -137q0 -134 -90.5 -214.5t-228.5 -82.5v27q120 15 180.5 85t48.5 167z" />
    <glyph glyph-name="dagger" unicode="&#x2020;" horiz-adv-x="673" 
d="M422 1141q-78 -617 -80 -695h-10q-1 35 -21 208.5t-39 329.5l-20 157q-11 65 -49 67q-21 -102 -90 -102q-30 0 -52 19.5t-22 54.5q0 33 18 57.5t45 32.5q5 -47 41 -47q12 0 31.5 8t34.5 8q31 0 66.5 -22t52.5 -54q-15 179 -92 310q45 65 102 65q55 0 100 -65
q-80 -131 -92 -310q17 32 52.5 54t66.5 22q15 0 34 -8t31 -8q36 0 41 47q26 -8 45 -33t19 -57q0 -35 -22.5 -54.5t-53.5 -19.5q-35 0 -57.5 28t-30.5 74q-38 -2 -49 -67z" />
    <glyph glyph-name="daggerdbl" unicode="&#x2021;" horiz-adv-x="724" 
d="M371 973h-19q-5 79 -32 157.5t-57.5 123t-49.5 46.5q-22 -100 -100 -100q-32 0 -53 21.5t-21 58.5q0 32 20.5 56t51.5 32q6 -28 18 -37.5t33 -9.5q14 0 38.5 8t41.5 8q30 0 58 -18.5t46 -48.5q-8 134 -92 243q16 30 44 49t64 19q69 0 109 -68q-80 -107 -94 -243
q17 30 46.5 48.5t59.5 18.5q17 0 42 -8t40 -8q20 0 32 9.5t15 37.5q32 -8 54 -32.5t22 -55.5q0 -37 -22.5 -58.5t-55.5 -21.5q-40 0 -62.5 25t-35.5 75q-32 -4 -82.5 -107t-58.5 -220zM371 928q6 -78 33.5 -156.5t58 -123.5t49.5 -48q13 52 35.5 77t62.5 25q34 0 56 -21
t22 -58q0 -32 -22.5 -57t-53.5 -31q-5 47 -47 47q-15 0 -40 -8.5t-42 -8.5q-31 0 -60 18.5t-46 47.5q14 -134 94 -242q-41 -70 -109 -70q-35 0 -63.5 19.5t-44.5 50.5q84 109 92 242q-18 -30 -46 -48t-58 -18q-17 0 -41.5 8.5t-38.5 8.5q-21 0 -33 -10t-18 -37
q-31 6 -51.5 31t-20.5 57q0 37 21 58t53 21q78 0 100 -102q20 3 50 48t57 123.5t32 156.5h19z" />
    <glyph glyph-name="bullet" unicode="&#x2022;" horiz-adv-x="638" 
d="M66 557q0 105 74 179.5t179 74.5t180.5 -74.5t75.5 -179.5q0 -104 -76 -179t-180 -75t-178.5 75t-74.5 179z" />
    <glyph glyph-name="ellipsis" unicode="&#x2026;" horiz-adv-x="1267" 
d="M358 133q0 -61 -43 -104t-104 -43q-62 0 -105 43t-43 104q0 63 43 106.5t105 43.5t104.5 -43.5t42.5 -106.5zM760 133q0 -61 -43 -104t-105 -43t-104.5 43t-42.5 104q0 63 42.5 106.5t104.5 43.5t105 -43.5t43 -106.5zM1161 133q0 -61 -42.5 -104t-104.5 -43t-105 43
t-43 104q0 63 43 106.5t105 43.5t104.5 -43.5t42.5 -106.5z" />
    <glyph glyph-name="perthousand" unicode="&#x2030;" horiz-adv-x="1605" 
d="M188 0h-77l718 1374q-103 -90 -204 -90q-54 0 -119 21q35 -68 35 -152q0 -124 -73 -212.5t-177 -88.5t-177 88.5t-73 212.5q0 122 73.5 211.5t176.5 89.5q43 0 80 -13.5t63.5 -32t53 -37.5t62 -32.5t77.5 -13.5q40 0 73.5 9t68.5 33.5t57.5 44t66.5 61.5l22 -19zM291 887
q102 0 102 266t-102 266q-54 0 -79.5 -73.5t-25.5 -192.5q0 -121 25.5 -193.5t79.5 -72.5zM1565 291q0 -122 -73.5 -211.5t-176.5 -89.5t-176.5 89.5t-73.5 211.5q0 124 73 212.5t177 88.5t177 -88.5t73 -212.5zM758 -10q-103 0 -176.5 89.5t-73.5 211.5q0 124 73 212.5
t177 88.5t177 -88.5t73 -212.5q0 -122 -73.5 -211.5t-176.5 -89.5zM1315 25q102 0 102 266t-102 266q-54 0 -79.5 -72.5t-25.5 -193.5q0 -119 25.5 -192.5t79.5 -73.5zM758 25q102 0 102 266t-102 266q-54 0 -79.5 -72.5t-25.5 -193.5q0 -119 25.5 -192.5t79.5 -73.5z" />
    <glyph glyph-name="guilsinglleft" unicode="&#x2039;" horiz-adv-x="442" 
d="M31 498v4q110 69 207 167.5t161 211.5h13q-63 -243 -160 -381q97 -138 160 -381h-13q-64 113 -161 211.5t-207 167.5z" />
    <glyph glyph-name="guilsinglright" unicode="&#x203a;" horiz-adv-x="442" 
d="M412 502v-4q-111 -70 -207.5 -168.5t-159.5 -210.5h-14q64 245 162 381q-98 136 -162 381h14q63 -112 159.5 -210.5t207.5 -168.5z" />
    <glyph glyph-name="fraction" unicode="&#x2044;" horiz-adv-x="706" 
d="M0 -252l604 1786h62l-603 -1786h-63z" />
    <glyph glyph-name="Euro" unicode="&#x20ac;" horiz-adv-x="1052" 
d="M1008 418q-24 -204 -127 -321t-267 -117q-201 0 -332.5 175.5t-150.5 467.5h-102v41h100v43q0 30 4 84h-104v38h106q21 176 93.5 317t191 224.5t262.5 83.5q145 0 238.5 -66.5t93.5 -185.5q0 -75 -50 -122.5t-124 -47.5q-55 0 -98 23.5t-56 66.5q12 -6 35 -6
q56 0 87.5 40.5t31.5 103.5q0 70 -38.5 111.5t-105.5 41.5q-140 0 -221.5 -159.5t-95.5 -424.5h344l-16 -38h-330v-60q0 -44 2 -67h278l-14 -41h-262q15 -244 98.5 -379t220.5 -135q103 0 177.5 73t119.5 240z" />
    <glyph glyph-name="uni2117" unicode="&#x2117;" horiz-adv-x="1234" 
d="M1182 717q0 -209 -76 -379t-205 -264t-283 -94q-115 0 -219 55.5t-180 152t-121 234.5t-45 295t45 295t121 234.5t180 152t219 55.5q154 0 283 -94t205 -264t76 -379zM1143 717q0 197 -70 357t-190 249.5t-265 89.5q-109 0 -206 -53t-167 -144.5t-110.5 -221
t-40.5 -277.5q0 -197 69 -357t189 -250t266 -90q145 0 265 90t190 250t70 357zM567 645v-196q0 -59 16 -89t64 -53v-4h-307v4q35 19 46 50.5t11 95.5v538q0 64 -11 95.5t-46 52.5v2h309q131 0 212 -65.5t81 -182.5t-81 -182.5t-212 -65.5h-82zM567 676h39q82 0 124 59
t42 158t-42 158t-124 59h-39v-434z" />
    <glyph glyph-name="trademark" unicode="&#x2122;" horiz-adv-x="1310" 
d="M106 1434h369q35 0 53 6l27 -201h-4q-6 10 -24.5 39.5t-25.5 39.5t-23.5 30.5t-29 28.5t-31 15t-38.5 7h-19v-488q0 -43 12.5 -60t49.5 -38v-4h-260v4q36 21 48.5 38.5t12.5 59.5v488h-22q-15 0 -29 -4t-24.5 -8.5t-23 -17t-19.5 -19t-19.5 -25.5t-16.5 -25.5
t-18.5 -30.5t-17.5 -30h-6l28 201q18 -6 51 -6zM903 1055l119 379h201v-4q-34 -24 -44 -40t-10 -57v-426q0 -41 10 -56.5t44 -37.5v-4h-240v4q31 22 40 37t9 57v445l-174 -553h-4l-176 553v-445q0 -42 9.5 -57t43.5 -37v-4h-147v4q34 22 43.5 37t9.5 57v422q0 42 -10 60
t-43 41v4h207z" />
    <glyph glyph-name="uni2153" unicode="&#x2153;" horiz-adv-x="747" 
d="M295 1348q0 34 -20 47.5t-85 25.5v13h252v-508q0 -35 19.5 -48.5t83.5 -25.5v-12h-352v12q64 12 83 25.5t19 48.5v422zM45 733h657v-33h-657v33zM354 23q45 0 73 41t28 100q0 145 -129 145v19q60 3 84 37t24 100q0 46 -20 77t-56 31t-56.5 -23t-20.5 -56q0 -29 12 -47.5
t33 -18.5q14 0 18 4l4 -2q-21 -43 -82 -43q-41 0 -65.5 24.5t-24.5 63.5q0 58 51.5 92.5t130.5 34.5q98 0 157.5 -37.5t59.5 -105.5q0 -60 -44 -94.5t-117 -40.5q81 -5 133.5 -47t52.5 -113q0 -83 -69.5 -127.5t-176.5 -44.5q-90 0 -151.5 37t-61.5 104q0 46 29.5 72
t75.5 26q67 0 84 -43l-4 -2q-6 4 -19 4q-21 0 -33 -19t-12 -52q0 -43 25 -69.5t67 -26.5z" />
    <glyph glyph-name="uni2154" unicode="&#x2154;" horiz-adv-x="747" 
d="M348 1411q-42 0 -68 -27.5t-26 -64.5q0 -40 19.5 -63t48.5 -23q24 0 36 12h4q-23 -69 -98 -69q-47 0 -77.5 31t-30.5 81q0 70 53 112t139 42q104 0 170 -42t66 -128q0 -87 -70 -155t-238 -165h144q76 2 106.5 14t61.5 60h8l-25 -186h-434v4q185 179 245 268.5t60 185.5
q0 48 -22.5 80.5t-71.5 32.5zM45 733h657v-33h-657v33zM354 23q45 0 73 41t28 100q0 145 -129 145v19q60 3 84 37t24 100q0 46 -20 77t-56 31t-56.5 -23t-20.5 -56q0 -29 12 -47.5t33 -18.5q14 0 18 4l4 -2q-21 -43 -82 -43q-41 0 -65.5 24.5t-24.5 63.5q0 58 51.5 92.5
t130.5 34.5q98 0 157.5 -37.5t59.5 -105.5q0 -60 -44 -94.5t-117 -40.5q81 -5 133.5 -47t52.5 -113q0 -83 -69.5 -127.5t-176.5 -44.5q-90 0 -151.5 37t-61.5 104q0 46 29.5 72t75.5 26q67 0 84 -43l-4 -2q-6 4 -19 4q-21 0 -33 -19t-12 -52q0 -43 25 -69.5t67 -26.5z" />
    <glyph glyph-name="uni215B" unicode="&#x215b;" horiz-adv-x="747" 
d="M313 1348q0 34 -20.5 47.5t-85.5 25.5v13h254v-508q0 -35 19 -48.5t83 -25.5v-12h-352v12q64 12 83 25.5t19 48.5v422zM45 733h657v-33h-657v33zM449 360q165 -57 165 -186q0 -85 -64 -133.5t-165 -48.5q-102 0 -167.5 38.5t-65.5 108.5q0 52 39 85t102 44
q-50 20 -83.5 62t-33.5 96q0 84 58.5 130t146.5 46q85 0 141 -34t56 -93q0 -50 -39 -79t-90 -36zM285 492q0 -34 20 -56.5t62 -40.5l73 -30q49 39 49 110q0 43 -28.5 69.5t-79.5 26.5q-45 0 -70.5 -21.5t-25.5 -57.5zM301 262q-55 -34 -55 -112q0 -56 38 -90.5t101 -34.5
q54 0 86.5 23t32.5 61q0 44 -24.5 66.5t-80.5 45.5z" />
    <glyph glyph-name="uni215C" unicode="&#x215c;" horiz-adv-x="747" 
d="M371 862q46 0 73 41.5t27 100.5q0 145 -129 145v18q60 3 84.5 37.5t24.5 100.5q0 46 -19 77t-57 31q-35 0 -55.5 -23.5t-20.5 -56.5q0 -29 12 -47t33 -18q14 0 18 4l5 -2q-21 -43 -84 -43q-40 0 -65 25t-25 63q0 58 51.5 92.5t130.5 34.5q97 0 157 -38t60 -106
q0 -60 -44.5 -94.5t-117.5 -40.5q82 -5 134 -46.5t52 -112.5q0 -83 -68.5 -128t-176.5 -45q-89 0 -150 37.5t-61 104.5q0 46 29 72t73 26q70 0 84 -43l-4 -2q-6 4 -18 4q-20 0 -32.5 -20t-12.5 -52q0 -43 25.5 -69.5t66.5 -26.5zM45 733h657v-33h-657v33zM449 360
q165 -57 165 -186q0 -85 -64 -133.5t-165 -48.5q-102 0 -167.5 38.5t-65.5 108.5q0 52 39 85t102 44q-50 20 -83.5 62t-33.5 96q0 84 58.5 130t146.5 46q85 0 141 -34t56 -93q0 -50 -39 -79t-90 -36zM285 492q0 -34 20 -56.5t62 -40.5l73 -30q49 39 49 110q0 43 -28.5 69.5
t-79.5 26.5q-45 0 -70.5 -21.5t-25.5 -57.5zM301 262q-55 -34 -55 -112q0 -56 38 -90.5t101 -34.5q54 0 86.5 23t32.5 61q0 44 -24.5 66.5t-80.5 45.5z" />
    <glyph glyph-name="uni215D" unicode="&#x215d;" horiz-adv-x="747" 
d="M612 1042q0 -98 -71.5 -154.5t-175.5 -56.5q-87 0 -146 37.5t-59 104.5q0 46 28.5 72t71.5 26q66 0 84 -45h-6q-8 4 -16 4q-22 0 -34 -20.5t-12 -55.5q0 -40 24 -66t65 -26q52 0 78 47t26 115q0 69 -31.5 112.5t-89.5 43.5q-62 0 -112 -54h-5l37 314q96 -13 183 -13
q55 0 86 7t55 30q0 -76 -32.5 -117.5t-115.5 -41.5q-37 0 -84.5 8.5t-74.5 19.5l-19 -155q55 51 142 51q92 0 148 -51.5t56 -135.5zM45 733h657v-33h-657v33zM449 360q165 -57 165 -186q0 -85 -64 -133.5t-165 -48.5q-102 0 -167.5 38.5t-65.5 108.5q0 52 39 85t102 44
q-50 20 -83.5 62t-33.5 96q0 84 58.5 130t146.5 46q85 0 141 -34t56 -93q0 -50 -39 -79t-90 -36zM285 492q0 -34 20 -56.5t62 -40.5l73 -30q49 39 49 110q0 43 -28.5 69.5t-79.5 26.5q-45 0 -70.5 -21.5t-25.5 -57.5zM301 262q-55 -34 -55 -112q0 -56 38 -90.5t101 -34.5
q54 0 86.5 23t32.5 61q0 44 -24.5 66.5t-80.5 45.5z" />
    <glyph glyph-name="uni215E" unicode="&#x215e;" horiz-adv-x="747" 
d="M188 1219l19 215h426v-2l-111 -175q-103 -162 -71 -409l-154 -17q13 123 61.5 223t133.5 208l30 41h-217q-41 0 -61.5 -17t-44.5 -67h-11zM45 733h657v-33h-657v33zM449 360q165 -57 165 -186q0 -85 -64 -133.5t-165 -48.5q-102 0 -167.5 38.5t-65.5 108.5q0 52 39 85
t102 44q-50 20 -83.5 62t-33.5 96q0 84 58.5 130t146.5 46q85 0 141 -34t56 -93q0 -50 -39 -79t-90 -36zM285 492q0 -34 20 -56.5t62 -40.5l73 -30q49 39 49 110q0 43 -28.5 69.5t-79.5 26.5q-45 0 -70.5 -21.5t-25.5 -57.5zM301 262q-55 -34 -55 -112q0 -56 38 -90.5
t101 -34.5q54 0 86.5 23t32.5 61q0 44 -24.5 66.5t-80.5 45.5z" />
    <glyph glyph-name="minus" unicode="&#x2212;" horiz-adv-x="817" 
d="M88 631v57h641v-57h-641z" />
    <glyph glyph-name="approxequal" unicode="&#x2248;" horiz-adv-x="827" 
d="M92 670v69q87 84 172 84q58 0 150 -46t143 -46q88 0 178 94v-67q-84 -88 -178 -88q-55 0 -147.5 46t-145.5 46q-77 0 -172 -92zM92 492v69q86 86 172 86q58 0 150 -46t143 -46q88 0 178 94v-69q-82 -86 -178 -86q-55 0 -147.5 46t-145.5 46q-78 0 -172 -94z" />
    <glyph glyph-name="notequal" unicode="&#x2260;" horiz-adv-x="827" 
d="M735 526h-395l-127 -157h-68l127 157h-180v56h225l129 159h-354v56h400l122 153h68l-123 -153h176v-56h-221l-129 -159h350v-56z" />
    <glyph glyph-name="lessequal" unicode="&#x2264;" horiz-adv-x="555" 
d="M29 688v39l469 205v-60l-381 -165l381 -164v-60zM29 354v56h469v-56h-469z" />
    <glyph glyph-name="greaterequal" unicode="&#x2265;" horiz-adv-x="555" 
d="M526 727v-39l-467 -205v60l381 164l-381 165v60zM526 410v-56h-467v56h467z" />
    <glyph glyph-name="uni00200326" 
d="M649 -260q0 -95 -71.5 -155.5t-182.5 -63.5v28q159 11 176 142q-29 -29 -84 -29q-49 0 -80.5 32t-31.5 79q0 53 36 87t91 34q67 0 107 -41.5t40 -112.5z" />
    <glyph glyph-name="uni00200323" 
d="M373 -248q0 58 40 98.5t97 40.5q59 0 100 -40.5t41 -98.5q0 -57 -41 -97t-100 -40q-57 0 -97 40t-40 97z" />
    <glyph glyph-name="i.dot" horiz-adv-x="446" 
d="M84 1319q0 57 40 97t97 40q59 0 100 -40t41 -97t-41.5 -98t-99.5 -41q-57 0 -97 41t-40 98zM334 1001v-794q0 -100 15.5 -136t70.5 -67v-4h-389v4q39 21 55.5 42.5t22.5 55.5t6 105v569q0 103 -19.5 146.5t-75.5 74.5v4h314z" />
    <glyph glyph-name="hyphen.cap" horiz-adv-x="415" 
d="M61 680v82h295v-82h-295z" />
    <glyph glyph-name="endash.cap" horiz-adv-x="765" 
d="M61 684v68h646v-68h-646z" />
    <glyph glyph-name="emdash.cap" horiz-adv-x="1167" 
d="M61 684v68h1045v-68h-1045z" />
    <glyph glyph-name="parenleft.cap" horiz-adv-x="563" 
d="M80 684q0 155 34.5 294.5t96.5 250t139 196.5t170 152h27q-121 -133 -181.5 -369t-60.5 -524q0 -290 60.5 -525t181.5 -368h-27q-93 67 -169.5 152.5t-139 195.5t-97 249.5t-34.5 295.5z" />
    <glyph glyph-name="parenright.cap" horiz-adv-x="563" 
d="M43 1577q93 -67 169.5 -152.5t139 -195.5t97 -249.5t34.5 -295.5t-34.5 -295.5t-97 -249.5t-139 -195.5t-169.5 -152.5h-27q121 133 181.5 368t60.5 525t-60.5 525t-181.5 368h27z" />
    <glyph glyph-name="bracketleft.cap" horiz-adv-x="550" 
d="M135 -209v1786h379v-8l-180 -66v-1636l180 -68v-8h-379z" />
    <glyph glyph-name="bracketright.cap" horiz-adv-x="550" 
d="M416 1577v-1786h-379v8l180 68v1636l-180 66v8h379z" />
    <glyph glyph-name="braceleft.cap" horiz-adv-x="614" 
d="M25 676v14q190 7 190 297q0 42 -13.5 135t-13.5 148q0 137 85.5 222t228.5 85q50 0 86 -8v-10q-96 0 -148.5 -74.5t-52.5 -208.5q0 -46 13.5 -151t13.5 -150q0 -61 -20 -111t-49.5 -81t-68 -53.5t-70.5 -32.5t-61 -13q38 -5 79 -21.5t86.5 -48.5t74.5 -89.5t29 -131.5
q0 -45 -13.5 -150.5t-13.5 -150.5q0 -136 52.5 -210.5t148.5 -74.5v-10q-27 -6 -86 -6q-143 0 -228.5 84.5t-85.5 220.5q0 55 13.5 149t13.5 136q0 288 -190 295z" />
    <glyph glyph-name="braceright.cap" horiz-adv-x="614" 
d="M590 690v-12q-191 -7 -191 -297q0 -42 13.5 -135t13.5 -148q0 -137 -85 -222t-228 -85q-50 0 -86 8v8q96 0 148 75t52 210q0 46 -13 151t-13 150q0 75 29 133t74 89.5t86 48t79 20.5q-38 4 -79 20.5t-86 48t-74 89.5t-29 133q0 45 13 150t13 151q0 135 -52 210t-148 75v8
q36 8 86 8q143 0 228 -85t85 -222q0 -55 -13.5 -148t-13.5 -135q0 -290 191 -297z" />
    <glyph glyph-name="guilsinglleft.cap" horiz-adv-x="442" 
d="M31 702v5q110 70 207 167.5t161 210.5h13q-63 -241 -160 -380q97 -138 160 -381h-13q-64 113 -161 210.5t-207 167.5z" />
    <glyph glyph-name="guilsinglright.cap" horiz-adv-x="442" 
d="M412 707v-5q-111 -70 -207.5 -168t-159.5 -210h-14q64 245 162 381q-99 137 -162 380h14q63 -112 159.5 -210t207.5 -168z" />
    <glyph glyph-name="guillemotleft.cap" horiz-adv-x="727" 
d="M31 702v5q110 70 207 167.5t161 210.5h13q-63 -241 -160 -380q97 -138 160 -381h-13q-64 113 -161 210.5t-207 167.5zM313 702v5q111 70 208 168t161 210h14q-62 -239 -161 -380q99 -140 161 -381h-14q-64 112 -161 210t-208 168z" />
    <glyph glyph-name="guillemotright.cap" horiz-adv-x="727" 
d="M412 707v-5q-111 -70 -207.5 -168t-159.5 -210h-14q64 245 162 381q-99 137 -162 380h14q63 -112 159.5 -210t207.5 -168zM696 707v-5q-110 -70 -207 -167.5t-161 -210.5h-15q67 245 162 381q-96 136 -162 380h15q64 -113 161 -210.5t207 -167.5z" />
    <glyph glyph-name="slash.cap" horiz-adv-x="686" 
d="M4 -211l584 1786h61l-581 -1786h-64z" />
    <glyph glyph-name="backslash.cap" horiz-adv-x="686" 
d="M100 1575l582 -1786h-61l-584 1786h63z" />
    <glyph glyph-name="bar.cap" horiz-adv-x="391" 
d="M168 -211v1786h55v-1786h-55z" />
    <glyph glyph-name="at.cap" horiz-adv-x="1378" 
d="M1075 1100l-117 -606q-34 -175 78 -175q83 0 147 139t64 378q0 300 -143.5 473.5t-366.5 173.5q-163 0 -294 -109.5t-205 -304t-74 -434.5q0 -173 44.5 -315.5t122.5 -236t182.5 -144t225.5 -50.5q151 0 263.5 46.5t216.5 156.5l6 -10q-185 -254 -504 -254
q-145 0 -269.5 55t-217 156t-145 255.5t-52.5 342.5q0 190 55.5 357.5t150 285t223 185t271.5 67.5q123 0 232 -47t192 -133.5t131.5 -220t48.5 -295.5q0 -118 -20 -217t-53 -165.5t-76.5 -113t-90.5 -67.5t-95 -21q-88 0 -141.5 50.5t-63.5 146.5q-72 -197 -217 -197
q-98 0 -163 85t-65 224q0 144 48 269t132.5 200.5t184.5 75.5q74 0 121.5 -48.5t60.5 -119.5q28 53 78.5 101t93.5 61zM811 625l35 178q21 126 0.5 186t-76.5 60q-60 0 -114 -75.5t-84.5 -190.5t-30.5 -234q0 -213 112 -213q109 0 158 289z" />
    <glyph glyph-name="exclamdown.cap" horiz-adv-x="477" 
d="M238 1448q61 0 104 -43t43 -105q0 -63 -42.5 -106t-104.5 -43t-105 43t-43 106q0 62 43 105t105 43zM391 0h-305l147 997h11z" />
    <glyph glyph-name="questiondown.cap" horiz-adv-x="862" 
d="M467 1153q-63 0 -106.5 43.5t-43.5 106.5q0 62 43.5 104.5t106.5 42.5q61 0 103 -42.5t42 -104.5q0 -63 -42 -106.5t-103 -43.5zM453 23q92 0 144 60.5t52 158.5q0 75 -35.5 121.5t-87.5 46.5q-42 0 -67 -25l-2 2q20 64 64 99.5t104 35.5q83 0 141.5 -61t58.5 -160
q0 -138 -105 -228.5t-271 -90.5q-184 0 -297 111t-113 282q0 94 32.5 177.5t89 145t128 105.5t153.5 67v138h41v-361q-252 -74 -252 -354q0 -115 59 -192.5t163 -77.5z" />
    <glyph glyph-name="periodcentered.cap" horiz-adv-x="438" 
d="M367 705q0 -61 -43.5 -104.5t-104.5 -43.5t-104 43t-43 105q0 63 42.5 106t104.5 43t105 -43t43 -106z" />
    <glyph glyph-name="bullet.cap" horiz-adv-x="638" 
d="M66 709q0 104 74.5 179t178.5 75t180 -75t76 -179q0 -105 -75.5 -180.5t-180.5 -75.5q-104 0 -178.5 75t-74.5 181z" />
    <glyph glyph-name="zero.op" horiz-adv-x="1013" 
d="M958 641q0 -186 -54.5 -336t-158 -237.5t-237.5 -87.5t-238 87.5t-159.5 237.5t-55.5 336t55.5 336.5t159.5 238t238 87.5t237.5 -88t158 -238t54.5 -336zM717 641q0 116 -5 204.5t-19 169t-37 132.5t-60.5 82.5t-87.5 30.5q-63 0 -106 -44t-65 -131.5t-31 -192.5
t-9 -251t9 -251t31 -192t65 -131t106 -44t105 44t64 131t31 192t9 251z" />
    <glyph glyph-name="one.op" horiz-adv-x="610" 
d="M592 0h-563v8q6 2 16 7q100 40 123 60q31 25 33 83v16v928q0 24 -1.5 39.5t-10.5 30.5t-16.5 23t-31 21t-41 20.5t-58.5 25.5q-6 3 -9.5 4.5t-8.5 3.5l-10 4v8h410v-1108q0 -68 25.5 -92.5t122.5 -65.5q6 -2 10.5 -4t9.5 -4v-8z" />
    <glyph glyph-name="two.op" horiz-adv-x="845" 
d="M389 1266q-77 0 -123.5 -64.5t-46.5 -169.5q0 -84 40.5 -135t109.5 -51q37 0 69 18h4q-19 -57 -65 -90t-109 -33q-98 0 -157.5 65.5t-59.5 170.5q0 139 97.5 231t242.5 92q172 0 280.5 -97t108.5 -269q0 -57 -16.5 -114t-41 -106.5t-71 -107.5t-87.5 -102.5t-110.5 -107
t-120 -105t-134.5 -111.5h252q64 0 100.5 3t73.5 13t61 31.5t48 56t50 89.5h9l-37 -373h-772v4q179 188 282.5 311t173.5 237.5t94.5 209.5t24.5 211q0 59 -8 108t-26 92.5t-53 68t-83 24.5z" />
    <glyph glyph-name="three.op" horiz-adv-x="843" 
d="M395 18q100 0 149.5 90t49.5 244q0 160 -66.5 244t-195.5 84v20q65 2 109 25t67.5 65.5t33 93.5t9.5 120q0 121 -38.5 190.5t-117.5 69.5q-64 0 -102.5 -47.5t-38.5 -131.5q0 -57 27 -96t71 -39q27 0 43 8h2q-35 -92 -143 -92q-69 0 -115.5 47t-46.5 123q0 114 89 190.5
t218 76.5q163 0 262 -83t99 -216q0 -130 -80 -208t-213 -98q148 -9 247 -102t99 -242q0 -177 -118 -275.5t-302 -98.5q-72 0 -136 17.5t-116.5 51.5t-83 90.5t-30.5 128.5q0 90 58.5 145.5t139.5 55.5q105 0 142 -100h-7q-16 8 -49 8q-40 0 -66 -39.5t-26 -104.5
q0 -97 50 -156t126 -59z" />
    <glyph glyph-name="four.op" horiz-adv-x="901" 
d="M446 416v614l-348 -614h348zM446 258v102h-438v7l527 915h129v-866h28q75 0 105.5 28t66.5 123h4v-356h-4q-36 94 -66.5 121.5t-105.5 27.5h-28v-102q0 -108 23.5 -165t92.5 -89v-4h-448v4q68 32 91 88.5t23 165.5z" />
    <glyph glyph-name="five.op" horiz-adv-x="856" 
d="M379 18q74 0 124.5 54.5t72.5 140.5t22 199q0 153 -60.5 245.5t-170.5 92.5q-63 0 -122 -43.5t-100 -100.5h-2l64 692q189 -34 321 -34q105 0 158.5 17t95.5 79h2q0 -309 -258 -309q-77 0 -159 15.5t-134 35.5l-32 -387q95 110 258 110q161 0 259.5 -108.5t98.5 -290.5
q0 -131 -62 -234.5t-161.5 -157.5t-214.5 -54q-145 0 -249.5 80.5t-104.5 215.5q0 93 55 150t127 57q118 0 143 -100h-2q-15 12 -39 12q-39 -2 -70.5 -44.5t-31.5 -112.5q0 -97 47.5 -158.5t124.5 -61.5z" />
    <glyph glyph-name="six.op" horiz-adv-x="964" 
d="M600 1454q135 0 218 -66t83 -184q0 -80 -48 -130t-120 -50q-55 0 -101.5 29t-62.5 84h4q27 -15 56 -15q46 0 78 37t32 107q0 69 -35 109t-98 40q-80 0 -145 -59t-105.5 -156t-62 -213.5t-21.5 -238.5q0 -43 4 -101q36 117 101.5 179.5t177.5 62.5q67 0 128.5 -26.5
t113.5 -77.5t83 -137.5t31 -196.5q0 -207 -113.5 -339t-295.5 -132q-109 0 -196 56t-140 151t-81 215t-28 255q0 143 39.5 284.5t108.5 256t172.5 185.5t222.5 71zM694 438q0 114 -21 200t-67 138.5t-112 52.5q-92 0 -145.5 -112.5t-53.5 -278.5q0 -112 20 -203.5t68 -153
t117 -61.5q63 0 108 58t65.5 150.5t20.5 209.5z" />
    <glyph glyph-name="seven.op" horiz-adv-x="864" 
d="M72 1303q46 -21 151 -21h623v-4l-178 -324q-66 -122 -105 -254.5t-52 -262t-15.5 -277t4.5 -299.5l-244 -25q22 328 113 592t258 545l63 102h-375q-109 0 -170.5 -38t-111.5 -150h-4z" />
    <glyph glyph-name="eight.op" horiz-adv-x="892" 
d="M539 743q157 -66 237 -161.5t80 -229.5q0 -158 -114 -265t-289 -107q-181 0 -298.5 92t-117.5 247q0 110 76 185.5t192 109.5q-88 48 -148.5 135t-60.5 201q0 152 101 252.5t249 100.5q145 0 243.5 -83t98.5 -212q0 -202 -249 -265zM262 1032q0 -87 41.5 -137t120.5 -92
l96 -49q54 45 83.5 104.5t29.5 151.5q0 121 -49.5 187.5t-137.5 66.5q-76 0 -130 -64t-54 -168zM498 516l-172 88q-119 -85 -119 -274q0 -141 67.5 -225.5t178.5 -84.5q98 0 162.5 72t64.5 187q0 84 -42.5 135t-139.5 102z" />
    <glyph glyph-name="nine.op" horiz-adv-x="966" 
d="M272 844q0 -174 51 -282.5t150 -108.5q92 0 145.5 112.5t53.5 278.5q0 112 -20 203.5t-68 153t-117 61.5q-63 0 -108 -58t-66 -150.5t-21 -209.5zM367 -172q-135 0 -218 66t-83 184q0 80 47.5 130t119.5 50q55 0 101.5 -29t62.5 -84h-4q-27 15 -55 15q-46 0 -78.5 -37.5
t-32.5 -106.5t35 -109t98 -40q80 0 145 59.5t105.5 156.5t62 213.5t21.5 238.5q0 42 -4 100q-37 -118 -101.5 -180t-176.5 -62q-67 0 -129 26.5t-114 77.5t-83 137.5t-31 196.5q0 207 114 339.5t296 132.5q109 0 195.5 -56t140 -151.5t81 -215.5t27.5 -255
q0 -143 -39.5 -284.5t-108 -256t-172 -185.5t-222.5 -71z" />
    <glyph glyph-name="percent.op" horiz-adv-x="1048" 
d="M182 0h-78l725 1223q-103 -90 -204 -90q-52 0 -121 26q37 -70 37 -158q0 -124 -73 -212.5t-177 -88.5t-177 88.5t-73 212.5q0 123 73.5 212.5t176.5 89.5q43 0 80 -13.5t63.5 -32.5t53 -37.5t62 -32t77.5 -13.5q53 0 100.5 21t78 46t87.5 80l22 -18zM291 735
q102 0 102 266q0 267 -102 267q-54 0 -79.5 -74t-25.5 -193q0 -121 25.5 -193.5t79.5 -72.5zM758 -10q-103 0 -176.5 89.5t-73.5 211.5q0 124 73 212.5t177 88.5t177 -88.5t73 -212.5q0 -122 -73.5 -211.5t-176.5 -89.5zM758 25q102 0 102 266t-102 266q-54 0 -79.5 -72.5
t-25.5 -193.5q0 -119 25.5 -192.5t79.5 -73.5z" />
    <glyph glyph-name="perthousand.op" horiz-adv-x="1605" 
d="M182 0h-78l725 1223q-103 -90 -204 -90q-52 0 -121 26q37 -70 37 -158q0 -124 -73 -212.5t-177 -88.5t-177 88.5t-73 212.5q0 123 73.5 212.5t176.5 89.5q43 0 80 -13.5t63.5 -32.5t53 -37.5t62 -32t77.5 -13.5q53 0 100.5 21t78 46t87.5 80l22 -18zM291 735
q102 0 102 266q0 267 -102 267q-54 0 -79.5 -74t-25.5 -193q0 -121 25.5 -193.5t79.5 -72.5zM758 -10q-103 0 -176.5 89.5t-73.5 211.5q0 124 73 212.5t177 88.5t177 -88.5t73 -212.5q0 -122 -73.5 -211.5t-176.5 -89.5zM1315 -10q-103 0 -176.5 89.5t-73.5 211.5
q0 124 73 212.5t177 88.5t177 -88.5t73 -212.5q0 -122 -73.5 -211.5t-176.5 -89.5zM758 25q102 0 102 266t-102 266q-54 0 -79.5 -72.5t-25.5 -193.5q0 -119 25.5 -192.5t79.5 -73.5zM1315 25q102 0 102 266t-102 266q-54 0 -79.5 -72.5t-25.5 -193.5q0 -119 25.5 -192.5
t79.5 -73.5z" />
    <glyph glyph-name="dollar.op" horiz-adv-x="872" 
d="M438 1264q-19 0 -47 -4v-455l92 -41v498q-14 2 -45 2zM215 1040q0 -88 36 -136.5t107 -82.5v430q-67 -23 -105 -80.5t-38 -130.5zM420 18q28 0 63 7v493l-92 41v-539q10 -2 29 -2zM680 279q0 93 -37.5 139.5t-128.5 85.5v-473q81 23 123.5 87t42.5 161zM420 -20h-29v-213
h-33v215q-149 13 -239 85.5t-90 176.5q0 67 43 109t104 42q66 0 100 -49q-36 0 -59.5 -30t-23.5 -85q0 -80 42.5 -135.5t122.5 -70.5v550h-2q-69 31 -118 61.5t-92.5 73.5t-65 101t-21.5 131q0 139 82.5 234.5t216.5 119.5v197h33v-193q21 3 47 3q24 0 45 -3v193h31v-195
q126 -15 201.5 -77.5t75.5 -155.5q0 -65 -37 -100t-90 -35q-74 0 -101 43q34 0 58 32.5t24 84.5q0 66 -34 108t-97 57v-505l23 -11q55 -25 93.5 -45.5t79.5 -53t65 -68.5t40 -88t16 -115q0 -149 -90 -250t-227 -129v-223h-31v217q-40 -4 -63 -4z" />
    <glyph glyph-name="sterling.op" horiz-adv-x="989" 
d="M715 -33q-29 0 -57.5 4.5t-49.5 9t-49 18t-41 19.5t-41.5 25.5t-35.5 24.5t-38 29t-34 26q-82 -143 -217 -143q-62 0 -101 33.5t-39 92.5q0 62 45.5 100t112.5 38q51 0 119 -21q8 49 8 117q0 155 -39 315h-141v37h133q-33 132 -33 217q0 177 112.5 285.5t303.5 108.5
q140 0 221.5 -63.5t81.5 -170.5q0 -76 -47 -121t-111 -45q-50 0 -89.5 21.5t-55.5 52.5q63 -2 100 36t37 120q0 60 -33 96.5t-88 36.5q-94 0 -140 -81.5t-46 -226.5v-266h250v-37h-250v-100q0 -219 -64 -369q140 -51 252 -51q95 0 148 41.5t53 120.5q0 43 -27 82
q64 -22 101 -73.5t37 -119.5q0 -104 -69 -161.5t-179 -57.5zM141 23q54 0 89 42t51 115q-53 29 -111 29q-51 0 -83 -28.5t-32 -74.5q0 -40 24 -61.5t62 -21.5z" />
    <glyph glyph-name="yen.op" horiz-adv-x="1019" 
d="M733 4v-4h-452v4q69 31 92.5 70.5t23.5 128.5v254h-235v39h235v39l-43 90h-192v39h176l-203 432q-34 72 -60.5 110t-74.5 72v4h414v-4q-66 -38 -66 -92q0 -34 25 -92l213 -496l215 465q24 60 24 96q0 80 -92 119v4h287v-4q-50 -33 -79 -72t-64 -110l-201 -432h176v-39
h-195l-41 -90v-39h236v-39h-236v-254q0 -89 24 -128.5t93 -70.5z" />
    <glyph glyph-name="Euro.op" horiz-adv-x="968" 
d="M932 373q-19 -181 -113 -287t-239 -106q-182 0 -299 154t-136 413h-102v41h100v43q0 28 4 82h-104v41h109q20 155 85 279t170 197t232 73q129 0 213 -62.5t84 -169.5q0 -68 -45 -110.5t-111 -42.5q-48 0 -86.5 21.5t-50.5 59.5q15 -6 33 -6q49 0 76.5 36.5t27.5 92.5
q0 62 -34.5 100t-92.5 38q-121 0 -194.5 -138.5t-87.5 -367.5h340l-15 -41h-327v-58q0 -44 2 -67h276l-16 -41h-258q15 -215 88.5 -333t193.5 -118q193 0 265 279z" />
    <glyph glyph-name="uni0192.op" horiz-adv-x="911" 
d="M78 -387q-107 0 -174.5 45.5t-67.5 128.5q0 59 36 94.5t97 36.5q64 0 113 -39q-39 -2 -62.5 -35t-23.5 -94q0 -54 18 -79t60 -25q30 0 53 18t37 52.5t22.5 73t14.5 89.5l71 694h-155l6 41h153l31 297q21 185 109.5 287t236.5 102q111 0 178.5 -47t67.5 -131
q0 -60 -36 -95.5t-97 -35.5q-72 0 -111 39q40 2 63 34t23 93q0 111 -82 111q-104 0 -127 -232l-45 -422h222l-7 -41h-219l-59 -571q-19 -183 -108.5 -286t-237.5 -103z" />
    </font>
</defs>
</svg>
